# 3ds Max Wavefront OBJ Exporter v0.99 - (c)2007 guruware
# File Created: 21.12.2022 10:13:50

mtllib Dagger_Sketchfab_M.mtl

#
# object Dagger_M
#

v  3.5979 -1.0532 -6.7551
v  -0.9412 0.5165 -0.0000
v  -0.9413 0.5164 -7.1028
v  2.3584 8.6292 -8.0159
v  -2.4529 10.2866 -7.6236
v  0.6573 19.8957 -5.5059
v  5.3436 18.1911 -5.7891
v  -6.7935 11.7815 -6.4852
v  -3.5709 21.4321 -4.6839
v  -10.2389 12.9669 -4.7121
v  -6.9287 22.6467 -3.4033
v  -12.4540 13.7230 -2.4778
v  -9.0892 23.4127 -1.7890
v  -13.2204 13.9772 -0.0000
v  -9.8339 23.6741 -0.0000
v  -12.4540 13.7230 2.4778
v  -9.0892 23.4127 1.7890
v  -10.2389 12.9669 4.7121
v  -6.9287 22.6466 3.4033
v  -6.7935 11.7815 6.4852
v  -3.5709 21.4321 4.6839
v  -2.4529 10.2866 7.6236
v  0.6574 19.8958 5.5059
v  2.3584 8.6293 8.0159
v  5.3436 18.1910 5.7891
v  7.1697 6.9717 7.6236
v  10.0295 16.4854 5.5059
v  11.5100 5.4762 6.4851
v  14.2565 14.9456 4.6839
v  14.9545 4.2890 4.7119
v  17.6107 13.7213 3.4035
v  17.1661 3.5254 2.4774
v  19.7628 12.9302 1.7894
v  17.9280 3.2611 -0.0000
v  20.5031 12.6542 -0.0000
v  17.1660 3.5254 -2.4774
v  19.7628 12.9302 -1.7895
v  14.9545 4.2889 -4.7119
v  17.6107 13.7214 -3.4035
v  11.5099 5.4762 -6.4851
v  14.2565 14.9456 -4.6839
v  7.1696 6.9717 -7.6236
v  10.0294 16.4854 -5.5059
v  13.2326 25.2341 -5.0410
v  8.9046 26.6410 -0.0000
v  17.1370 23.9649 -4.2882
v  2.3997 24.6605 -7.5640
v  7.5794 23.0000 -7.9532
v  -2.2730 26.1588 -6.4345
v  -5.9815 27.3481 -4.6752
v  -8.3627 28.1120 -2.4580
v  -9.1832 28.3757 -0.0000
v  -8.3627 28.1120 2.4580
v  -5.9816 27.3480 4.6752
v  -2.2730 26.1588 6.4345
v  2.3997 24.6606 7.5640
v  7.5793 22.9999 7.9532
v  11.6413 19.3516 6.7212
v  12.5899 21.4158 7.0275
v  10.5309 22.0536 7.7314
v  13.9530 20.9566 7.3711
v  21.1405 18.6523 4.6751
v  17.4318 19.8412 6.4345
v  23.5219 17.8892 2.4580
v  24.3426 17.6263 -0.0000
v  23.5219 17.8892 -2.4580
v  21.1405 18.6524 -4.6751
v  17.4318 19.8412 -6.4345
v  12.7590 21.3393 -7.5640
v  0.6189 3.8761 -10.7444
v  -4.7838 5.6729 -10.2186
v  6.0215 2.0794 -10.2186
v  10.8955 0.4585 -8.6925
v  14.7635 -0.8278 -6.3156
v  17.2470 -1.6539 -3.3204
v  18.1028 -1.9386 -0.0000
v  17.2470 -1.6539 3.3203
v  14.7635 -0.8278 6.3156
v  10.8955 0.4585 8.6925
v  6.0216 2.0794 10.2186
v  0.6189 3.8762 10.7444
v  -4.7838 5.6729 10.2186
v  -9.6577 7.2938 8.6926
v  -12.2630 9.5512 5.4083
v  -12.7144 8.2447 5.1214
v  -12.1363 8.1182 7.1694
v  -15.1312 9.1147 4.5668
v  -16.8651 9.6907 -0.0000
v  -16.0093 9.4062 3.3203
v  -16.0093 9.4061 -3.3204
v  -13.5258 8.5801 -6.3156
v  -9.6577 7.2938 -8.6925
v  4.5765 28.0479 -5.0410
v  8.9046 26.6411 -5.3004
v  0.6721 29.3171 -4.2882
v  -2.4264 30.3244 -3.1156
v  -4.4159 30.9710 -1.6380
v  -5.1015 31.1939 -0.0000
v  -4.4159 30.9710 1.6380
v  -2.4265 30.3244 3.1156
v  0.6721 29.3171 4.2882
v  4.5765 28.0480 5.0410
v  8.9046 26.6410 5.3004
v  12.9772 23.1331 6.6154
v  20.2356 22.9575 3.1156
v  17.1370 23.9649 4.2882
v  22.2250 22.3109 1.6380
v  22.9106 22.0881 -0.0000
v  22.2250 22.3109 -1.6380
v  20.2356 22.9576 -3.1156
v  -5.4804 2.0861 -6.7551
v  7.6927 -2.4692 -5.7463
v  10.9424 -3.5929 -4.1749
v  13.0289 -4.3144 -2.1949
v  13.7479 -4.5630 -0.0000
v  13.0289 -4.3144 2.1949
v  10.9424 -3.5929 4.1749
v  7.6927 -2.4692 5.7463
v  3.5979 -1.0532 6.7551
v  -0.9413 0.5165 7.1027
v  -5.4804 2.0861 6.7551
v  -9.5752 3.5021 5.7463
v  -13.1406 6.3167 5.2141
v  -15.6304 5.5960 -0.0000
v  -14.9114 5.3474 2.1949
v  -14.9114 5.3473 -2.1949
v  -12.8250 4.6258 -4.1749
v  -9.5753 3.5021 -5.7463
v  -12.8249 4.6258 4.1749
v  13.2327 25.2342 5.0410
v  7.1007 58.0007 3.1414
v  4.1392 53.2605 2.4337
v  8.7157 54.0412 4.3504
v  8.6444 57.1135 4.2462
v  5.5801 57.2732 0.2894
v  2.7340 51.4502 -0.1489
v  5.0994 54.8139 -2.6391
v  3.0908 50.6075 -2.6991
v  6.3426 53.2669 -4.0176
v  4.9232 49.8962 -4.0441
v  10.9240 50.1744 -4.2698
v  10.5309 47.6792 -4.2495
v  13.9183 48.0801 -4.2438
v  13.4644 46.5362 -4.1956
v  17.2190 45.9119 -4.4041
v  17.2328 45.5913 -3.8084
v  19.1480 44.3672 -4.3385
v  3.6887 53.4388 3.3060
v  1.8835 52.0091 0.8212
v  1.5522 51.0649 -1.6884
v  3.1291 50.4864 -4.2188
v  5.4765 49.4891 -5.1709
v  12.7340 46.5360 -5.3586
v  17.6268 45.0354 -5.0705
v  0.1482 47.0795 2.1262
v  2.3905 48.0888 4.4576
v  -0.8322 45.4859 -0.8374
v  0.7528 44.2679 -4.3240
v  3.8840 43.0328 -5.2248
v  11.6641 40.3814 -5.4141
v  16.5042 38.0512 -4.9583
v  21.2329 43.3848 -3.2393
v  19.5764 36.9165 -3.3037
v  22.2865 42.7040 0.5706
v  20.1989 36.6033 0.6451
v  20.8780 43.2963 4.0269
v  18.7947 37.6087 3.7927
v  18.3154 44.5734 5.4436
v  16.2301 38.5144 5.1583
v  13.6296 46.0678 5.5697
v  12.7521 39.3548 5.4979
v  5.7858 47.2266 5.4500
v  4.1431 40.6870 5.4527
v  8.3955 53.9798 5.4746
v  6.6585 48.0732 5.6054
v  13.0354 46.4485 5.6961
v  13.7776 53.1969 5.6557
v  18.4007 45.1928 5.6370
v  20.3393 51.6432 5.5829
v  0.3161 46.9586 2.9075
v  -1.4780 40.8101 3.4044
v  -1.3627 45.1559 -0.5992
v  -3.6270 39.1833 -0.1692
v  0.2323 43.4836 -4.2141
v  -2.2071 37.4689 -3.8293
v  3.2407 41.1682 -5.1890
v  0.8057 34.9359 -5.1437
v  10.0226 36.7115 -5.0393
v  8.0304 30.1468 -5.0732
v  14.8002 33.7802 -4.7886
v  12.0705 27.8572 -4.9897
v  18.6469 31.6780 -4.0804
v  16.7566 25.5983 -4.5685
v  21.0533 32.5093 -0.2524
v  20.9599 26.9843 -0.5262
v  19.3384 34.3695 3.4273
v  19.5048 28.9572 3.9801
v  8.0482 29.6514 -4.0028
v  0.6851 34.9102 -3.9598
v  -1.5903 36.8729 -2.9920
v  -2.5980 38.7397 0.3218
v  0.8313 34.3085 -3.8399
v  -2.5177 37.0476 -2.5265
v  -2.8652 38.7023 -0.3212
v  16.1814 35.6583 4.7796
v  15.8195 30.5450 4.8438
v  11.7367 36.9050 4.7752
v  10.5508 32.4113 4.9541
v  4.0196 39.3706 4.2830
v  2.6219 35.0617 4.4153
v  -1.0336 39.8553 3.0048
v  -1.9045 36.3805 3.3668
v  -3.0409 38.4497 -0.2352
v  -4.6265 34.4773 0.1868
v  -2.7829 36.7592 -2.3816
v  -4.4886 32.7838 -2.1641
v  0.2588 34.4186 -4.2423
v  -1.9768 30.5887 -4.2446
v  7.7769 29.5761 -4.6392
v  7.8306 29.6443 -3.7610
v  10.8498 28.1053 -3.7615
v  10.7568 28.0082 -4.7696
v  8.4269 23.0810 -4.8641
v  5.0094 24.3190 -4.7484
v  12.1824 26.9016 -4.8658
v  10.1706 22.4485 -4.8663
v  16.4488 25.2191 -4.7631
v  14.3424 20.9339 -4.7804
v  21.8608 26.0702 -0.6005
v  21.5945 20.2410 -0.2573
v  17.1759 19.8772 -2.7860
v  19.4812 28.7108 3.9996
v  18.4498 22.7778 4.1139
v  16.0099 30.1398 5.0699
v  14.9664 24.2769 5.0727
v  10.6177 31.9960 5.1305
v  9.5239 26.2851 5.1513
v  2.5699 34.8356 4.6707
v  1.1676 28.9709 4.7476
v  -2.0469 36.2381 3.5575
v  -3.4050 30.0613 3.9493
v  -4.8299 34.2763 0.4630
v  -6.0096 30.2728 1.3395
v  -4.7079 32.6041 -2.1075
v  -6.1419 29.6445 -1.5982
v  -2.2798 30.4639 -4.3899
v  3.7943 42.8492 -4.0160
v  1.2726 43.7257 -3.4868
v  3.5597 41.3512 -4.0407
v  1.0827 43.4752 -3.4518
v  11.5055 40.0844 -5.3769
v  10.0502 37.1263 -3.9912
v  16.1620 37.8733 -4.1081
v  14.9078 34.0966 -3.8891
v  19.1002 36.7664 -2.9106
v  18.1009 32.3165 -3.0189
v  19.6929 36.5220 0.7752
v  19.5700 33.1861 -0.2262
v  18.1899 37.3166 3.3521
v  15.4991 38.2679 4.0210
v  12.5241 39.0002 4.8797
v  4.6347 40.3450 4.4824
v  -0.7381 40.0114 2.6202
v  18.6728 34.8227 2.6635
v  15.5450 36.0214 3.8989
v  11.7924 37.0213 3.9811
v  4.1017 39.3939 3.9982
v  -0.7368 40.0372 2.6861
v  21.5261 43.8825 4.6458
v  23.9180 50.4348 4.9112
v  23.1492 43.1004 1.2610
v  25.6947 48.8532 1.9834
v  22.2761 43.4620 -3.0882
v  24.7282 48.6993 -2.8263
v  19.7003 44.7204 -5.0791
v  22.7165 50.4102 -4.9239
v  17.6761 46.0294 -5.4473
v  20.2417 51.8291 -5.4696
v  13.9948 48.1997 -5.6910
v  16.7701 53.7672 -5.7275
v  10.2500 50.7159 -6.2175
v  13.3433 55.2757 -6.2932
v  5.5688 53.7448 -5.2939
v  8.5556 58.5634 -5.8126
v  3.1344 47.4434 3.7015
v  6.9137 47.7131 5.5023
v  3.0598 47.4294 3.8595
v  6.1923 47.2958 5.2313
v  13.4793 46.3172 4.2987
v  17.6038 45.1759 5.1787
v  18.1521 44.7933 5.4479
v  13.7686 46.2945 4.5372
v  4.6800 55.1246 -3.2059
v  7.4835 59.9673 -4.2373
v  5.0214 57.8983 0.1027
v  7.4133 62.9740 -0.5705
v  6.5812 58.6893 3.2534
v  8.9878 64.2898 3.0127
v  8.0844 57.6744 4.8895
v  10.8417 63.7911 5.0853
v  13.6113 55.1435 5.9788
v  16.5513 61.3916 6.0428
v  20.8169 52.3665 5.9406
v  23.2274 59.1270 5.9277
v  24.7426 50.9928 5.4999
v  27.0059 57.6757 5.5897
v  26.8254 49.4347 2.5775
v  30.3802 55.6257 2.0607
v  26.2250 48.8895 -3.2769
v  29.6254 54.7645 -2.8062
v  24.6498 51.7506 -5.2453
v  28.3352 56.7120 -4.8957
v  22.1500 53.5113 -5.8005
v  24.9172 59.4614 -5.7821
v  17.9246 55.1748 -5.9451
v  20.8814 60.7712 -5.9161
v  14.0275 56.4738 -6.0185
v  17.4324 61.4858 -6.0366
v  9.5677 58.8786 -5.2387
v  12.8831 63.3971 -5.5062
v  8.4631 60.2059 -3.8240
v  11.0640 64.2804 -4.4835
v  8.5980 62.9024 -0.6354
v  10.7958 67.0573 -1.6426
v  9.9963 64.3218 2.6748
v  12.1725 69.1096 1.7653
v  11.5954 64.1166 4.8932
v  13.5088 69.1738 4.0650
v  16.7796 62.8798 6.1828
v  18.4788 69.1642 6.2448
v  23.6673 60.9694 6.2712
v  25.4243 67.4124 6.3279
v  28.4834 59.8202 6.0128
v  30.2188 66.0479 6.1285
v  34.1019 59.1611 2.9185
v  36.8337 64.2716 3.9399
v  34.9405 59.1651 -0.6302
v  38.0394 64.5728 -0.3136
v  32.4024 58.8621 -4.4295
v  35.5167 64.2143 -4.5091
v  27.3450 59.2606 -6.0179
v  30.6039 65.4194 -6.1023
v  21.7091 61.0681 -6.2861
v  25.8272 67.0886 -6.3121
v  17.8882 62.1989 -6.1816
v  22.4874 68.1387 -6.3863
v  13.7935 64.7581 -5.7316
v  18.2328 70.1395 -5.9771
v  12.1680 66.3730 -4.9742
v  16.3016 71.4323 -5.0258
v  11.0773 68.8904 -2.3664
v  15.2889 73.7474 -2.6915
v  12.8198 70.7036 1.3690
v  15.5845 76.0779 0.8069
v  14.7257 70.9382 3.8419
v  17.8063 76.8777 3.9833
v  18.5515 69.5096 5.8062
v  21.7447 75.3198 5.8051
v  24.8457 67.8670 5.8334
v  26.8864 71.4345 5.6194
v  13.5442 53.2740 4.6836
v  19.9317 51.9057 4.7463
v  23.2727 50.9040 3.8862
v  13.4516 54.8802 4.8377
v  20.2698 52.2822 4.8802
v  23.2923 51.3116 4.0297
v  20.2852 52.0067 -4.4886
v  22.5293 50.7791 -4.2446
v  23.6303 51.7578 -4.3427
v  21.5154 53.2905 -4.7816
v  17.2100 53.6537 -4.6185
v  17.6993 54.7899 -4.9069
v  15.1993 54.7609 -4.7872
v  15.3523 55.5198 -4.9192
v  22.8451 59.4978 5.0243
v  16.5962 61.6750 4.6907
v  26.6891 58.1842 4.7823
v  29.2835 56.4713 1.7056
v  28.5511 55.7799 -2.1430
v  27.9845 57.1970 -3.9676
v  30.5751 58.8982 -3.2533
v  32.1446 59.4175 -0.5586
v  31.6881 59.5117 2.3865
v  28.1719 59.7068 4.6831
v  23.2070 60.9138 5.0942
v  16.4281 62.6118 4.7267
v  25.0815 59.5269 -4.7593
v  26.9019 59.0220 -4.6330
v  21.3022 60.7194 -4.8230
v  21.2034 60.6685 -5.5703
v  17.2132 61.9968 -5.9824
v  18.2640 62.1410 -5.2684
v  13.5268 63.6775 -4.7251
v  14.0130 64.2881 -4.7426
v  11.8121 64.5494 -3.9644
v  12.3565 65.7766 -3.8946
v  11.6402 67.1940 -1.5024
v  12.1651 67.9118 -1.5945
v  12.8468 69.0820 1.6669
v  13.3967 69.9528 1.5049
v  14.0688 69.3264 3.6132
v  14.7370 70.4525 3.7162
v  17.2209 69.5016 4.9548
v  28.0205 67.0597 5.6258
v  36.0755 64.7613 4.1072
v  37.9548 65.0312 -0.0348
v  35.4384 64.7221 -4.0953
v  30.7601 65.7508 -5.1095
v  26.0017 67.2759 -5.2753
v  22.8363 68.4907 -5.3757
v  18.9104 70.3352 -5.1144
v  16.9479 71.8030 -4.6660
v  16.1055 73.7244 -2.4834
v  16.4823 75.8715 0.3198
v  18.6521 76.9942 3.6267
v  21.8231 75.6179 5.2061
v  26.6909 71.6754 5.1013
v  27.8574 69.3395 5.4888
v  27.8534 69.2038 5.0591
v  28.0105 67.4079 4.9359
v  23.6645 78.5457 5.3585
v  20.1562 79.3122 3.5071
v  25.6544 81.1291 5.4489
v  22.1793 82.1514 3.8864
v  27.3551 83.7393 5.5003
v  24.1384 84.8029 4.0191
v  24.8300 85.5311 4.0121
v  27.9082 84.2712 5.3683
v  25.7065 86.1291 4.0086
v  28.5738 84.0743 5.3424
v  26.8192 86.4536 4.0045
v  28.3660 86.8338 4.1496
v  32.2023 80.6172 5.3382
v  33.5131 82.7726 3.9523
v  35.8408 75.2386 5.2329
v  37.4089 77.5031 3.9667
v  36.0601 71.7407 5.2835
v  39.7843 71.5968 3.7610
v  36.1179 70.3878 5.2384
v  39.7455 69.9813 3.6449
v  27.9500 83.1779 5.5131
v  31.4615 79.5730 5.4478
v  26.2592 80.6006 5.4505
v  29.9094 77.0982 5.3880
v  24.4546 77.6996 5.3570
v  28.1240 74.3159 5.2913
v  34.1772 74.8287 5.3647
v  34.3849 71.6393 5.2727
v  31.5571 68.9896 5.1785
v  35.6427 69.1804 5.2015
v  30.0922 71.3124 5.2262
v  32.4966 73.6924 5.3152
v  31.8955 67.4829 5.1336
v  38.8333 67.5123 3.5847
v  20.0630 75.8174 -4.9377
v  21.5154 73.7181 -5.2156
v  24.5904 81.7288 -5.3276
v  26.2149 79.3468 -5.4153
v  24.1390 70.9718 -5.1569
v  27.6206 76.5703 -5.3512
v  27.2182 69.5065 -5.1437
v  30.0244 74.2218 -5.3064
v  32.1804 68.2387 -5.1616
v  33.8213 71.8210 -5.2686
v  37.5033 65.9743 -3.6734
v  39.6631 69.7548 -3.7054
v  18.7021 77.0754 -3.5508
v  22.4747 82.4587 -3.9585
v  23.7569 84.3730 -3.9841
v  24.4447 85.2225 -3.9614
v  26.1459 83.6466 -5.4094
v  25.2875 85.8710 -4.0013
v  26.3622 86.4147 -3.9589
v  27.5153 84.6042 -5.3369
v  27.9654 86.4491 -3.9768
v  27.9880 81.1103 -5.4819
v  29.6431 82.9006 -5.3895
v  32.4928 79.2761 -5.3833
v  31.3877 80.9664 -5.3848
v  33.4563 77.1155 -5.3913
v  34.5891 75.0210 -5.3583
v  38.8466 74.3530 -3.9166
v  37.0222 78.0996 -4.0297
v  35.1101 80.8905 -4.0559
v  33.3614 82.8333 -4.0222
v  31.1857 84.7257 -4.0164
v  29.5512 85.7200 -4.1058
v  18.6974 78.2360 -0.1111
v  21.6424 82.6552 -0.2789
v  23.5782 85.4562 -0.4511
v  24.6174 86.6226 -0.4396
v  25.5617 87.3172 -0.3332
v  26.7294 87.7231 -0.5311
v  28.0021 87.7509 -0.4288
v  29.6141 87.2040 -0.4988
v  31.4784 86.0398 -0.3382
v  33.2614 84.6051 -0.3137
v  35.6073 82.3338 -0.4647
v  37.8132 79.3681 -0.5588
v  39.8420 75.4232 -0.3276
v  40.9949 70.3344 -0.2031
v  39.2508 66.3898 -0.1066
v  -4.2194 27.6586 -4.1862
v  -4.5322 27.2061 -4.1533
v  -5.0135 27.9351 -3.3894
v  2.7356 25.1407 -4.5317
v  3.5262 24.8560 -4.6732
v  -18.5232 -8.3639 3.4564
v  -1.7024 -14.3196 3.4429
v  0.8022 -6.4662 3.5886
v  -16.2097 -0.8766 3.5930
v  7.0357 -17.6095 0.5589
v  6.1854 -17.7273 0.7322
v  -0.7310 -19.5178 1.5271
v  2.8910 -20.6252 0.4763
v  4.7006 -26.7264 0.2376
v  2.6103 -27.4946 0.8071
v  4.0404 -30.2337 0.2597
v  -1.9601 -60.6121 0.7455
v  -3.2226 -60.0256 0.9808
v  -6.9585 -65.6880 0.8656
v  -6.3286 -66.4552 0.7233
v  -14.5348 4.5441 3.6919
v  2.5938 -0.7842 3.6930
v  4.6028 4.7354 3.7958
v  -12.5259 10.0633 3.7944
v  -32.3434 -84.4007 0.4608
v  -25.3843 -81.8188 0.4910
v  -28.5089 -71.0372 2.3611
v  -32.3266 -72.0037 2.3234
v  9.9324 -8.5414 0.7970
v  -19.8340 -12.1000 3.3802
v  -3.0986 -18.3631 3.3498
v  -31.0688 -51.2186 2.6786
v  -31.4290 -58.3056 2.5602
v  -31.0408 -51.2586 2.6781
v  13.2194 -3.9078 0.6274
v  15.1482 1.6353 0.7445
v  -4.9653 -25.2922 3.2445
v  -11.5929 -55.6664 2.7121
v  -21.7745 -18.7885 3.2660
v  -30.7386 -45.7719 2.7699
v  10.6187 -8.7770 0.6693
v  -14.3867 -59.1287 2.6397
v  13.9029 -4.1281 0.5013
v  15.9118 1.3912 0.6038
v  -32.3604 -85.9260 0.3774
v  -25.0168 -82.6217 0.4800
v  -10.8263 -70.2119 0.7683
v  -10.2187 -70.8619 0.7613
v  -14.4808 -73.8532 0.6868
v  -13.9481 -74.4534 0.6801
v  -19.2549 -77.7420 0.5945
v  -24.7116 -68.9845 2.4170
v  -20.9536 -65.7240 2.4928
v  -17.4468 -62.6968 2.5632
v  -18.6994 -78.4053 0.5869
v  -18.7652 -8.2642 -0.0000
v  -16.4569 -0.7738 0.0000
v  -20.0733 -12.0020 -0.0000
v  -22.0097 -18.6931 -0.0000
v  -30.7361 -45.7676 -0.0000
v  -31.0440 -51.2232 -0.0000
v  -31.3744 -58.3222 -0.0000
v  -32.2170 -72.0431 -0.0000
v  -32.4682 -84.6193 -0.0000
v  -32.4613 -86.1677 -0.0000
v  -24.9645 -82.6408 -0.0000
v  -18.5816 -78.4472 -0.0000
v  -13.7849 -74.5110 -0.0000
v  -10.0223 -70.9308 -0.0000
v  -6.1008 -66.5347 -0.0000
v  -1.7014 -60.7017 -0.0000
v  4.1592 -30.4806 -0.0000
v  4.8675 -26.8279 -0.0000
v  3.0130 -20.6986 -0.0000
v  7.1903 -17.7024 -0.0000
v  10.7788 -8.8711 -0.0000
v  14.0834 -4.2336 -0.0000
v  16.0926 1.2865 0.1008
v  -12.7766 10.1693 0.0000
v  -14.7858 4.6492 0.0000
v  -31.0400 -51.2428 2.6783
v  -31.0394 -51.2325 2.6785
v  -18.5232 -8.3639 -3.4564
v  -16.2097 -0.8766 -3.5930
v  0.8022 -6.4662 -3.5886
v  -1.7025 -14.3196 -3.4429
v  7.0357 -17.6095 -0.5589
v  2.8910 -20.6252 -0.4763
v  -0.7310 -19.5178 -1.5271
v  6.1854 -17.7273 -0.7323
v  4.7006 -26.7264 -0.2377
v  4.0404 -30.2337 -0.2597
v  2.6103 -27.4946 -0.8071
v  -1.9601 -60.6121 -0.7456
v  -6.3286 -66.4552 -0.7234
v  -6.9585 -65.6880 -0.8656
v  -3.2226 -60.0256 -0.9808
v  -14.5348 4.5441 -3.6919
v  -12.5259 10.0633 -3.7944
v  4.6028 4.7354 -3.7958
v  2.5938 -0.7842 -3.6930
v  -32.3434 -84.4007 -0.4608
v  -32.3266 -72.0037 -2.3234
v  -28.5089 -71.0372 -2.3611
v  -25.3843 -81.8188 -0.4910
v  9.9324 -8.5414 -0.7970
v  -3.0986 -18.3631 -3.3498
v  -19.8340 -12.1000 -3.3802
v  -31.0688 -51.2186 -2.6786
v  -31.0408 -51.2586 -2.6781
v  -31.4290 -58.3056 -2.5602
v  13.2194 -3.9078 -0.6274
v  15.1482 1.6353 -0.7446
v  -4.9653 -25.2922 -3.2446
v  -11.5929 -55.6664 -2.7121
v  -21.7745 -18.7885 -3.2660
v  -30.7386 -45.7719 -2.7699
v  10.6187 -8.7770 -0.6693
v  -14.3867 -59.1287 -2.6398
v  15.9118 1.3912 -0.6038
v  13.9029 -4.1281 -0.5013
v  -25.0168 -82.6217 -0.4800
v  -32.3604 -85.9260 -0.3775
v  -10.2187 -70.8619 -0.7613
v  -10.8263 -70.2119 -0.7683
v  -13.9481 -74.4534 -0.6801
v  -14.4808 -73.8532 -0.6868
v  -24.7116 -68.9845 -2.4170
v  -19.2549 -77.7420 -0.5945
v  -20.9536 -65.7240 -2.4928
v  -17.4468 -62.6968 -2.5632
v  -18.6994 -78.4053 -0.5869
v  16.0926 1.2865 -0.1009
v  -31.0400 -51.2428 -2.6783
v  -31.0394 -51.2325 -2.6785
# 637 vertices

vn -0.2434 0.4038 -0.8819
vn -0.3268 -0.0000 -0.9451
vn -0.3008 0.4004 -0.8656
vn 0.1154 0.9362 0.3319
vn -0.0298 0.9299 0.3667
vn -0.1441 0.9885 -0.0451
vn -0.0314 0.9963 -0.0797
vn -0.2042 0.8971 0.3917
vn -0.2775 0.9607 -0.0011
vn -0.4318 0.7974 0.4217
vn -0.4669 0.8820 0.0642
vn -0.7078 0.5275 0.4699
vn -0.7612 0.6275 0.1635
vn -0.8639 0.0000 0.5037
vn -0.9727 -0.0000 0.2320
vn -0.7077 -0.5275 0.4699
vn -0.7612 -0.6275 0.1635
vn -0.4507 -0.8165 0.3608
vn -0.4669 -0.8820 0.0642
vn -0.2363 -0.8944 0.3797
vn -0.2775 -0.9607 -0.0011
vn -0.0298 -0.9299 0.3667
vn -0.1441 -0.9885 -0.0451
vn 0.1154 -0.9362 0.3319
vn -0.0281 -0.9965 -0.0786
vn 0.2536 -0.9266 0.2777
vn 0.0811 -0.9901 -0.1141
vn 0.4079 -0.8915 0.1971
vn 0.2168 -0.9620 -0.1663
vn 0.6061 -0.7908 0.0860
vn 0.3987 -0.8876 -0.2307
vn 0.8521 -0.5218 -0.0421
vn 0.6834 -0.6380 -0.3548
vn 0.9939 0.0000 -0.1101
vn 0.8924 0.0000 -0.4513
vn 0.8520 0.5218 -0.0421
vn 0.6834 0.6380 -0.3548
vn 0.6061 0.7908 0.0860
vn 0.3987 0.8876 -0.2307
vn 0.4079 0.8915 0.1971
vn 0.2135 0.9640 -0.1588
vn 0.2536 0.9266 0.2777
vn 0.0811 0.9901 -0.1141
vn 0.3234 0.4808 0.8150
vn 0.3091 -0.0000 0.9510
vn 0.3863 0.4819 0.7865
vn -0.1080 0.9830 0.1481
vn 0.0333 0.9947 0.0971
vn -0.2677 0.9391 0.2155
vn -0.4705 0.8250 0.3131
vn -0.7190 0.5390 0.4388
vn -0.8608 -0.0000 0.5089
vn -0.7190 -0.5390 0.4388
vn -0.4705 -0.8250 0.3131
vn -0.2677 -0.9391 0.2155
vn -0.1080 -0.9830 0.1481
vn 0.0333 -0.9947 0.0971
vn -0.0035 -0.9388 -0.3444
vn 0.0379 -0.9984 0.0412
vn 0.1464 -0.9891 0.0171
vn 0.1148 -0.9930 0.0260
vn 0.5610 -0.8255 -0.0622
vn 0.3532 -0.9355 -0.0018
vn 0.8311 -0.5383 -0.1398
vn 0.9829 0.0000 -0.1841
vn 0.8311 0.5383 -0.1398
vn 0.5610 0.8255 -0.0622
vn 0.3433 0.9392 0.0010
vn 0.1766 0.9830 0.0511
vn -0.0424 0.9905 -0.1310
vn -0.2212 0.9727 -0.0695
vn 0.1366 0.9718 -0.1922
vn 0.3322 0.9064 -0.2608
vn 0.5553 0.7580 -0.3420
vn 0.7789 0.4607 -0.4256
vn 0.8850 0.0000 -0.4655
vn 0.7789 -0.4607 -0.4256
vn 0.5553 -0.7580 -0.3420
vn 0.3322 -0.9064 -0.2608
vn 0.1366 -0.9718 -0.1922
vn -0.0424 -0.9905 -0.1310
vn -0.2212 -0.9727 -0.0695
vn -0.4169 -0.9090 0.0003
vn -0.4756 -0.7906 0.3857
vn -0.6451 -0.7543 0.1217
vn -0.6322 -0.7303 0.2587
vn -0.6320 -0.7248 0.2744
vn -0.9772 0.0000 0.2125
vn -0.8725 -0.4581 0.1700
vn -0.8684 0.4656 0.1706
vn -0.6413 0.7627 0.0839
vn -0.4169 0.9090 0.0003
vn 0.2186 0.4810 0.8490
vn 0.2718 0.4793 0.8345
vn 0.1515 0.4815 0.8633
vn 0.0518 0.4618 0.8855
vn -0.1087 0.3519 0.9297
vn -0.2387 -0.0000 0.9711
vn -0.1087 -0.3519 0.9297
vn 0.0518 -0.4619 0.8854
vn 0.1515 -0.4814 0.8633
vn 0.2186 -0.4810 0.8490
vn 0.2666 -0.4753 0.8384
vn 0.2522 -0.8611 0.4414
vn 0.4811 -0.4641 0.7437
vn 0.3983 -0.4683 0.7887
vn 0.6406 -0.3556 0.6805
vn 0.7738 0.0000 0.6334
vn 0.6406 0.3556 0.6805
vn 0.4811 0.4641 0.7437
vn -0.3562 0.4018 -0.8436
vn -0.1702 0.4061 -0.8978
vn -0.0640 0.3855 -0.9205
vn 0.0841 0.2775 -0.9570
vn 0.1803 -0.0000 -0.9836
vn 0.0841 -0.2775 -0.9570
vn -0.0640 -0.3855 -0.9205
vn -0.1702 -0.4061 -0.8978
vn -0.2434 -0.4038 -0.8819
vn -0.3008 -0.4004 -0.8656
vn -0.3562 -0.4018 -0.8436
vn -0.4263 -0.4053 -0.8087
vn -0.6697 -0.6606 -0.3393
vn -0.7742 -0.0000 -0.6329
vn -0.6741 -0.2851 -0.6814
vn -0.6741 0.2851 -0.6814
vn -0.5251 0.3890 -0.7569
vn -0.4242 0.4048 -0.8100
vn -0.5388 -0.3703 -0.7567
vn 0.3253 -0.4508 0.8312
vn -0.7371 -0.6247 -0.2577
vn -0.5781 0.0295 0.8154
vn -0.1586 -0.6978 0.6985
vn -0.5366 -0.6769 -0.5039
vn -0.8971 -0.4278 -0.1101
vn -0.3203 0.3226 0.8907
vn -0.9926 0.0647 -0.1023
vn -0.4522 0.6673 0.5918
vn -0.7013 0.5281 -0.4789
vn 0.0568 0.7563 0.6517
vn -0.4191 0.7029 -0.5747
vn 0.2327 0.7647 0.6010
vn -0.3873 0.7364 -0.5547
vn 0.2582 0.7774 0.5736
vn -0.5461 0.3581 -0.7573
vn 1.0000 0.0000 -0.0000
vn 0.0719 0.9051 -0.4190
vn -0.4980 -0.3317 0.8012
vn -0.6127 0.1090 0.7827
vn -0.5874 0.3651 0.7222
vn -0.2278 0.6035 0.7642
vn 0.0859 0.7667 0.6363
vn 0.2213 0.7905 0.5711
vn 0.3907 0.6102 0.6892
vn -0.8990 -0.2684 0.3460
vn -0.4828 -0.8382 -0.2537
vn -0.7492 0.3336 0.5722
vn -0.4935 0.8664 -0.0756
vn -0.3131 0.7696 -0.5564
vn 0.0164 0.9983 -0.0558
vn 0.0116 0.8043 -0.5942
vn 0.4440 0.7259 -0.5254
vn 0.5436 0.5426 -0.6403
vn 0.7549 0.0402 -0.6546
vn 0.6648 -0.1344 -0.7348
vn 0.4781 -0.6398 -0.6017
vn 0.4462 -0.6618 -0.6024
vn 0.3723 -0.9191 0.1292
vn 0.0604 -0.7960 -0.6023
vn 0.1425 -0.7774 0.6126
vn -0.0519 -0.8812 -0.4699
vn -0.1641 -0.7573 0.6321
vn -0.2070 -0.8240 -0.5274
vn -0.1324 -0.6996 0.7022
vn -0.1762 -0.9726 -0.1515
vn -0.1677 -0.7150 -0.6787
vn 0.1280 -0.7114 0.6910
vn 0.0079 -0.9672 -0.2538
vn 0.2559 -0.7573 0.6008
vn -0.5848 -0.5326 0.6119
vn -0.6229 -0.7462 -0.2349
vn -0.8256 0.1832 0.5337
vn -0.9615 -0.1214 -0.2467
vn -0.3507 0.8831 0.3118
vn -0.7941 0.5438 -0.2714
vn 0.2286 0.8270 0.5137
vn -0.4764 0.7334 -0.4848
vn 0.3306 0.8148 0.4763
vn -0.2915 0.8217 -0.4898
vn 0.3589 0.8143 0.4562
vn -0.2436 0.9507 -0.1919
vn 0.6206 0.7224 0.3049
vn 0.5134 0.8563 -0.0570
vn 0.8954 0.1345 0.4246
vn 0.8064 0.4125 0.4237
vn 0.7116 -0.4811 0.5121
vn 0.6979 -0.7147 0.0460
vn -0.4624 0.3949 -0.7939
vn -0.6329 0.4807 -0.6069
vn -0.7618 0.4942 -0.4188
vn 0.1251 -0.3080 -0.9431
vn 0.1765 0.9180 0.3552
vn -0.4772 0.7702 0.4231
vn -0.1779 0.3138 0.9327
vn 0.3396 -0.7415 0.5786
vn 0.2211 -0.9286 0.2981
vn 0.1647 -0.7572 0.6321
vn 0.0495 -0.9727 0.2268
vn 0.0262 -0.7248 0.6885
vn -0.0014 -0.8990 0.4379
vn -0.5045 -0.5877 0.6325
vn -0.4784 -0.6739 0.5631
vn -0.8895 0.0276 0.4560
vn -0.8631 0.0997 0.4951
vn -0.7076 0.6495 0.2781
vn -0.6225 0.6864 0.3758
vn 0.0981 0.8377 0.5373
vn -0.0193 0.9384 0.3451
vn 0.3067 0.7451 0.5922
vn 0.0817 0.9766 0.1991
vn -0.2655 0.9349 0.2354
vn 0.3435 0.7279 0.5935
vn -0.0099 0.9997 0.0238
vn -0.0298 0.9989 0.0364
vn -0.0416 0.9974 -0.0582
vn 0.0079 1.0000 -0.0035
vn 0.3397 0.9403 0.0228
vn 0.2532 0.9599 -0.1206
vn 0.9297 0.2606 0.2601
vn 0.9266 0.3705 -0.0641
vn 0.4969 0.8337 -0.2409
vn 0.6265 -0.7783 -0.0431
vn 0.5846 -0.8067 -0.0861
vn 0.2686 -0.9174 0.2937
vn 0.1464 -0.9889 -0.0256
vn 0.0537 -0.9761 0.2104
vn -0.0122 -0.9999 0.0060
vn 0.0039 -0.9085 0.4180
vn -0.0991 -0.9944 0.0367
vn -0.4497 -0.6717 0.5887
vn -0.4411 -0.8843 0.1531
vn -0.8702 -0.0906 0.4843
vn -0.8718 -0.3573 0.3351
vn -0.7071 0.5866 0.3949
vn -0.8001 0.4774 0.3632
vn -0.1242 0.9159 0.3818
vn -0.3467 0.7427 -0.5728
vn -0.0379 0.8159 -0.5769
vn 0.3351 0.7764 0.5339
vn 0.4055 0.9079 0.1062
vn -0.0640 0.9688 -0.2393
vn 0.2313 0.9113 0.3406
vn -0.0150 0.7666 -0.6420
vn 0.3945 0.8006 0.4511
vn 0.4154 0.5326 -0.7374
vn 0.5451 0.5713 0.6136
vn 0.6712 -0.3026 -0.6767
vn 0.7017 0.4019 0.5883
vn 0.2132 -0.7634 -0.6098
vn 0.0372 -0.7903 -0.6116
vn -0.0556 -0.7328 -0.6782
vn -0.1614 -0.6218 -0.7664
vn -0.7073 -0.6163 0.3462
vn 0.7997 -0.2524 0.5449
vn 0.3422 -0.7215 0.6019
vn 0.1448 -0.8704 0.4705
vn -0.0135 -0.8603 0.5095
vn -0.1010 -0.0186 0.9947
vn 0.4314 -0.7291 -0.5313
vn 0.6389 -0.6552 0.4031
vn 0.6799 -0.1484 -0.7182
vn 0.6433 -0.3340 -0.6889
vn 0.5221 0.4784 -0.7061
vn 0.4708 0.5514 -0.6887
vn 0.0810 0.8393 -0.5376
vn 0.6159 0.7180 0.3243
vn -0.2262 0.8153 -0.5330
vn 0.3948 0.7675 0.5051
vn -0.3129 0.7271 -0.6110
vn 0.3703 0.7156 0.5924
vn -0.3819 0.7458 -0.5458
vn 0.1877 0.9794 0.0748
vn -0.7487 0.5696 -0.3392
vn -0.1656 0.8857 0.4337
vn -0.3865 -0.8942 0.2257
vn -0.0353 -0.9270 -0.3734
vn -0.2573 -0.5114 0.8199
vn -0.1182 -0.8451 0.5214
vn -0.2244 0.9745 -0.0091
vn -0.2701 -0.9564 -0.1114
vn -0.1920 -0.9667 -0.1690
vn 0.2790 0.0562 0.9586
vn -0.9852 0.1046 -0.1360
vn -0.4590 0.6404 0.6158
vn -0.9724 -0.2322 0.0220
vn -0.5592 0.2857 0.7782
vn -0.8326 -0.5526 -0.0379
vn -0.5082 -0.2533 0.8231
vn -0.6074 -0.7050 -0.3661
vn -0.2989 -0.8191 0.4896
vn -0.2960 -0.7959 -0.5282
vn 0.1651 -0.7952 0.5834
vn -0.1660 -0.7903 -0.5899
vn 0.2521 -0.7826 0.5693
vn 0.1373 -0.7479 -0.6494
vn 0.5320 -0.7617 0.3698
vn 0.5470 -0.4148 -0.7271
vn 0.9584 -0.2347 0.1625
vn 0.4039 0.4949 -0.7694
vn 0.9485 0.3151 0.0323
vn -0.0057 0.8750 -0.4841
vn 0.7247 0.6399 0.2556
vn -0.1551 0.8669 -0.4738
vn 0.3830 0.7252 0.5721
vn -0.1671 0.8384 -0.5188
vn 0.1928 0.7125 0.6747
vn 0.0783 0.9959 -0.0449
vn 0.0002 0.9982 0.0593
vn -0.0545 0.8457 0.5308
vn -0.0250 0.8485 0.5286
vn -0.2827 0.7005 0.6553
vn -0.3816 0.7464 0.5452
vn -0.4916 0.3932 0.7770
vn -0.5641 0.4224 0.7095
vn -0.5276 -0.1542 0.8354
vn -0.5109 0.0211 0.8594
vn -0.2757 -0.8634 0.4224
vn -0.4587 -0.5304 0.7129
vn -0.2453 -0.7973 -0.5514
vn -0.1298 -0.8707 0.4744
vn -0.1468 -0.7537 -0.6406
vn 0.1504 -0.8632 0.4819
vn 0.0803 -0.7356 -0.6727
vn 0.3000 -0.8236 0.4814
vn 0.3990 -0.3837 -0.8328
vn 0.7701 -0.6278 0.1130
vn 0.5606 0.1061 -0.8213
vn 0.9788 0.1930 -0.0689
vn 0.3376 0.5484 -0.7651
vn 0.6567 0.7508 0.0705
vn -0.0054 0.7512 -0.6601
vn 0.2992 0.8421 0.4487
vn -0.1256 0.8947 -0.4285
vn 0.2192 0.7831 0.5820
vn -0.3714 0.6362 -0.6762
vn 0.1667 0.8606 0.4811
vn -0.5313 0.7469 -0.3998
vn 0.0645 0.8546 0.5152
vn -0.7692 0.6290 -0.1129
vn -0.2600 0.8179 0.5132
vn -0.9954 0.0651 0.0708
vn -0.3171 0.6044 0.7308
vn -0.8731 -0.4841 0.0575
vn -0.5577 0.0961 0.8245
vn -0.6546 -0.7517 0.0805
vn -0.3925 -0.5296 0.7520
vn -0.1999 -0.8547 0.4792
vn 0.1342 -0.8413 0.5237
vn 0.1473 -0.8524 0.5017
vn 0.6586 -0.6172 0.4304
vn 0.0903 -0.7554 0.6490
vn 0.1898 -0.8517 0.4885
vn 0.5602 -0.7401 0.3721
vn -0.3099 -0.7441 -0.5919
vn -0.1655 -0.6440 -0.7469
vn -0.1075 -0.6091 -0.7857
vn 0.3175 0.8183 0.4791
vn 0.4809 0.8058 0.3456
vn -0.2219 0.8141 -0.5367
vn -0.2330 0.7557 -0.6121
vn 0.3148 0.8128 0.4902
vn -0.2032 0.7570 -0.6210
vn 0.4451 0.8391 0.3128
vn 0.0585 0.8221 -0.5664
vn 0.2013 -0.7941 0.5735
vn 0.1967 -0.7984 0.5691
vn 0.4951 -0.7600 0.4209
vn 0.9704 -0.1293 0.2042
vn 0.9407 0.2030 0.2717
vn 0.7933 0.5449 0.2718
vn 0.2661 0.1285 -0.9553
vn 0.2585 -0.0851 -0.9623
vn 0.1994 -0.1490 -0.9685
vn 0.1370 -0.5650 -0.8137
vn -0.1565 -0.7265 -0.6691
vn -0.1684 -0.7851 -0.5960
vn 0.3923 0.4222 0.8172
vn -0.1918 -0.1803 -0.9647
vn -0.1241 -0.9841 0.1273
vn -0.3587 0.2938 -0.8860
vn 0.0296 0.8975 0.4400
vn -0.2493 0.9220 -0.2964
vn -0.0284 0.8010 0.5980
vn -0.4834 0.7749 -0.4072
vn -0.0666 0.7857 0.6150
vn -0.9091 0.4132 -0.0529
vn -0.4128 0.5426 0.7315
vn -0.9806 -0.1924 0.0368
vn -0.4775 0.0768 0.8753
vn -0.8837 -0.4679 0.0046
vn -0.4579 -0.3804 0.8035
vn -0.6666 -0.7454 0.0025
vn -0.4731 -0.8065 0.3546
vn 0.3258 -0.6720 0.6651
vn 0.3880 -0.9166 -0.0963
vn 0.9256 -0.0171 -0.3782
vn 0.5125 0.8250 0.2379
vn 0.2375 0.8094 0.5371
vn 0.2366 0.7605 0.6047
vn 0.2177 0.8079 0.5477
vn 0.1781 0.8373 0.5169
vn -0.1369 0.8545 0.5011
vn -0.2838 0.6370 0.7167
vn -0.4010 0.3661 0.8397
vn -0.3706 -0.4922 0.7877
vn 0.0770 -0.8448 0.5296
vn 0.4528 -0.7944 0.4049
vn 0.8312 -0.5011 0.2408
vn 0.6769 -0.7269 0.1162
vn 0.4521 -0.7197 0.5269
vn -0.2282 -0.9659 0.1221
vn -0.6897 -0.5619 0.4567
vn -0.1809 -0.9783 0.1007
vn -0.6606 -0.6243 0.4169
vn -0.1284 -0.9683 0.2143
vn -0.6163 -0.6117 0.4959
vn -0.5218 -0.6006 0.6058
vn 0.0854 -0.8651 0.4943
vn -0.3497 -0.6069 0.7137
vn 0.1952 -0.9303 0.3106
vn -0.2288 -0.6080 0.7602
vn 0.0962 -0.5563 0.8254
vn 0.2515 -0.9479 0.1954
vn 0.5706 -0.5901 0.5712
vn 0.3404 -0.9370 0.0786
vn 0.6934 -0.6171 0.3721
vn 0.1908 -0.9816 0.0016
vn 0.8203 -0.5692 0.0562
vn 0.2235 -0.9722 -0.0702
vn 0.7505 -0.6358 -0.1801
vn 0.0476 -0.9976 0.0501
vn 0.0444 -0.9989 0.0137
vn -0.0119 -0.9997 -0.0206
vn -0.0061 -0.9997 -0.0253
vn -0.0200 -0.9993 -0.0315
vn -0.0217 -0.9990 -0.0396
vn 0.0401 -0.9991 -0.0107
vn -0.0061 -0.9995 -0.0295
vn -0.0247 -0.9990 -0.0363
vn 0.1585 -0.9758 -0.1504
vn -0.0215 -0.9992 -0.0352
vn -0.0111 -0.9996 -0.0266
vn 0.1816 -0.9821 -0.0496
vn 0.6961 -0.6019 -0.3914
vn -0.3295 0.9244 0.1923
vn -0.0589 0.9982 0.0145
vn -0.2588 0.9542 0.1502
vn -0.0284 0.9995 -0.0108
vn 0.0278 0.9994 0.0196
vn -0.0038 0.9997 -0.0241
vn 0.0044 0.9999 0.0129
vn -0.0071 0.9996 -0.0266
vn 0.1061 0.9911 -0.0802
vn 0.1156 0.9909 -0.0685
vn 0.5460 0.6517 -0.5265
vn 0.7114 0.6811 -0.1733
vn -0.7245 0.5390 0.4296
vn -0.6840 0.5811 0.4410
vn -0.6485 0.5860 0.4859
vn -0.5869 0.5678 0.5772
vn -0.2022 0.9543 0.2199
vn -0.4289 0.6048 0.6710
vn -0.2122 0.5830 0.7843
vn 0.0116 0.9298 0.3679
vn 0.1488 0.5796 0.8012
vn -0.0000 1.0000 -0.0002
vn 0.1915 0.9579 0.2140
vn 0.1891 0.9769 0.0995
vn 0.1959 0.9694 0.1480
vn 0.1493 0.9864 0.0683
vn 0.1974 0.9800 0.0243
vn 0.7001 0.6896 0.1854
vn 0.6271 0.6997 0.3423
vn 0.5821 0.6756 0.4524
vn 0.5396 0.6412 0.5457
vn 0.4768 0.6205 0.6226
vn 0.3714 0.6336 0.6786
vn -0.7821 0.0478 0.6213
vn -0.8277 0.0196 0.5608
vn -0.7831 0.0231 0.6214
vn -0.6608 0.0338 0.7498
vn -0.4537 0.0034 0.8911
vn -0.1603 0.0416 0.9862
vn 0.1631 0.0011 0.9866
vn 0.4275 0.0961 0.8989
vn 0.5887 0.0261 0.8079
vn 0.6710 -0.0282 0.7409
vn 0.7525 0.0340 0.6577
vn 0.8420 0.0469 0.5374
vn 0.9269 -0.0183 0.3748
vn 0.9974 0.0203 -0.0694
vn 0.8347 0.0396 -0.5493
vn -0.4636 0.8473 0.2590
vn -0.5955 0.7183 0.3596
vn -0.2167 0.9598 -0.1786
vn -0.0646 0.9978 0.0126
vn -0.6455 -0.7375 0.1985
vn 0.1393 -0.9880 -0.0666
vn 0.1336 -0.9892 -0.0606
vn -0.6539 -0.7327 0.1887
vn 0.5772 -0.6830 -0.4477
vn 0.2451 -0.8984 -0.3644
vn 0.4502 -0.8682 -0.2086
vn 0.5333 -0.8157 -0.2239
vn 0.6203 -0.7826 0.0528
vn 0.2828 -0.9591 -0.0158
vn 0.5996 -0.7933 -0.1055
vn 0.6187 -0.7364 -0.2737
vn 0.1582 -0.9850 -0.0696
vn 0.1168 -0.9873 -0.1080
vn 0.5100 -0.7534 -0.4151
vn -0.6545 -0.7273 0.2068
vn 0.1207 -0.9909 -0.0593
vn 0.1261 -0.9899 -0.0643
vn -0.6320 -0.7442 0.2162
vn -0.5978 -0.7981 -0.0750
vn 0.0290 -0.9965 -0.0787
vn 0.0246 -0.9954 -0.0924
vn -0.7119 -0.7011 -0.0418
vn 0.2141 -0.9710 -0.1064
vn -0.6572 -0.7275 0.1970
vn 0.2758 -0.9556 -0.1038
vn -0.7128 -0.7008 0.0280
vn -0.7145 -0.6990 0.0312
vn -0.0056 -0.9998 -0.0164
vn 0.1965 -0.9759 -0.0951
vn 0.2017 -0.9752 -0.0908
vn 0.1384 -0.9891 -0.0501
vn 0.0872 -0.9944 -0.0599
vn -0.6479 -0.7381 0.1884
vn -0.7238 -0.6779 0.1287
vn 0.5707 -0.7628 -0.3041
vn 0.0605 -0.9956 -0.0714
vn 0.5805 -0.7578 -0.2979
vn 0.5786 -0.7839 -0.2252
vn -0.4016 -0.7597 -0.5115
vn 0.3278 -0.7158 -0.6166
vn 0.0546 -0.9959 -0.0727
vn 0.4486 -0.7795 -0.4373
vn 0.0468 -0.9961 -0.0751
vn 0.4152 -0.7704 -0.4839
vn 0.0412 -0.9959 -0.0806
vn 0.0445 -0.9951 -0.0885
vn 0.0475 -0.9958 -0.0781
vn 0.0572 -0.9952 -0.0788
vn 0.3833 -0.7524 -0.5357
vn -0.9499 -0.0000 0.3124
vn -0.9557 -0.0000 0.2945
vn -0.9526 -0.0000 0.3044
vn -0.9563 -0.0000 0.2924
vn -0.9831 -0.0000 0.1832
vn -0.9987 -0.0000 0.0514
vn -0.9985 -0.0000 0.0539
vn -0.9992 0.0000 0.0404
vn -1.0000 0.0000 0.0044
vn -0.5036 -0.0000 -0.8639
vn 0.4915 0.0000 -0.8708
vn 0.5957 0.0000 -0.8032
vn 0.6644 0.0000 -0.7474
vn 0.7204 0.0000 -0.6936
vn 0.7747 0.0000 -0.6323
vn 0.9151 0.0000 -0.4031
vn 0.9817 0.0000 -0.1904
vn 1.0000 0.0000 0.0014
vn 0.9551 0.0000 -0.2962
vn 0.7894 0.0000 -0.6139
vn 0.8766 0.0000 -0.4811
vn 0.8825 -0.0000 -0.4704
vn 0.8674 -0.3790 -0.3226
vn -0.9397 -0.0000 0.3420
vn -0.9479 -0.0000 0.3184
vn 0.7334 -0.0399 0.6787
vn -0.0057 -0.9998 -0.0164
vn -0.6455 0.7375 0.1985
vn -0.6539 0.7327 0.1887
vn 0.1336 0.9892 -0.0606
vn 0.1393 0.9880 -0.0666
vn 0.5772 0.6830 -0.4477
vn 0.5333 0.8157 -0.2239
vn 0.4502 0.8682 -0.2086
vn 0.2451 0.8984 -0.3644
vn 0.6203 0.7826 0.0528
vn 0.5996 0.7933 -0.1055
vn 0.2828 0.9591 -0.0158
vn 0.6187 0.7364 -0.2737
vn 0.5100 0.7534 -0.4151
vn 0.1168 0.9873 -0.1080
vn 0.1582 0.9850 -0.0696
vn -0.6545 0.7273 0.2068
vn -0.6320 0.7442 0.2162
vn 0.1261 0.9899 -0.0643
vn 0.1207 0.9909 -0.0593
vn -0.5978 0.7981 -0.0750
vn -0.7119 0.7011 -0.0418
vn 0.0246 0.9954 -0.0924
vn 0.0290 0.9965 -0.0787
vn 0.2141 0.9710 -0.1064
vn 0.2758 0.9556 -0.1038
vn -0.6572 0.7275 0.1970
vn -0.7128 0.7008 0.0280
vn -0.0056 0.9998 -0.0164
vn -0.7145 0.6990 0.0312
vn 0.1965 0.9759 -0.0951
vn 0.2017 0.9752 -0.0908
vn 0.1384 0.9891 -0.0501
vn 0.0872 0.9944 -0.0599
vn -0.6479 0.7381 0.1884
vn -0.7238 0.6779 0.1287
vn 0.5707 0.7628 -0.3041
vn 0.0605 0.9956 -0.0714
vn 0.5786 0.7839 -0.2252
vn 0.5805 0.7578 -0.2979
vn 0.3278 0.7158 -0.6166
vn -0.4016 0.7597 -0.5115
vn 0.4486 0.7795 -0.4373
vn 0.0546 0.9959 -0.0727
vn 0.4152 0.7704 -0.4839
vn 0.0468 0.9961 -0.0751
vn 0.0445 0.9951 -0.0885
vn 0.0412 0.9959 -0.0806
vn 0.0475 0.9958 -0.0781
vn 0.0572 0.9952 -0.0788
vn 0.3833 0.7524 -0.5357
vn 0.8674 0.3790 -0.3226
vn 0.7334 0.0399 0.6787
vn -0.0057 0.9998 -0.0164
# 636 vertex normals

vt 0.3982 0.4252 0.0000
vt 0.5217 0.4805 0.0000
vt 0.3919 0.4805 0.0000
vt 0.7908 0.5552 0.0000
vt 0.7802 0.5137 0.0000
vt 0.8626 0.4895 0.0000
vt 0.8727 0.5312 0.0000
vt 0.7710 0.4748 0.0000
vt 0.8537 0.4511 0.0000
vt 0.7636 0.4408 0.0000
vt 0.8466 0.4189 0.0000
vt 0.7581 0.4127 0.0000
vt 0.8416 0.3943 0.0000
vt 0.7541 0.3891 0.0000
vt 0.8385 0.3763 0.0000
vt 0.7509 0.3653 0.0000
vt 0.8361 0.3582 0.0000
vt 0.7475 0.3369 0.0000
vt 0.8335 0.3333 0.0000
vt 0.7447 0.3024 0.0000
vt 0.8308 0.3004 0.0000
vt 0.7420 0.2624 0.0000
vt 0.8279 0.2610 0.0000
vt 0.7398 0.2197 0.0000
vt 0.8252 0.2181 0.0000
vt 0.7384 0.1770 0.0000
vt 0.8231 0.1753 0.0000
vt 0.7379 0.1373 0.0000
vt 0.8212 0.1359 0.0000
vt 0.7379 0.1029 0.0000
vt 0.8201 0.1022 0.0000
vt 0.7382 0.0747 0.0000
vt 0.8197 0.0767 0.0000
vt 0.7385 0.0516 0.0000
vt 0.8200 0.0584 0.0000
vt 0.7405 0.0293 0.0000
vt 0.8198 0.0415 0.0000
vt 0.8320 0.6934 0.0000
vt 0.8230 0.6677 0.0000
vt 0.9018 0.6425 0.0000
vt 0.9082 0.6654 0.0000
vt 0.8131 0.6347 0.0000
vt 0.8930 0.6110 0.0000
vt 0.8020 0.5964 0.0000
vt 0.8831 0.5728 0.0000
vt 0.2204 0.5705 0.0000
vt 0.1282 0.6229 0.0000
vt 0.2066 0.5233 0.0000
vt 0.9076 0.4811 0.0000
vt 0.9198 0.5233 0.0000
vt 0.8965 0.4425 0.0000
vt 0.8872 0.4108 0.0000
vt 0.8804 0.3875 0.0000
vt 0.8767 0.3705 0.0000
vt 0.8752 0.3531 0.0000
vt 0.8747 0.3289 0.0000
vt 0.8742 0.2959 0.0000
vt 0.8734 0.2558 0.0000
vt 0.8725 0.2119 0.0000
vt 0.8521 0.1710 0.0000
vt 0.8720 0.1690 0.0000
vt 0.8720 0.1873 0.0000
vt 0.8715 0.1575 0.0000
vt 0.8711 0.0951 0.0000
vt 0.8714 0.1279 0.0000
vt 0.8709 0.0707 0.0000
vt 0.8713 0.0523 0.0000
vt 0.8729 0.0328 0.0000
vt 0.9527 0.6369 0.0000
vt 0.9609 0.6626 0.0000
vt 0.9432 0.6043 0.0000
vt 0.9320 0.5656 0.0000
vt 0.7444 0.5667 0.0000
vt 0.7330 0.5234 0.0000
vt 0.7571 0.6096 0.0000
vt 0.7701 0.6493 0.0000
vt 0.7819 0.6839 0.0000
vt 0.7913 0.7143 0.0000
vt 0.6960 0.0474 0.0000
vt 0.6948 0.0209 0.0000
vt 0.6953 0.0721 0.0000
vt 0.6937 0.1009 0.0000
vt 0.6921 0.1363 0.0000
vt 0.6913 0.1777 0.0000
vt 0.6919 0.2224 0.0000
vt 0.6940 0.2671 0.0000
vt 0.6971 0.3081 0.0000
vt 0.7136 0.3420 0.0000
vt 0.7007 0.3452 0.0000
vt 0.6998 0.3297 0.0000
vt 0.7041 0.3646 0.0000
vt 0.7081 0.3965 0.0000
vt 0.7049 0.3734 0.0000
vt 0.7117 0.4198 0.0000
vt 0.7166 0.4480 0.0000
vt 0.7237 0.4829 0.0000
vt 0.9469 0.4754 0.0000
vt 0.9577 0.5137 0.0000
vt 0.9367 0.4397 0.0000
vt 0.9278 0.4090 0.0000
vt 0.9209 0.3843 0.0000
vt 0.9166 0.3645 0.0000
vt 0.9148 0.3444 0.0000
vt 0.9141 0.3188 0.0000
vt 0.9134 0.2867 0.0000
vt 0.9126 0.2495 0.0000
vt 0.9115 0.2096 0.0000
vt 0.8880 0.1694 0.0000
vt 0.9090 0.1028 0.0000
vt 0.9097 0.1345 0.0000
vt 0.9083 0.0781 0.0000
vt 0.9084 0.0599 0.0000
vt 0.9130 0.0444 0.0000
vt 0.9854 0.6167 0.0000
vt 0.9922 0.6377 0.0000
vt 0.9778 0.5872 0.0000
vt 0.9683 0.5519 0.0000
vt 0.7020 0.5747 0.0000
vt 0.6920 0.5317 0.0000
vt 0.7141 0.6172 0.0000
vt 0.7273 0.6559 0.0000
vt 0.7396 0.6882 0.0000
vt 0.7470 0.7131 0.0000
vt 0.6549 0.0525 0.0000
vt 0.6509 0.0320 0.0000
vt 0.6538 0.0760 0.0000
vt 0.6512 0.1054 0.0000
vt 0.6489 0.1416 0.0000
vt 0.6479 0.1831 0.0000
vt 0.6490 0.2274 0.0000
vt 0.6523 0.2716 0.0000
vt 0.6578 0.3131 0.0000
vt 0.6827 0.3455 0.0000
vt 0.6734 0.4012 0.0000
vt 0.6694 0.3763 0.0000
vt 0.6764 0.4260 0.0000
vt 0.6797 0.4555 0.0000
vt 0.6846 0.4912 0.0000
vt 0.6652 0.3477 0.0000
vt 0.9099 0.1705 0.0000
vt 0.5217 0.3015 0.0000
vt 0.5618 0.3103 0.0000
vt 0.0313 0.6229 0.0000
vt 0.0361 0.5705 0.0000
vt 0.2251 0.6229 0.0000
vt 0.2204 0.6753 0.0000
vt 0.0361 0.6753 0.0000
vt 0.6516 0.4805 0.0000
vt 0.6452 0.5358 0.0000
vt 0.3982 0.5358 0.0000
vt 0.4167 0.5856 0.0000
vt 0.4454 0.6252 0.0000
vt 0.4816 0.6506 0.0000
vt 0.5217 0.6594 0.0000
vt 0.5618 0.6506 0.0000
vt 0.5980 0.6252 0.0000
vt 0.6268 0.5856 0.0000
vt 0.6452 0.4252 0.0000
vt 0.6268 0.3753 0.0000
vt 0.5980 0.3357 0.0000
vt 0.4167 0.3753 0.0000
vt 0.4454 0.3357 0.0000
vt 0.4816 0.3103 0.0000
vt 0.0498 0.5233 0.0000
vt 0.0713 0.4858 0.0000
vt 0.0983 0.4617 0.0000
vt 0.1282 0.4534 0.0000
vt 0.1582 0.4617 0.0000
vt 0.1852 0.4858 0.0000
vt 0.2066 0.7225 0.0000
vt 0.0498 0.7225 0.0000
vt 0.0983 0.7841 0.0000
vt 0.0713 0.7600 0.0000
vt 0.1282 0.7924 0.0000
vt 0.1582 0.7841 0.0000
vt 0.1852 0.7600 0.0000
vt 0.3041 0.3165 0.0000
vt 0.2809 0.3327 0.0000
vt 0.2833 0.3061 0.0000
vt 0.2986 0.3065 0.0000
vt 0.3051 0.3333 0.0000
vt 0.2780 0.3508 0.0000
vt 0.3024 0.3521 0.0000
vt 0.2825 0.3641 0.0000
vt 0.1742 0.1071 0.0000
vt 0.1588 0.1149 0.0000
vt 0.1524 0.1042 0.0000
vt 0.1726 0.0935 0.0000
vt 0.1808 0.1355 0.0000
vt 0.1723 0.1434 0.0000
vt 0.1865 0.1535 0.0000
vt 0.1810 0.1576 0.0000
vt 0.1927 0.1730 0.0000
vt 0.1919 0.1740 0.0000
vt 0.1953 0.1863 0.0000
vt 0.2768 0.3311 0.0000
vt 0.2730 0.3470 0.0000
vt 0.2742 0.3603 0.0000
vt 0.1465 0.0964 0.0000
vt 0.1522 0.1098 0.0000
vt 0.1560 0.1222 0.0000
vt 0.1748 0.1570 0.0000
vt 0.1890 0.1788 0.0000
vt 0.2465 0.3526 0.0000
vt 0.2498 0.3364 0.0000
vt 0.2455 0.3703 0.0000
vt 0.1173 0.1028 0.0000
vt 0.1222 0.1227 0.0000
vt 0.1303 0.1393 0.0000
vt 0.1502 0.1763 0.0000
vt 0.1621 0.2015 0.0000
vt 0.2009 0.2010 0.0000
vt 0.1694 0.2186 0.0000
vt 0.2088 0.2221 0.0000
vt 0.1775 0.2379 0.0000
vt 0.2170 0.2414 0.0000
vt 0.1874 0.2543 0.0000
vt 0.2251 0.2567 0.0000
vt 0.1948 0.2690 0.0000
vt 0.2326 0.2806 0.0000
vt 0.2003 0.2875 0.0000
vt 0.2448 0.3187 0.0000
vt 0.2128 0.3301 0.0000
vt 0.2780 0.3060 0.0000
vt 0.2488 0.3149 0.0000
vt 0.2404 0.2830 0.0000
vt 0.2735 0.2795 0.0000
vt 0.2303 0.2569 0.0000
vt 0.2638 0.2474 0.0000
vt 0.2455 0.3493 0.0000
vt 0.2164 0.3593 0.0000
vt 0.2430 0.3706 0.0000
vt 0.2137 0.3813 0.0000
vt 0.1171 0.1228 0.0000
vt 0.0857 0.1309 0.0000
vt 0.0841 0.1100 0.0000
vt 0.1148 0.1014 0.0000
vt 0.1175 0.1418 0.0000
vt 0.0862 0.1507 0.0000
vt 0.1263 0.1814 0.0000
vt 0.0940 0.1923 0.0000
vt 0.1311 0.2094 0.0000
vt 0.0971 0.2135 0.0000
vt 0.1335 0.2313 0.0000
vt 0.1002 0.2375 0.0000
vt 0.1463 0.2494 0.0000
vt 0.1193 0.2592 0.0000
vt 0.1624 0.2638 0.0000
vt 0.1371 0.2760 0.0000
vt 0.0889 0.1933 0.0000
vt 0.0803 0.1486 0.0000
vt 0.0799 0.1318 0.0000
vt 0.0787 0.1113 0.0000
vt 0.0785 0.1505 0.0000
vt 0.0761 0.1277 0.0000
vt 0.0773 0.1138 0.0000
vt 0.1735 0.2781 0.0000
vt 0.1502 0.2893 0.0000
vt 0.1850 0.2987 0.0000
vt 0.1650 0.3113 0.0000
vt 0.2038 0.3354 0.0000
vt 0.1848 0.3476 0.0000
vt 0.2110 0.3606 0.0000
vt 0.1956 0.3691 0.0000
vt 0.2115 0.3809 0.0000
vt 0.1939 0.3923 0.0000
vt 0.0740 0.1273 0.0000
vt 0.0528 0.1335 0.0000
vt 0.0557 0.1192 0.0000
vt 0.0763 0.1137 0.0000
vt 0.0758 0.1484 0.0000
vt 0.0541 0.1533 0.0000
vt 0.0844 0.1924 0.0000
vt 0.0880 0.1918 0.0000
vt 0.0923 0.2079 0.0000
vt 0.0897 0.2084 0.0000
vt 0.0636 0.2151 0.0000
vt 0.0558 0.2001 0.0000
vt 0.0923 0.2158 0.0000
vt 0.0672 0.2209 0.0000
vt 0.0966 0.2366 0.0000
vt 0.0723 0.2392 0.0000
vt 0.1142 0.2627 0.0000
vt 0.0882 0.2761 0.0000
vt 0.0751 0.2556 0.0000
vt 0.1362 0.2771 0.0000
vt 0.1097 0.2924 0.0000
vt 0.1479 0.2901 0.0000
vt 0.1211 0.3039 0.0000
vt 0.1630 0.3126 0.0000
vt 0.1362 0.3250 0.0000
vt 0.1838 0.3490 0.0000
vt 0.1565 0.3622 0.0000
vt 0.1950 0.3701 0.0000
vt 0.1661 0.3834 0.0000
vt 0.1925 0.3928 0.0000
vt 0.1727 0.4006 0.0000
vt 0.0513 0.1333 0.0000
vt 0.0348 0.1364 0.0000
vt 0.0328 0.1215 0.0000
vt 0.0540 0.1181 0.0000
vt 0.0526 0.1530 0.0000
vt 0.1264 0.1399 0.0000
vt 0.1210 0.1272 0.0000
vt 0.1220 0.1430 0.0000
vt 0.1206 0.1267 0.0000
vt 0.1491 0.1761 0.0000
vt 0.1321 0.1810 0.0000
vt 0.1572 0.2030 0.0000
vt 0.1376 0.2099 0.0000
vt 0.1648 0.2209 0.0000
vt 0.1418 0.2299 0.0000
vt 0.1734 0.2412 0.0000
vt 0.1540 0.2445 0.0000
vt 0.1824 0.2576 0.0000
vt 0.1895 0.2733 0.0000
vt 0.1974 0.2894 0.0000
vt 0.2079 0.3297 0.0000
vt 0.2110 0.3595 0.0000
vt 0.1677 0.2592 0.0000
vt 0.1788 0.2764 0.0000
vt 0.1879 0.2955 0.0000
vt 0.2041 0.3340 0.0000
vt 0.2120 0.3594 0.0000
vt 0.2107 0.3764 0.0000
vt 0.2110 0.3796 0.0000
vt 0.2233 0.2399 0.0000
vt 0.2571 0.2304 0.0000
vt 0.2165 0.2218 0.0000
vt 0.2505 0.2130 0.0000
vt 0.2079 0.2013 0.0000
vt 0.2374 0.1887 0.0000
vt 0.2012 0.1849 0.0000
vt 0.2316 0.1722 0.0000
vt 0.1982 0.1726 0.0000
vt 0.2267 0.1586 0.0000
vt 0.1926 0.1515 0.0000
vt 0.2208 0.1395 0.0000
vt 0.1881 0.1296 0.0000
vt 0.2137 0.1214 0.0000
vt 0.1794 0.1044 0.0000
vt 0.2045 0.0939 0.0000
vt 0.2453 0.3347 0.0000
vt 0.2477 0.3136 0.0000
vt 0.2456 0.3346 0.0000
vt 0.2461 0.3172 0.0000
vt 0.2348 0.2820 0.0000
vt 0.2290 0.2611 0.0000
vt 0.2268 0.2577 0.0000
vt 0.2359 0.2797 0.0000
vt 0.1759 0.0934 0.0000
vt 0.2022 0.0830 0.0000
vt 0.1774 0.0721 0.0000
vt 0.2033 0.0595 0.0000
vt 0.3084 0.3173 0.0000
vt 0.3375 0.3084 0.0000
vt 0.3351 0.3286 0.0000
vt 0.3081 0.3352 0.0000
vt 0.3033 0.3071 0.0000
vt 0.3350 0.2952 0.0000
vt 0.2910 0.2794 0.0000
vt 0.3223 0.2662 0.0000
vt 0.2772 0.2435 0.0000
vt 0.3123 0.2324 0.0000
vt 0.2718 0.2245 0.0000
vt 0.3058 0.2139 0.0000
vt 0.2596 0.2104 0.0000
vt 0.2933 0.1925 0.0000
vt 0.2461 0.1865 0.0000
vt 0.2791 0.1736 0.0000
vt 0.2490 0.1681 0.0000
vt 0.2789 0.1584 0.0000
vt 0.2450 0.1537 0.0000
vt 0.2736 0.1370 0.0000
vt 0.2337 0.1341 0.0000
vt 0.2614 0.1193 0.0000
vt 0.2211 0.1175 0.0000
vt 0.2496 0.1055 0.0000
vt 0.2094 0.0938 0.0000
vt 0.2356 0.0845 0.0000
vt 0.2070 0.0822 0.0000
vt 0.2300 0.0746 0.0000
vt 0.2095 0.0611 0.0000
vt 0.2322 0.0548 0.0000
vt 0.3419 0.3071 0.0000
vt 0.3681 0.3017 0.0000
vt 0.3635 0.3221 0.0000
vt 0.3402 0.3270 0.0000
vt 0.3387 0.2928 0.0000
vt 0.3666 0.2891 0.0000
vt 0.3380 0.2655 0.0000
vt 0.3702 0.2626 0.0000
vt 0.3316 0.2305 0.0000
vt 0.3654 0.2274 0.0000
vt 0.3292 0.2067 0.0000
vt 0.3625 0.2036 0.0000
vt 0.3309 0.1764 0.0000
vt 0.3597 0.1692 0.0000
vt 0.3263 0.1615 0.0000
vt 0.3554 0.1490 0.0000
vt 0.3105 0.1486 0.0000
vt 0.3382 0.1331 0.0000
vt 0.2898 0.1355 0.0000
vt 0.3197 0.1160 0.0000
vt 0.2709 0.1139 0.0000
vt 0.3038 0.0975 0.0000
vt 0.2579 0.0996 0.0000
vt 0.2927 0.0848 0.0000
vt 0.2476 0.0785 0.0000
vt 0.2799 0.0654 0.0000
vt 0.2451 0.0678 0.0000
vt 0.2751 0.0542 0.0000
vt 0.2439 0.0494 0.0000
vt 0.2737 0.0370 0.0000
vt 0.3811 0.3011 0.0000
vt 0.4097 0.2906 0.0000
vt 0.4082 0.3111 0.0000
vt 0.3782 0.3233 0.0000
vt 0.3796 0.2854 0.0000
vt 0.4106 0.2718 0.0000
vt 0.3733 0.2634 0.0000
vt 0.4045 0.2506 0.0000
vt 0.3688 0.2308 0.0000
vt 0.3884 0.2235 0.0000
vt 0.1730 0.0732 0.0000
vt 0.2783 0.2807 0.0000
vt 0.2692 0.2482 0.0000
vt 0.2626 0.2300 0.0000
vt 0.2862 0.2816 0.0000
vt 0.2718 0.2469 0.0000
vt 0.2647 0.2311 0.0000
vt 0.2309 0.1569 0.0000
vt 0.2350 0.1699 0.0000
vt 0.2423 0.1680 0.0000
vt 0.2393 0.1552 0.0000
vt 0.2256 0.1400 0.0000
vt 0.2300 0.1371 0.0000
vt 0.2215 0.1295 0.0000
vt 0.2233 0.1271 0.0000
vt 0.3177 0.2332 0.0000
vt 0.3281 0.2654 0.0000
vt 0.3112 0.2122 0.0000
vt 0.3003 0.1896 0.0000
vt 0.2871 0.1710 0.0000
vt 0.2845 0.1566 0.0000
vt 0.3011 0.1551 0.0000
vt 0.3136 0.1673 0.0000
vt 0.3202 0.1830 0.0000
vt 0.3210 0.2058 0.0000
vt 0.3253 0.2324 0.0000
vt 0.3318 0.2675 0.0000
vt 0.2784 0.1357 0.0000
vt 0.2843 0.1420 0.0000
vt 0.2665 0.1181 0.0000
vt 0.2671 0.1159 0.0000
vt 0.2498 0.1025 0.0000
vt 0.2552 0.1037 0.0000
vt 0.2402 0.0827 0.0000
vt 0.2433 0.0815 0.0000
vt 0.2344 0.0732 0.0000
vt 0.2396 0.0688 0.0000
vt 0.2352 0.0547 0.0000
vt 0.2375 0.0525 0.0000
vt 0.3713 0.3010 0.0000
vt 0.3764 0.2997 0.0000
vt 0.3714 0.3189 0.0000
vt 0.3674 0.3204 0.0000
vt 0.3706 0.2888 0.0000
vt 0.3769 0.2860 0.0000
vt 0.3729 0.2715 0.0000
vt 0.3683 0.2145 0.0000
vt 0.3623 0.1719 0.0000
vt 0.3579 0.1489 0.0000
vt 0.3412 0.1310 0.0000
vt 0.3242 0.1132 0.0000
vt 0.3081 0.0945 0.0000
vt 0.2974 0.0817 0.0000
vt 0.2849 0.0640 0.0000
vt 0.2792 0.0527 0.0000
vt 0.2779 0.0373 0.0000
vt 0.4125 0.3103 0.0000
vt 0.4144 0.2917 0.0000
vt 0.4143 0.2693 0.0000
vt 0.4080 0.2503 0.0000
vt 0.3913 0.2230 0.0000
vt 0.3792 0.2174 0.0000
vt 0.3795 0.2155 0.0000
vt 0.3707 0.2135 0.0000
vt 0.4239 0.2427 0.0000
vt 0.4270 0.2629 0.0000
vt 0.4380 0.2341 0.0000
vt 0.4423 0.2535 0.0000
vt 0.4519 0.2267 0.0000
vt 0.4569 0.2446 0.0000
vt 0.4613 0.2412 0.0000
vt 0.4549 0.2243 0.0000
vt 0.4650 0.2368 0.0000
vt 0.4544 0.2209 0.0000
vt 0.4673 0.2310 0.0000
vt 0.4694 0.2228 0.0000
vt 0.4393 0.2008 0.0000
vt 0.4522 0.1942 0.0000
vt 0.4146 0.1796 0.0000
vt 0.4276 0.1716 0.0000
vt 0.3973 0.1766 0.0000
vt 0.3989 0.1564 0.0000
vt 0.3909 0.1757 0.0000
vt 0.3905 0.1555 0.0000
vt 0.4495 0.2236 0.0000
vt 0.4336 0.2040 0.0000
vt 0.4357 0.2307 0.0000
vt 0.4204 0.2103 0.0000
vt 0.4201 0.2382 0.0000
vt 0.4054 0.2176 0.0000
vt 0.4116 0.1876 0.0000
vt 0.3958 0.1848 0.0000
vt 0.3807 0.1974 0.0000
vt 0.3847 0.1775 0.0000
vt 0.3916 0.2059 0.0000
vt 0.4049 0.1953 0.0000
vt 0.3734 0.1949 0.0000
vt 0.3777 0.1596 0.0000
vt 0.3032 0.0426 0.0000
vt 0.3045 0.0555 0.0000
vt 0.3380 0.0282 0.0000
vt 0.3392 0.0428 0.0000
vt 0.3092 0.0740 0.0000
vt 0.3385 0.0584 0.0000
vt 0.3189 0.0880 0.0000
vt 0.3431 0.0747 0.0000
vt 0.3370 0.1061 0.0000
vt 0.3535 0.0949 0.0000
vt 0.3537 0.1303 0.0000
vt 0.3743 0.1201 0.0000
vt 0.2992 0.0317 0.0000
vt 0.3297 0.0180 0.0000
vt 0.3404 0.0129 0.0000
vt 0.3459 0.0108 0.0000
vt 0.3497 0.0240 0.0000
vt 0.3517 0.0102 0.0000
vt 0.3582 0.0106 0.0000
vt 0.3579 0.0234 0.0000
vt 0.3657 0.0147 0.0000
vt 0.3514 0.0396 0.0000
vt 0.3631 0.0360 0.0000
vt 0.3666 0.0589 0.0000
vt 0.3659 0.0488 0.0000
vt 0.3653 0.0709 0.0000
vt 0.3649 0.0830 0.0000
vt 0.3827 0.0973 0.0000
vt 0.3846 0.0759 0.0000
vt 0.3834 0.0585 0.0000
vt 0.3809 0.0452 0.0000
vt 0.3761 0.0310 0.0000
vt 0.3710 0.0223 0.0000
vt 0.5528 0.0611 0.0000
vt 0.5747 0.0597 0.0000
vt 0.5698 0.0768 0.0000
vt 0.5535 0.0795 0.0000
vt 0.5276 0.0864 0.0000
vt 0.5204 0.0687 0.0000
vt 0.5111 0.0906 0.0000
vt 0.5089 0.0720 0.0000
vt 0.5041 0.0929 0.0000
vt 0.5031 0.0738 0.0000
vt 0.4991 0.0950 0.0000
vt 0.4972 0.0752 0.0000
vt 0.4935 0.0958 0.0000
vt 0.4906 0.0775 0.0000
vt 0.4883 0.0980 0.0000
vt 0.4820 0.0802 0.0000
vt 0.4809 0.1000 0.0000
vt 0.4725 0.0823 0.0000
vt 0.4711 0.1039 0.0000
vt 0.4627 0.0860 0.0000
vt 0.4606 0.1074 0.0000
vt 0.4483 0.0907 0.0000
vt 0.4453 0.1119 0.0000
vt 0.4351 0.0950 0.0000
vt 0.4281 0.1175 0.0000
vt 0.4183 0.1011 0.0000
vt 0.4081 0.1261 0.0000
vt 0.3977 0.1095 0.0000
vt 0.3850 0.1359 0.0000
vt 0.3662 0.1448 0.0000
vt 0.3987 0.1527 0.0000
vt 0.4296 0.1423 0.0000
vt 0.4613 0.1308 0.0000
vt 0.4934 0.1208 0.0000
vt 0.5013 0.1180 0.0000
vt 0.5639 0.0966 0.0000
vt 0.5505 0.0997 0.0000
vt 0.5342 0.1067 0.0000
vt 0.5184 0.1124 0.0000
vt 0.5132 0.1142 0.0000
vt 0.5076 0.1161 0.0000
vt 0.0356 0.1555 0.0000
vt 0.0328 0.1558 0.0000
vt 0.0334 0.1500 0.0000
vt 0.0506 0.1897 0.0000
vt 0.0523 0.1934 0.0000
vt 0.8105 0.9500 0.0000
vt 0.8113 0.8013 0.0000
vt 0.8801 0.8039 0.0000
vt 0.8756 0.9529 0.0000
vt 0.8102 0.7201 0.0000
vt 0.8068 0.7264 0.0000
vt 0.7717 0.7746 0.0000
vt 0.7727 0.7416 0.0000
vt 0.7268 0.7137 0.0000
vt 0.7157 0.7292 0.0000
vt 0.6972 0.7105 0.0000
vt 0.4407 0.6839 0.0000
vt 0.4423 0.6952 0.0000
vt 0.3877 0.7105 0.0000
vt 0.3833 0.7035 0.0000
vt 0.9227 0.9549 0.0000
vt 0.9298 0.8059 0.0000
vt 0.9786 0.8059 0.0000
vt 0.9715 0.9552 0.0000
vt 0.1758 0.8659 0.0000
vt 0.2133 0.8168 0.0000
vt 0.2921 0.8692 0.0000
vt 0.2749 0.8967 0.0000
vt 0.8894 0.7231 0.0000
vt 0.7781 0.9497 0.0000
vt 0.7750 0.8008 0.0000
vt 0.4421 0.9399 0.0000
vt 0.3852 0.9250 0.0000
vt 0.4420 0.9396 0.0000
vt 0.9350 0.7104 0.0000
vt 0.9839 0.7111 0.0000
vt 0.7143 0.7978 0.0000
vt 0.4561 0.7735 0.0000
vt 0.7212 0.9477 0.0000
vt 0.4857 0.9501 0.0000
vt 0.8894 0.7170 0.0000
vt 0.4216 0.7870 0.0000
vt 0.9352 0.7043 0.0000
vt 0.9841 0.7043 0.0000
vt 0.1639 0.8621 0.0000
vt 0.2079 0.8119 0.0000
vt 0.3420 0.7300 0.0000
vt 0.3385 0.7236 0.0000
vt 0.3039 0.7500 0.0000
vt 0.3005 0.7443 0.0000
vt 0.2610 0.7782 0.0000
vt 0.3178 0.8444 0.0000
vt 0.3530 0.8228 0.0000
vt 0.3857 0.8025 0.0000
vt 0.2572 0.7722 0.0000
vt 0.8096 0.9789 0.0000
vt 0.8743 0.9828 0.0000
vt 0.7773 0.9778 0.0000
vt 0.7202 0.9751 0.0000
vt 0.4827 0.9725 0.0000
vt 0.4367 0.9617 0.0000
vt 0.3792 0.9456 0.0000
vt 0.2679 0.9145 0.0000
vt 0.1726 0.8688 0.0000
vt 0.1606 0.8626 0.0000
vt 0.2054 0.8089 0.0000
vt 0.2547 0.7679 0.0000
vt 0.2981 0.7390 0.0000
vt 0.3362 0.7174 0.0000
vt 0.3817 0.6974 0.0000
vt 0.4402 0.6775 0.0000
vt 0.6954 0.7084 0.0000
vt 0.7265 0.7118 0.0000
vt 0.7725 0.7383 0.0000
vt 0.8091 0.7162 0.0000
vt 0.8886 0.7120 0.0000
vt 0.9347 0.7006 0.0000
vt 0.9837 0.6997 0.0000
vt 0.9707 0.9870 0.0000
vt 0.9216 0.9856 0.0000
vt 0.3853 0.9249 0.0000
vt 0.4420 0.9395 0.0000
vt 0.4419 0.9393 0.0000
# 679 texture coords

o Dagger_M
g Dagger_M
usemtl 01___Default
s off
f 1/1/1 2/2/2 3/3/3 
f 4/4/4 5/5/5 6/6/6 7/7/7 
f 5/5/5 8/8/8 9/9/9 6/6/6 
f 8/8/8 10/10/10 11/11/11 9/9/9 
f 10/10/10 12/12/12 13/13/13 11/11/11 
f 12/12/12 14/14/14 15/15/15 13/13/13 
f 14/14/14 16/16/16 17/17/17 15/15/15 
f 16/16/16 18/18/18 19/19/19 17/17/17 
f 18/18/18 20/20/20 21/21/21 19/19/19 
f 20/20/20 22/22/22 23/23/23 21/21/21 
f 22/22/22 24/24/24 25/25/25 23/23/23 
f 24/24/24 26/26/26 27/27/27 25/25/25 
f 26/26/26 28/28/28 29/29/29 27/27/27 
f 28/28/28 30/30/30 31/31/31 29/29/29 
f 30/30/30 32/32/32 33/33/33 31/31/31 
f 32/32/32 34/34/34 35/35/35 33/33/33 
f 34/34/34 36/36/36 37/37/37 35/35/35 
f 36/38/36 38/39/38 39/40/39 37/41/37 
f 38/39/38 40/42/40 41/43/41 39/40/39 
f 40/42/40 42/44/42 43/45/43 41/43/41 
f 42/44/42 4/4/4 7/7/7 43/45/43 
f 44/46/44 45/47/45 46/48/46 
f 7/7/7 6/6/6 47/49/47 48/50/48 
f 6/6/6 9/9/9 49/51/49 47/49/47 
f 9/9/9 11/11/11 50/52/50 49/51/49 
f 11/11/11 13/13/13 51/53/51 50/52/50 
f 13/13/13 15/15/15 52/54/52 51/53/51 
f 15/15/15 17/17/17 53/55/53 52/54/52 
f 17/17/17 19/19/19 54/56/54 53/55/53 
f 19/19/19 21/21/21 55/57/55 54/56/54 
f 21/21/21 23/23/23 56/58/56 55/57/55 
f 23/23/23 25/25/25 57/59/57 56/58/56 
f 58/60/58 59/61/59 60/62/60 
f 61/63/61 59/61/59 58/60/58 
f 29/29/29 31/31/31 62/64/62 63/65/63 
f 31/31/31 33/33/33 64/66/64 62/64/62 
f 33/33/33 35/35/35 65/67/65 64/66/64 
f 35/35/35 37/37/37 66/68/66 65/67/65 
f 37/41/37 39/40/39 67/69/67 66/70/66 
f 39/40/39 41/43/41 68/71/68 67/69/67 
f 41/43/41 43/45/43 69/72/69 68/71/68 
f 43/45/43 7/7/7 48/50/48 69/72/69 
f 5/5/5 4/4/4 70/73/70 71/74/71 
f 4/4/4 42/44/42 72/75/72 70/73/70 
f 42/44/42 40/42/40 73/76/73 72/75/72 
f 40/42/40 38/39/38 74/77/74 73/76/73 
f 38/39/38 36/38/36 75/78/75 74/77/74 
f 36/36/36 34/34/34 76/79/76 75/80/75 
f 34/34/34 32/32/32 77/81/77 76/79/76 
f 32/32/32 30/30/30 78/82/78 77/81/77 
f 30/30/30 28/28/28 79/83/79 78/82/78 
f 28/28/28 26/26/26 80/84/80 79/83/79 
f 26/26/26 24/24/24 81/85/81 80/84/80 
f 24/24/24 22/22/22 82/86/82 81/85/81 
f 22/22/22 20/20/20 83/87/83 82/86/82 
f 84/88/84 85/89/85 86/90/86 
f 87/91/87 85/89/85 84/88/84 
f 16/16/16 14/14/14 88/92/88 89/93/89 
f 14/14/14 12/12/12 90/94/90 88/92/88 
f 12/12/12 10/10/10 91/95/91 90/94/90 
f 10/10/10 8/8/8 92/96/92 91/95/91 
f 8/8/8 5/5/5 71/74/71 92/96/92 
f 47/49/47 93/97/93 94/98/94 48/50/48 
f 49/51/49 95/99/95 93/97/93 47/49/47 
f 50/52/50 96/100/96 95/99/95 49/51/49 
f 51/53/51 97/101/97 96/100/96 50/52/50 
f 52/54/52 98/102/98 97/101/97 51/53/51 
f 53/55/53 99/103/99 98/102/98 52/54/52 
f 54/56/54 100/104/100 99/103/99 53/55/53 
f 55/57/55 101/105/101 100/104/100 54/56/54 
f 56/58/56 102/106/102 101/105/101 55/57/55 
f 57/59/57 103/107/103 102/106/102 56/58/56 
f 59/61/59 104/108/104 60/62/60 
f 104/108/104 59/61/59 61/63/61 
f 62/64/62 105/109/105 106/110/106 63/65/63 
f 64/66/64 107/111/107 105/109/105 62/64/62 
f 65/67/65 108/112/108 107/111/107 64/66/64 
f 66/68/66 109/113/109 108/112/108 65/67/65 
f 67/69/67 110/114/110 109/115/109 66/70/66 
f 68/71/68 46/116/46 110/114/110 67/69/67 
f 69/72/69 44/117/44 46/116/46 68/71/68 
f 48/50/48 94/98/94 44/117/44 69/72/69 
f 70/73/70 3/118/3 111/119/111 71/74/71 
f 72/75/72 1/120/1 3/118/3 70/73/70 
f 73/76/73 112/121/112 1/120/1 72/75/72 
f 74/77/74 113/122/113 112/121/112 73/76/73 
f 75/78/75 114/123/114 113/122/113 74/77/74 
f 76/79/76 115/124/115 114/125/114 75/80/75 
f 77/81/77 116/126/116 115/124/115 76/79/76 
f 78/82/78 117/127/117 116/126/116 77/81/77 
f 79/83/79 118/128/118 117/127/117 78/82/78 
f 80/84/80 119/129/119 118/128/118 79/83/79 
f 81/85/81 120/130/120 119/129/119 80/84/80 
f 82/86/82 121/131/121 120/130/120 81/85/81 
f 83/87/83 122/132/122 121/131/121 82/86/82 
f 85/89/85 123/133/123 86/90/86 
f 123/133/123 85/89/85 87/91/87 
f 88/92/88 124/134/124 125/135/125 89/93/89 
f 90/94/90 126/136/126 124/134/124 88/92/88 
f 91/95/91 127/137/127 126/136/126 90/94/90 
f 92/96/92 128/138/128 127/137/127 91/95/91 
f 71/74/71 111/119/111 128/138/128 92/96/92 
f 87/91/87 89/93/89 129/139/129 123/133/123 
f 123/133/123 122/132/122 83/87/83 86/90/86 
f 86/90/86 83/87/83 20/20/20 84/88/84 
f 84/88/84 18/18/18 89/93/89 87/91/87 
f 60/62/60 57/59/57 25/25/25 58/60/58 
f 58/60/58 29/29/29 63/65/63 61/63/61 
f 61/63/61 63/65/63 106/110/106 104/108/104 
f 104/108/104 103/107/103 57/59/57 60/62/60 
f 25/25/25 27/27/27 58/60/58 
f 58/60/58 27/27/27 29/29/29 
f 106/110/106 130/140/130 104/108/104 
f 104/108/104 130/140/130 103/107/103 
f 20/20/20 18/18/18 84/88/84 
f 115/141/115 116/142/116 2/2/2 
f 103/143/103 130/144/130 45/47/45 
f 94/145/94 93/146/93 45/47/45 
f 45/47/45 102/147/102 103/143/103 
f 120/148/120 121/149/121 2/2/2 
f 2/2/2 111/150/111 3/3/3 
f 2/2/2 128/151/128 111/150/111 
f 2/2/2 127/152/127 128/151/128 
f 2/2/2 126/153/126 127/152/127 
f 2/2/2 124/154/124 126/153/126 
f 125/155/125 124/154/124 2/2/2 
f 129/156/129 125/155/125 2/2/2 
f 122/157/122 129/156/129 2/2/2 
f 121/149/121 122/157/122 2/2/2 
f 119/158/119 120/148/120 2/2/2 
f 118/159/118 119/158/119 2/2/2 
f 117/160/117 118/159/118 2/2/2 
f 116/142/116 117/160/117 2/2/2 
f 1/1/1 112/161/112 2/2/2 
f 112/161/112 113/162/113 2/2/2 
f 113/162/113 114/163/114 2/2/2 
f 114/163/114 115/141/115 2/2/2 
f 130/144/130 106/164/106 45/47/45 
f 106/164/106 105/165/105 45/47/45 
f 105/165/105 107/166/107 45/47/45 
f 107/166/107 108/167/108 45/47/45 
f 45/47/45 108/167/108 109/168/109 
f 45/47/45 109/168/109 110/169/110 
f 45/47/45 110/169/110 46/48/46 
f 44/46/44 94/145/94 45/47/45 
f 93/146/93 95/170/95 45/47/45 
f 45/47/45 101/171/101 102/147/102 
f 45/47/45 99/172/99 100/173/100 
f 45/47/45 100/173/100 101/171/101 
f 45/47/45 98/174/98 99/172/99 
f 97/175/97 98/174/98 45/47/45 
f 96/176/96 97/175/97 45/47/45 
f 95/170/95 96/176/96 45/47/45 
f 131/177/131 132/178/132 133/179/133 134/180/134 
f 135/181/135 136/182/136 132/178/132 131/177/131 
f 137/183/137 138/184/138 136/182/136 135/181/135 
f 139/185/139 140/186/140 138/187/138 137/188/137 
f 141/189/141 142/190/142 140/186/140 139/185/139 
f 143/191/143 144/192/144 142/190/142 141/189/141 
f 145/193/145 146/194/146 144/192/144 143/191/143 
f 144/192/144 146/194/146 145/193/145 147/195/147 
f 148/196/148 132/178/132 136/182/136 149/197/149 
f 149/197/149 136/182/136 138/184/138 150/198/150 
f 150/199/150 138/187/138 140/186/140 151/200/151 
f 151/200/151 140/186/140 142/190/142 152/201/152 
f 152/201/152 142/190/142 144/192/144 153/202/153 
f 153/202/153 144/192/144 147/195/147 154/203/154 
f 155/204/155 156/205/156 148/196/148 149/197/149 
f 155/204/155 149/197/149 150/198/150 157/206/157 
f 157/207/157 150/199/150 151/200/151 158/208/158 
f 158/208/158 151/200/151 152/201/152 159/209/159 
f 159/209/159 152/201/152 153/202/153 160/210/160 
f 160/210/160 153/202/153 154/203/154 161/211/161 
f 161/211/161 154/203/154 147/195/147 
f 162/212/162 163/213/163 161/211/161 147/195/147 
f 164/214/164 165/215/165 163/213/163 162/212/162 
f 166/216/166 167/217/167 165/215/165 164/214/164 
f 168/218/168 169/219/169 167/217/167 166/216/166 
f 170/220/170 171/221/171 169/219/169 168/218/168 
f 172/222/172 173/223/173 171/221/171 170/220/170 
f 174/224/174 133/179/133 132/178/132 148/196/148 
f 174/224/174 148/196/148 156/205/156 175/225/175 
f 176/226/176 177/227/177 174/224/174 175/225/175 
f 178/228/178 179/229/179 177/227/177 176/226/176 
f 180/230/180 181/231/181 173/223/173 172/222/172 
f 182/232/182 183/233/183 181/231/181 180/230/180 
f 184/234/184 185/235/185 183/236/183 182/237/182 
f 186/238/186 187/239/187 185/235/185 184/234/184 
f 188/240/188 189/241/189 187/239/187 186/238/186 
f 190/242/190 191/243/191 189/241/189 188/240/188 
f 192/244/192 193/245/193 191/243/191 190/242/190 
f 194/246/194 195/247/195 193/245/193 192/244/192 
f 196/248/196 197/249/197 195/247/195 194/246/194 
f 198/250/198 199/251/199 187/239/187 189/241/189 
f 200/252/200 185/235/185 187/239/187 199/251/199 
f 201/253/201 183/236/183 185/235/185 200/252/200 
f 202/254/202 203/255/203 200/252/200 199/251/199 
f 204/256/204 201/253/201 200/252/200 203/255/203 
f 205/257/205 206/258/206 197/249/197 196/248/196 
f 207/259/207 208/260/208 206/258/206 205/257/205 
f 209/261/209 210/262/210 208/260/208 207/259/207 
f 211/263/211 212/264/212 210/262/210 209/261/209 
f 213/265/213 214/266/214 212/264/212 211/263/211 
f 215/267/215 216/268/216 214/269/214 213/270/213 
f 217/271/217 218/272/218 216/268/216 215/267/215 
f 219/273/219 218/272/218 217/271/217 
f 217/271/217 215/267/215 203/255/203 202/254/202 
f 215/267/215 213/270/213 204/256/204 203/255/203 
f 220/274/220 219/273/219 217/271/217 202/254/202 
f 220/274/220 202/254/202 199/251/199 198/250/198 
f 221/275/221 220/274/220 198/250/198 
f 221/275/221 198/250/198 189/241/189 191/243/191 
f 222/276/222 223/277/223 224/278/224 219/273/219 
f 222/276/222 219/273/219 220/274/220 221/275/221 
f 225/279/225 226/280/226 223/277/223 222/276/222 
f 225/279/225 222/276/222 221/275/221 191/243/191 
f 227/281/227 228/282/228 226/280/226 225/279/225 
f 227/281/227 225/279/225 191/243/191 193/245/193 
f 229/283/229 230/284/230 231/285/231 227/281/227 
f 232/286/232 233/287/233 230/284/230 229/283/229 
f 234/288/234 235/289/235 233/287/233 232/286/232 
f 236/290/236 237/291/237 235/289/235 234/288/234 
f 238/292/238 239/293/239 237/291/237 236/290/236 
f 240/294/240 241/295/241 239/293/239 238/292/238 
f 242/296/242 243/297/243 241/295/241 240/294/240 
f 244/298/244 245/299/245 243/300/243 242/301/242 
f 246/302/246 245/299/245 244/298/244 
f 229/283/229 227/281/227 193/245/193 195/247/195 
f 232/286/232 229/283/229 195/247/195 197/249/197 
f 234/288/234 232/286/232 197/249/197 206/258/206 
f 236/290/236 234/288/234 206/258/206 208/260/208 
f 238/292/238 236/290/236 208/260/208 210/262/210 
f 240/294/240 238/292/238 210/262/210 212/264/212 
f 242/296/242 240/294/240 212/264/212 214/266/214 
f 244/298/244 242/301/242 214/269/214 216/268/216 
f 246/302/246 244/298/244 216/268/216 218/272/218 
f 247/303/247 248/304/248 158/208/158 159/209/159 
f 249/305/249 250/306/250 248/304/248 247/303/247 
f 247/303/247 159/209/159 160/210/160 251/307/251 
f 252/308/252 249/305/249 247/303/247 251/307/251 
f 251/307/251 160/210/160 161/211/161 253/309/253 
f 254/310/254 252/308/252 251/307/251 253/309/253 
f 253/309/253 161/211/161 163/213/163 255/311/255 
f 256/312/256 254/310/254 253/309/253 255/311/255 
f 255/311/255 163/213/163 165/215/165 257/313/257 
f 258/314/258 256/312/256 255/311/255 257/313/257 
f 182/232/182 180/230/180 155/204/155 157/206/157 
f 250/306/250 249/305/249 186/238/186 184/234/184 
f 184/234/184 182/237/182 157/207/157 158/208/158 
f 184/234/184 158/208/158 248/304/248 250/306/250 
f 249/305/249 252/308/252 188/240/188 186/238/186 
f 252/308/252 254/310/254 190/242/190 188/240/188 
f 254/310/254 256/312/256 192/244/192 190/242/190 
f 256/312/256 258/314/258 194/246/194 192/244/192 
f 259/315/259 257/313/257 165/215/165 167/217/167 
f 259/315/259 167/217/167 169/219/169 260/316/260 
f 260/316/260 169/219/169 171/221/171 261/317/261 
f 261/317/261 171/221/171 173/223/173 262/318/262 
f 262/318/262 173/223/173 181/231/181 263/319/263 
f 264/320/264 258/314/258 257/313/257 259/315/259 
f 264/320/264 259/315/259 260/316/260 265/321/265 
f 265/321/265 260/316/260 261/317/261 266/322/266 
f 266/322/266 261/317/261 262/318/262 267/323/267 
f 267/323/267 262/318/262 263/319/263 268/324/268 
f 258/314/258 264/320/264 196/248/196 194/246/194 
f 264/320/264 265/321/265 205/257/205 196/248/196 
f 265/321/265 266/322/266 207/259/207 205/257/205 
f 266/322/266 267/323/267 209/261/209 207/259/207 
f 267/323/267 268/324/268 211/263/211 209/261/209 
f 263/319/263 181/231/181 183/233/183 201/325/201 
f 211/263/211 268/324/268 204/326/204 213/265/213 
f 268/324/268 263/319/263 201/325/201 204/326/204 
f 269/327/269 270/328/270 179/229/179 178/228/178 
f 271/329/271 272/330/272 270/328/270 269/327/269 
f 273/331/273 274/332/274 272/330/272 271/329/271 
f 275/333/275 276/334/276 274/332/274 273/331/273 
f 277/335/277 278/336/278 276/334/276 275/333/275 
f 279/337/279 280/338/280 278/336/278 277/335/277 
f 281/339/281 282/340/282 280/338/280 279/337/279 
f 283/341/283 284/342/284 282/340/282 281/339/281 
f 283/341/283 281/339/281 141/189/141 139/185/139 
f 281/339/281 279/337/279 143/191/143 141/189/141 
f 279/337/279 277/335/277 145/193/145 143/191/143 
f 277/335/277 275/333/275 147/195/147 145/193/145 
f 275/333/275 273/331/273 162/212/162 147/195/147 
f 273/331/273 271/329/271 164/214/164 162/212/162 
f 271/329/271 269/327/269 166/216/166 164/214/164 
f 285/343/285 286/344/286 175/225/175 156/205/156 
f 287/345/287 288/346/288 286/344/286 285/343/285 
f 285/343/285 156/205/156 155/204/155 180/230/180 
f 288/346/288 287/345/287 180/230/180 172/222/172 
f 285/343/285 180/230/180 287/345/287 
f 289/347/289 176/226/176 175/225/175 286/344/286 
f 290/348/290 178/228/178 176/226/176 289/347/289 
f 291/349/291 292/350/292 170/220/170 168/218/168 
f 170/220/170 292/350/292 288/346/288 172/222/172 
f 288/346/288 292/350/292 289/347/289 286/344/286 
f 292/350/292 291/349/291 290/348/290 289/347/289 
f 291/349/291 168/218/168 166/216/166 269/327/269 
f 269/327/269 178/228/178 291/349/291 
f 178/228/178 290/348/290 291/349/291 
f 293/351/293 294/352/294 284/342/284 283/341/283 
f 295/353/295 296/354/296 294/352/294 293/351/293 
f 297/355/297 298/356/298 296/357/296 295/358/295 
f 299/359/299 300/360/300 298/356/298 297/355/297 
f 301/361/301 302/362/302 300/360/300 299/359/299 
f 303/363/303 304/364/304 302/362/302 301/361/301 
f 305/365/305 306/366/306 304/364/304 303/363/303 
f 307/367/307 308/368/308 306/366/306 305/365/305 
f 309/369/309 310/370/310 308/368/308 307/367/307 
f 311/371/311 312/372/312 310/370/310 309/369/309 
f 313/373/313 314/374/314 312/372/312 311/371/311 
f 315/375/315 316/376/316 314/374/314 313/373/313 
f 317/377/317 318/378/318 316/376/316 315/375/315 
f 319/379/319 320/380/320 318/378/318 317/377/317 
f 321/381/321 322/382/322 320/380/320 319/379/319 
f 323/383/323 324/384/324 322/382/322 321/381/321 
f 325/385/325 326/386/326 324/387/324 323/388/323 
f 327/389/327 328/390/328 326/386/326 325/385/325 
f 329/391/329 330/392/330 328/390/328 327/389/327 
f 331/393/331 332/394/332 330/392/330 329/391/329 
f 333/395/333 334/396/334 332/394/332 331/393/331 
f 335/397/335 336/398/336 334/396/334 333/395/333 
f 337/399/337 338/400/338 336/398/336 335/397/335 
f 339/401/339 340/402/340 338/400/338 337/399/337 
f 341/403/341 342/404/342 340/402/340 339/401/339 
f 343/405/343 344/406/344 342/404/342 341/403/341 
f 345/407/345 346/408/346 344/406/344 343/405/343 
f 347/409/347 348/410/348 346/408/346 345/407/345 
f 349/411/349 350/412/350 348/410/348 347/409/347 
f 351/413/351 352/414/352 350/412/350 349/411/349 
f 353/415/353 354/416/354 352/417/352 351/418/351 
f 355/419/355 356/420/356 354/416/354 353/415/353 
f 357/421/357 358/422/358 356/420/356 355/419/355 
f 359/423/359 360/424/360 358/422/358 357/421/357 
f 299/359/299 297/355/297 131/177/131 134/180/134 
f 293/351/293 283/341/283 139/185/139 137/188/137 
f 295/353/295 293/351/293 137/188/137 135/425/135 
f 297/355/297 295/358/295 135/181/135 131/177/131 
f 361/426/361 133/179/133 174/224/174 177/227/177 
f 361/426/361 177/227/177 179/229/179 362/427/362 
f 362/427/362 179/229/179 270/328/270 363/428/363 
f 363/428/363 270/328/270 272/330/272 
f 364/429/364 134/180/134 133/179/133 361/426/361 
f 364/429/364 361/426/361 362/427/362 365/430/365 
f 365/430/365 362/427/362 363/428/363 366/431/366 
f 366/431/366 363/428/363 272/330/272 307/367/307 
f 366/431/366 307/367/307 305/365/305 
f 365/430/365 366/431/366 305/365/305 303/363/303 
f 364/429/364 365/430/365 303/363/303 301/361/301 
f 134/180/134 364/429/364 301/361/301 299/359/299 
f 309/369/309 307/367/307 272/330/272 274/332/274 
f 367/432/367 368/433/368 276/334/276 278/336/278 
f 369/434/369 370/435/370 313/373/313 311/371/311 
f 367/432/367 278/336/278 280/338/280 371/436/371 
f 372/437/372 315/375/315 313/373/313 370/435/370 
f 371/436/371 280/338/280 282/340/282 373/438/373 
f 374/439/374 317/377/317 315/375/315 372/437/372 
f 374/439/374 372/437/372 371/436/371 373/438/373 
f 372/437/372 370/435/370 367/432/367 371/436/371 
f 370/435/370 369/434/369 368/433/368 367/432/367 
f 368/433/368 369/434/369 309/369/309 274/332/274 
f 274/332/274 276/334/276 368/433/368 
f 309/369/309 369/434/369 311/371/311 
f 317/377/317 374/439/374 373/438/373 282/340/282 
f 319/379/319 317/377/317 282/340/282 284/342/284 
f 321/381/321 319/379/319 284/342/284 294/352/294 
f 323/383/323 321/381/321 294/352/294 296/354/296 
f 325/385/325 323/388/323 296/357/296 298/356/298 
f 327/389/327 325/385/325 298/356/298 300/360/300 
f 375/440/375 376/441/376 302/362/302 304/364/304 
f 375/440/375 304/364/304 306/366/306 377/442/377 
f 377/442/377 306/366/306 308/368/308 378/443/378 
f 378/443/378 308/368/308 310/370/310 379/444/379 
f 379/444/379 310/370/310 312/372/312 380/445/380 
f 381/446/381 382/447/382 379/444/379 380/445/380 
f 383/448/383 378/443/378 379/444/379 382/447/382 
f 384/449/384 377/442/377 378/443/378 383/448/383 
f 385/450/385 375/440/375 377/442/377 384/449/384 
f 386/451/386 376/441/376 375/440/375 385/450/385 
f 382/447/382 381/446/381 339/401/339 337/399/337 
f 383/448/383 382/447/382 337/399/337 335/397/335 
f 384/449/384 383/448/383 335/397/335 333/395/333 
f 385/450/385 384/449/384 333/395/333 331/393/331 
f 386/451/386 385/450/385 331/393/331 329/391/329 
f 376/441/376 386/451/386 327/389/327 300/360/300 
f 300/360/300 302/362/302 376/441/376 
f 327/389/327 386/451/386 329/391/329 
f 387/452/387 388/453/388 381/446/381 380/445/380 
f 387/452/387 380/445/380 312/372/312 314/374/314 
f 381/446/381 388/453/388 341/403/341 339/401/339 
f 389/454/389 390/455/390 388/453/388 387/452/387 
f 391/456/391 392/457/392 390/455/390 389/454/389 
f 393/458/393 394/459/394 392/457/392 391/456/391 
f 395/460/395 396/461/396 394/459/394 393/458/393 
f 397/462/397 398/463/398 396/461/396 395/460/395 
f 399/464/399 400/465/400 398/466/398 397/467/397 
f 401/468/401 402/469/402 400/465/400 399/464/399 
f 403/470/403 402/469/402 401/468/401 
f 401/468/401 399/464/399 326/386/326 328/390/328 
f 399/464/399 397/467/397 324/387/324 326/386/326 
f 397/462/397 395/460/395 322/382/322 324/384/324 
f 395/460/395 393/458/393 320/380/320 322/382/322 
f 393/458/393 391/456/391 318/378/318 320/380/320 
f 391/456/391 389/454/389 316/376/316 318/378/318 
f 389/454/389 387/452/387 314/374/314 316/376/316 
f 388/453/388 390/455/390 343/405/343 341/403/341 
f 390/455/390 392/457/392 345/407/345 343/405/343 
f 392/457/392 394/459/394 347/409/347 345/407/345 
f 394/459/394 396/461/396 349/411/349 347/409/347 
f 396/461/396 398/463/398 351/413/351 349/411/349 
f 398/466/398 400/465/400 353/415/353 351/418/351 
f 400/465/400 402/469/402 355/419/355 353/415/353 
f 403/470/403 401/468/401 328/390/328 330/392/330 
f 402/469/402 403/470/403 357/421/357 355/419/355 
f 403/470/403 330/392/330 357/421/357 
f 359/423/359 357/421/357 330/392/330 332/394/332 
f 359/423/359 332/394/332 334/396/334 404/471/404 
f 404/471/404 334/396/334 336/398/336 405/472/405 
f 405/472/405 336/398/336 338/400/338 406/473/406 
f 406/473/406 338/400/338 340/402/340 407/474/407 
f 407/474/407 340/402/340 342/404/342 408/475/408 
f 408/475/408 342/404/342 344/406/344 409/476/409 
f 409/476/409 344/406/344 346/408/346 410/477/410 
f 410/477/410 346/408/346 348/410/348 411/478/411 
f 411/478/411 348/410/348 350/412/350 412/479/412 
f 412/479/412 350/412/350 352/414/352 413/480/413 
f 413/481/413 352/417/352 354/416/354 414/482/414 
f 414/482/414 354/416/354 356/420/356 415/483/415 
f 415/483/415 356/420/356 358/422/358 416/484/416 
f 416/484/416 358/422/358 360/424/360 417/485/417 
f 418/486/418 360/424/360 359/423/359 404/471/404 
f 419/487/419 417/485/417 360/424/360 418/486/418 
f 419/487/419 418/486/418 404/471/404 420/488/420 
f 421/489/421 422/490/422 415/483/415 416/484/416 
f 423/491/423 424/492/424 422/490/422 421/489/421 
f 425/493/425 426/494/426 424/492/424 423/491/423 
f 427/495/427 426/494/426 425/493/425 
f 428/496/428 429/497/429 427/495/427 425/493/425 
f 430/498/430 431/499/431 429/497/429 428/496/428 
f 432/500/432 431/499/431 430/498/430 
f 433/501/433 434/502/434 432/500/432 430/498/430 
f 435/503/435 436/504/436 434/502/434 433/501/433 
f 437/505/437 438/506/438 436/504/436 435/503/435 
f 439/507/439 440/508/440 438/506/438 437/505/437 
f 441/509/441 442/510/442 433/501/433 430/498/430 
f 441/509/441 430/498/430 428/496/428 425/493/425 
f 443/511/443 444/512/444 442/510/442 441/509/441 
f 445/513/445 446/514/446 444/512/444 443/511/443 
f 446/514/446 445/513/445 416/484/416 417/485/417 
f 443/511/443 441/509/441 425/493/425 423/491/423 
f 445/513/445 443/511/443 423/491/423 421/489/421 
f 416/484/416 445/513/445 421/489/421 
f 447/515/447 435/503/435 433/501/433 442/510/442 
f 448/516/448 437/505/437 435/503/435 447/515/447 
f 449/517/449 439/507/439 437/505/437 448/516/448 
f 450/518/450 439/507/439 449/517/449 
f 451/519/451 449/517/449 448/516/448 
f 451/519/451 448/516/448 447/515/447 452/520/452 
f 452/520/452 447/515/447 442/510/442 444/512/444 
f 451/519/451 452/520/452 444/512/444 446/514/446 
f 451/519/451 446/514/446 417/485/417 419/487/419 
f 449/517/449 451/519/451 419/487/419 420/488/420 
f 453/521/453 405/472/405 450/518/450 449/517/449 
f 453/521/453 449/517/449 420/488/420 404/471/404 
f 404/471/404 405/472/405 453/521/453 
f 454/522/454 450/518/450 405/472/405 
f 450/518/450 454/522/454 440/508/440 439/507/439 
f 455/523/455 456/524/456 411/478/411 412/479/412 
f 457/525/457 458/526/458 456/524/456 455/523/455 
f 459/527/459 410/477/410 411/478/411 456/524/456 
f 459/527/459 456/524/456 458/526/458 460/528/460 
f 461/529/461 409/476/409 410/477/410 459/527/459 
f 461/529/461 459/527/459 460/528/460 462/530/462 
f 463/531/463 408/475/408 409/476/409 461/529/461 
f 463/531/463 461/529/461 462/530/462 464/532/464 
f 465/533/465 407/474/407 408/475/408 463/531/463 
f 465/533/465 463/531/463 464/532/464 466/534/466 
f 455/523/455 412/479/412 413/480/413 467/535/467 
f 468/536/468 457/525/457 455/523/455 467/535/467 
f 469/537/469 457/525/457 468/536/468 
f 470/538/470 471/539/471 457/525/457 469/537/469 
f 472/540/472 471/539/471 470/538/470 
f 473/541/473 474/542/474 471/539/471 472/540/472 
f 475/543/475 474/542/474 473/541/473 
f 458/526/458 457/525/457 471/539/471 476/544/476 
f 476/544/476 471/539/471 474/542/474 477/545/477 
f 478/546/478 460/528/460 458/526/458 476/544/476 
f 478/546/478 476/544/476 477/545/477 479/547/479 
f 480/548/480 462/530/462 460/528/460 478/546/478 
f 481/549/481 464/532/464 462/530/462 480/548/480 
f 482/550/482 466/534/466 464/532/464 481/549/481 
f 482/550/482 481/549/481 480/548/480 483/551/483 
f 483/551/483 480/548/480 478/546/478 484/552/484 
f 484/552/484 478/546/478 479/547/479 485/553/485 
f 485/553/485 479/547/479 477/545/477 486/554/486 
f 486/554/486 477/545/477 474/542/474 487/555/487 
f 475/543/475 487/555/487 474/542/474 
f 467/556/467 413/557/413 414/558/414 488/559/488 
f 489/560/489 468/561/468 467/556/467 488/559/488 
f 490/562/490 469/563/469 468/561/468 489/560/489 
f 491/564/491 470/565/470 469/563/469 490/562/490 
f 492/566/492 472/567/472 470/565/470 491/564/491 
f 493/568/493 473/569/473 472/567/472 492/566/492 
f 494/570/494 475/571/475 473/569/473 493/568/493 
f 495/572/495 487/573/487 475/571/475 494/570/494 
f 496/574/496 486/575/486 487/573/487 495/572/495 
f 497/576/497 485/577/485 486/575/486 496/574/496 
f 498/578/498 484/579/484 485/577/485 497/576/497 
f 499/580/499 483/581/483 484/579/484 498/578/498 
f 500/582/500 482/583/482 483/581/483 499/580/499 
f 501/584/501 466/534/466 482/583/482 500/582/500 
f 502/585/502 465/533/465 466/534/466 501/584/501 
f 465/533/465 502/585/502 406/473/406 407/474/407 
f 406/473/406 502/585/502 454/522/454 405/472/405 
f 502/585/502 501/584/501 440/508/440 454/522/454 
f 501/584/501 500/582/500 438/586/438 440/508/440 
f 500/582/500 499/580/499 436/587/436 438/586/438 
f 499/580/499 498/578/498 434/588/434 436/587/436 
f 498/578/498 497/576/497 432/589/432 434/588/434 
f 495/572/495 494/570/494 431/590/431 432/589/432 
f 432/589/432 497/576/497 496/574/496 
f 495/572/495 432/589/432 496/574/496 
f 488/559/488 414/558/414 415/591/415 422/592/422 
f 489/560/489 488/559/488 422/592/422 424/593/424 
f 490/562/490 489/560/489 424/593/424 426/594/426 
f 491/564/491 490/562/490 426/594/426 427/595/427 
f 492/566/492 491/564/491 427/595/427 429/596/429 
f 494/570/494 493/568/493 429/596/429 431/590/431 
f 492/566/492 429/596/429 493/568/493 
f 503/597/503 504/598/504 505/599/504 
f 503/597/503 246/302/246 506/600/505 
f 506/600/505 246/302/246 218/272/218 507/601/506 
f 123/133/123 129/139/129 122/132/122 
f 89/93/89 125/135/125 129/139/129 
f 18/18/18 16/16/16 89/93/89 
f 231/285/231 228/282/228 227/281/227 
f 246/302/246 503/597/503 505/599/504 245/299/245 
f 219/273/219 224/278/224 507/601/506 218/272/218 
f 508/602/507 509/603/508 510/604/509 511/605/510 
f 512/606/511 513/607/512 514/608/513 515/609/514 
f 516/610/515 517/611/516 518/612/517 
f 519/613/518 520/614/519 521/615/520 522/616/521 
f 523/617/522 524/618/523 525/619/524 526/620/525 
f 527/621/526 528/622/527 529/623/528 530/624/529 
f 513/607/512 531/625/530 510/604/509 509/603/508 
f 508/602/507 532/626/531 533/627/532 509/603/508 
f 534/628/533 535/629/534 536/630/535 
f 537/631/536 538/632/537 525/619/524 524/618/523 
f 539/633/538 540/634/539 520/614/519 517/611/516 
f 541/635/540 542/636/541 540/634/539 539/633/538 
f 543/637/542 531/625/530 513/607/512 512/606/511 
f 517/611/516 514/608/513 533/627/532 539/633/538 
f 541/635/540 539/633/538 533/627/532 532/626/531 
f 509/603/508 533/627/532 514/608/513 513/607/512 
f 520/614/519 540/634/539 544/638/543 521/615/520 
f 537/631/536 545/639/544 546/640/545 538/632/537 
f 520/614/519 519/613/518 518/612/517 517/611/516 
f 537/631/536 524/618/523 510/604/509 531/625/530 
f 516/610/515 515/609/514 514/608/513 517/611/516 
f 527/621/526 547/641/546 548/642/547 528/622/527 
f 510/604/509 524/618/523 523/617/522 511/605/510 
f 543/637/542 545/639/544 537/631/536 531/625/530 
f 522/616/521 521/615/520 549/643/548 550/644/549 
f 550/644/549 549/643/548 551/645/550 552/646/551 
f 528/622/527 553/647/552 554/648/553 529/623/528 
f 553/647/552 551/645/550 555/649/554 554/648/553 
f 521/615/520 544/638/543 556/650/555 549/643/548 
f 549/643/548 556/650/555 555/649/554 551/645/550 
f 528/622/527 548/642/547 557/651/556 553/647/552 
f 553/647/552 557/651/556 552/646/551 551/645/550 
f 558/652/557 508/602/507 511/605/510 559/653/558 
f 558/652/557 560/654/559 532/626/531 508/602/507 
f 561/655/560 541/635/540 532/626/531 560/654/559 
f 561/655/560 562/656/561 542/636/541 541/635/540 
f 562/656/561 563/657/562 534/628/533 542/636/541 
f 563/657/562 564/658/563 535/629/534 534/628/533 
f 564/658/563 565/659/564 530/624/529 535/629/534 
f 566/660/565 527/621/526 530/624/529 565/659/564 
f 566/660/565 567/661/566 547/641/546 527/621/526 
f 567/661/566 568/662/567 548/642/547 547/641/546 
f 568/662/567 569/663/568 557/651/556 548/642/547 
f 569/663/568 570/664/569 552/646/551 557/651/556 
f 570/664/569 571/665/570 550/644/549 552/646/551 
f 571/665/570 572/666/571 522/616/521 550/644/549 
f 572/666/571 573/667/572 519/613/518 522/616/521 
f 573/667/572 574/668/573 518/612/517 519/613/518 
f 575/669/574 516/610/515 518/612/517 574/668/573 
f 575/669/574 576/670/575 515/609/514 516/610/515 
f 577/671/576 512/606/511 515/609/514 576/670/575 
f 578/672/577 543/637/542 512/606/511 577/671/576 
f 578/672/577 579/673/578 545/639/544 543/637/542 
f 579/673/578 580/674/579 546/640/545 545/639/544 
f 581/675/580 582/676/581 523/617/522 526/620/525 
f 582/676/581 559/653/558 511/605/510 523/617/522 
f 535/629/534 530/624/529 529/623/528 535/677/582 
f 554/648/553 555/649/554 535/629/534 535/677/582 
f 555/649/554 556/650/555 583/678/583 536/630/535 
f 536/630/535 583/678/583 534/628/533 
f 544/638/543 542/636/541 584/679/583 
f 584/679/583 542/636/541 534/628/533 
f 556/650/555 544/638/543 584/679/583 583/678/583 
f 583/678/583 584/679/583 534/628/533 
f 555/649/554 536/630/535 535/629/534 
f 529/623/528 554/648/553 535/677/582 
f 544/638/543 540/634/539 542/636/541 
f 585/602/584 586/605/585 587/604/586 588/603/587 
f 589/606/588 590/609/589 591/608/590 592/607/591 
f 593/610/592 594/612/593 595/611/594 
f 596/613/595 597/616/596 598/615/597 599/614/598 
f 600/617/599 601/620/600 602/619/601 603/618/602 
f 604/621/603 605/624/604 606/623/605 607/622/606 
f 592/607/591 588/603/587 587/604/586 608/625/607 
f 585/602/584 588/603/587 609/627/608 610/626/609 
f 611/628/610 612/630/611 613/629/612 
f 614/631/613 603/618/602 602/619/601 615/632/614 
f 616/633/615 595/611/594 599/614/598 617/634/616 
f 618/635/617 616/633/615 617/634/616 619/636/618 
f 620/637/619 589/606/588 592/607/591 608/625/607 
f 595/611/594 616/633/615 609/627/608 591/608/590 
f 618/635/617 610/626/609 609/627/608 616/633/615 
f 588/603/587 592/607/591 591/608/590 609/627/608 
f 599/614/598 598/615/597 621/638/620 617/634/616 
f 614/631/613 615/632/614 622/640/621 623/639/622 
f 599/614/598 595/611/594 594/612/593 596/613/595 
f 614/631/613 608/625/607 587/604/586 603/618/602 
f 593/610/592 595/611/594 591/608/590 590/609/589 
f 604/621/603 607/622/606 624/642/623 625/641/624 
f 587/604/586 586/605/585 600/617/599 603/618/602 
f 620/637/619 608/625/607 614/631/613 623/639/622 
f 597/616/596 626/644/625 627/643/626 598/615/597 
f 626/644/625 628/646/627 629/645/628 627/643/626 
f 607/622/606 606/623/605 630/648/629 631/647/630 
f 631/647/630 630/648/629 632/649/631 629/645/628 
f 598/615/597 627/643/626 633/650/632 621/638/620 
f 627/643/626 629/645/628 632/649/631 633/650/632 
f 607/622/606 631/647/630 634/651/633 624/642/623 
f 631/647/630 629/645/628 628/646/627 634/651/633 
f 558/652/557 559/653/558 586/605/585 585/602/584 
f 558/652/557 585/602/584 610/626/609 560/654/559 
f 561/655/560 560/654/559 610/626/609 618/635/617 
f 561/655/560 618/635/617 619/636/618 562/656/561 
f 562/656/561 619/636/618 611/628/610 563/657/562 
f 563/657/562 611/628/610 613/629/612 564/658/563 
f 564/658/563 613/629/612 605/624/604 565/659/564 
f 566/660/565 565/659/564 605/624/604 604/621/603 
f 566/660/565 604/621/603 625/641/624 567/661/566 
f 567/661/566 625/641/624 624/642/623 568/662/567 
f 568/662/567 624/642/623 634/651/633 569/663/568 
f 569/663/568 634/651/633 628/646/627 570/664/569 
f 570/664/569 628/646/627 626/644/625 571/665/570 
f 571/665/570 626/644/625 597/616/596 572/666/571 
f 572/666/571 597/616/596 596/613/595 573/667/572 
f 573/667/572 596/613/595 594/612/593 574/668/573 
f 575/669/574 574/668/573 594/612/593 593/610/592 
f 575/669/574 593/610/592 590/609/589 576/670/575 
f 577/671/576 576/670/575 590/609/589 589/606/588 
f 578/672/577 577/671/576 589/606/588 620/637/619 
f 578/672/577 620/637/619 623/639/622 579/673/578 
f 579/673/578 623/639/622 622/640/621 635/674/634 
f 581/675/580 601/620/600 600/617/599 582/676/581 
f 582/676/581 600/617/599 586/605/585 559/653/558 
f 613/629/612 613/677/635 606/623/605 605/624/604 
f 630/648/629 613/677/635 613/629/612 632/649/631 
f 632/649/631 612/630/611 636/678/636 633/650/632 
f 612/630/611 611/628/610 636/678/636 
f 621/638/620 637/679/636 619/636/618 
f 637/679/636 611/628/610 619/636/618 
f 633/650/632 636/678/636 637/679/636 621/638/620 
f 636/678/636 611/628/610 637/679/636 
f 632/649/631 613/629/612 612/630/611 
f 606/623/605 613/677/635 630/648/629 
f 621/638/620 619/636/618 617/634/616 
# 567 polygons - 106 triangles

