# Blender v3.0.0 OBJ File: 'blade_01.blend'
# www.blender.org
mtllib blade_01.mtl
o _guard1_Cube
v -0.850748 -0.619060 0.277694
v -0.935804 0.465483 0.277694
v -1.134594 -0.160714 0.277694
v 0.695230 -0.609610 0.277694
v -0.850748 -0.619060 0.000000
v -0.935804 0.465483 0.000000
v 0.933254 0.465483 0.000000
v 0.933254 -0.053162 0.000000
v -1.134594 -0.160714 0.000000
v 0.695230 -0.609610 0.000000
v 0.933254 -0.442690 0.000000
v 0.775301 0.465483 0.277694
v 0.933254 0.465483 0.119741
v 0.775301 -0.061377 0.277694
v 0.933254 -0.053162 0.119741
v 0.933254 -0.442690 0.119741
v 0.775301 -0.553458 0.277694
v -0.850748 -0.619060 -0.277694
v -0.935804 0.465483 -0.277694
v -1.134594 -0.160714 -0.277694
v 0.695230 -0.609610 -0.277694
v 0.775301 0.465483 -0.277694
v 0.933254 0.465483 -0.119741
v 0.775301 -0.061377 -0.277694
v 0.933254 -0.053162 -0.119741
v 0.933254 -0.442690 -0.119741
v 0.775301 -0.553458 -0.277694
vt 0.903685 0.291579
vt 0.960879 0.308822
vt 0.948275 0.318251
vt 0.903315 0.305384
vt 0.901924 0.327930
vt 0.943511 0.335228
vt 0.939808 0.440291
vt 0.901608 0.455877
vt 0.849980 0.460173
vt 0.832392 0.326716
vt 0.859088 0.339673
vt 0.869868 0.440726
vt 0.858725 0.300518
vt 0.865274 0.312082
vt 0.862635 0.332618
vt 0.903432 0.482911
vt 0.960879 0.453416
vt 0.903315 0.305384
vt 0.948275 0.318251
vt 0.901924 0.327930
vt 0.901608 0.455877
vt 0.939808 0.440291
vt 0.943511 0.335228
vt 0.869868 0.440726
vt 0.859088 0.339673
vt 0.865274 0.312082
vt 0.862635 0.332618
vn 1.0000 0.0000 0.0000
vn 0.0000 0.0000 1.0000
vn 0.0061 -1.0000 0.0000
vn 0.5742 -0.8187 -0.0000
vn -0.8502 -0.5265 0.0000
vn -0.9531 0.3026 0.0000
vn 0.7071 0.0000 0.7071
vn 0.0000 1.0000 -0.0000
vn 0.0000 0.0000 -1.0000
vn 0.7071 0.0000 -0.7071
usemtl None
s off
f 8/1/1 7/2/1 13/3/1 15/4/1
f 14/5/2 12/6/2 2/7/2 3/8/2
f 5/9/3 10/10/3 4/11/3 1/12/3
f 11/13/1 8/1/1 15/4/1 16/14/1
f 4/11/4 10/10/4 11/13/4 16/14/4 17/15/4
f 4/11/2 17/15/2 14/5/2 3/8/2 1/12/2
f 1/12/5 3/8/5 9/16/5 5/9/5
f 3/8/6 2/7/6 6/17/6 9/16/6
f 12/6/7 14/5/7 15/4/7 13/3/7
f 14/5/7 17/15/7 16/14/7 15/4/7
f 7/2/8 6/17/8 2/7/8 12/6/8 13/3/8
f 8/1/1 25/18/1 23/19/1 7/2/1
f 24/20/9 20/21/9 19/22/9 22/23/9
f 5/9/3 18/24/3 21/25/3 10/10/3
f 11/13/1 26/26/1 25/18/1 8/1/1
f 21/25/4 27/27/4 26/26/4 11/13/4 10/10/4
f 21/25/9 18/24/9 20/21/9 24/20/9 27/27/9
f 18/24/5 5/9/5 9/16/5 20/21/5
f 20/21/6 9/16/6 6/17/6 19/22/6
f 22/23/10 23/19/10 25/18/10 24/20/10
f 24/20/10 25/18/10 26/26/10 27/27/10
f 7/2/8 23/19/8 22/23/8 19/22/8 6/17/8
o _blade_Cube.001
v -0.887736 0.448021 0.193013
v -0.883296 1.216086 0.193013
v 0.702040 0.448021 0.000000
v 0.937455 1.065998 0.000000
v -0.901779 1.843973 0.193013
v 2.157463 1.617156 0.000000
v -1.045448 8.775161 0.193013
v 2.386436 9.515636 0.000000
v -1.366753 9.592930 0.193013
v 1.555223 10.331842 0.000000
v -1.906603 10.192410 0.193013
v -2.535500 10.564800 0.000000
v 0.880941 10.749804 0.000000
v -0.690589 0.448021 0.193013
v -0.669077 1.042482 0.193013
v -0.641805 1.832632 0.193013
v -0.641805 9.498962 0.193013
v -0.970985 10.315540 0.193013
v -1.806005 10.622877 0.133746
v -2.101929 10.831842 0.000000
v 0.147322 0.448021 0.193013
v -0.143015 11.088820 0.000000
v 0.199947 1.042482 0.193013
v 1.153464 1.832632 0.193013
v -0.892548 7.803244 0.193012
v 2.165063 8.744936 0.000000
v -0.641805 8.529058 0.193013
v 1.120387 8.907085 0.193013
v 2.052637 5.498751 0.000000
v -0.892548 5.408024 0.193012
v -0.551079 5.408024 0.193012
v 1.036276 5.408024 0.193012
v 2.124821 2.504481 0.000000
v -0.641805 2.504481 0.193013
v 1.210168 2.504481 0.193013
v 1.209533 1.366125 0.000000
v -0.658928 1.437557 0.193013
v 0.506593 1.437557 0.193013
v -0.901779 1.843973 0.000000
v 0.200232 9.781149 0.193013
v -0.887736 0.448021 0.000000
v -1.048757 11.091696 0.000000
v 0.194400 8.822029 0.193013
v 0.341831 5.408024 0.193012
v 2.108545 3.179651 0.000000
v 2.118820 2.753417 0.000000
v 2.086247 4.104594 0.000000
v 1.182614 2.964560 0.193013
v 1.109687 4.182244 0.193013
v -0.910259 3.919764 0.193013
v -0.593618 4.046635 0.193013
v 0.211814 4.552719 0.000000
v 0.354942 4.459649 0.000000
v -0.006856 4.401540 0.000000
v -0.232232 4.559642 0.193013
v 0.451489 4.560296 0.193013
v 0.459538 4.203779 0.000000
v 0.606644 4.260279 0.193013
v -0.158061 4.070707 0.193013
v 0.057064 4.099183 0.000000
v 0.235057 4.040978 0.000000
v 0.217557 3.835452 0.193013
v 0.172187 4.788158 0.193013
v -0.892548 5.408024 0.000000
v -1.366753 9.592930 0.000000
v -0.883296 1.216086 0.000000
v -1.045448 8.775161 0.000000
v -0.892548 7.803244 0.000000
v -0.903103 2.861521 0.000000
v -1.906603 10.192410 0.000000
v 0.740016 2.642189 0.193013
v 0.647576 2.626926 0.000000
v 0.570301 2.311686 0.193013
v 0.518482 2.382322 0.000000
v 0.679595 3.070408 0.193013
v -0.194496 2.743249 0.193013
v 0.037541 2.788224 0.000000
v 0.151483 2.218859 0.193013
v 0.187316 2.460066 0.000000
v 0.068283 3.213784 0.193013
v 0.515234 2.960896 0.000000
v 0.189878 3.085126 0.000000
v -0.620268 3.193753 0.193013
v -0.903103 2.861521 0.193013
v 1.127217 3.889548 0.193013
v 2.093951 3.785022 0.000000
v 1.764947 2.971082 0.000000
v -0.601155 3.805425 0.193013
v -0.910259 3.919764 0.000000
v 1.919904 3.963773 0.000000
v 1.764947 2.971082 0.073568
v 1.919904 3.963773 0.035819
v -0.887736 0.448021 -0.193013
v -0.883296 1.216086 -0.193013
v -0.901779 1.843973 -0.193013
v -1.045448 8.775161 -0.193013
v -1.366753 9.592930 -0.193013
v -1.906603 10.192410 -0.193013
v -0.690589 0.448021 -0.193013
v -0.669077 1.042482 -0.193013
v -0.641805 1.832632 -0.193013
v -0.641805 9.498962 -0.193013
v -0.970985 10.315540 -0.193013
v -1.806005 10.622877 -0.133746
v 0.147322 0.448021 -0.193013
v 0.199947 1.042482 -0.193013
v 1.153464 1.832632 -0.193013
v -0.892548 7.803244 -0.193012
v -0.641805 8.529058 -0.193013
v 1.120387 8.907085 -0.193013
v -0.892548 5.408024 -0.193012
v -0.551079 5.408024 -0.193012
v 1.036276 5.408024 -0.193012
v -0.641805 2.504481 -0.193013
v 1.210168 2.504481 -0.193013
v -0.658928 1.437557 -0.193013
v 0.506593 1.437557 -0.193013
v 0.200232 9.781149 -0.193013
v 0.194400 8.822029 -0.193013
v 0.341831 5.408024 -0.193012
v 1.182614 2.964560 -0.193013
v 1.109687 4.182244 -0.193013
v -0.910259 3.919764 -0.193013
v -0.593618 4.046635 -0.193013
v -0.232232 4.559642 -0.193013
v 0.451489 4.560296 -0.193013
v 0.606644 4.260279 -0.193013
v -0.158061 4.070707 -0.193013
v 0.217557 3.835452 -0.193013
v 0.172187 4.788158 -0.193013
v 0.740016 2.642189 -0.193013
v 0.570301 2.311686 -0.193013
v 0.679595 3.070408 -0.193013
v -0.194496 2.743249 -0.193013
v 0.151483 2.218859 -0.193013
v 0.068283 3.213784 -0.193013
v -0.620268 3.193753 -0.193013
v -0.903103 2.861521 -0.193013
v 1.127217 3.889548 -0.193013
v -0.601155 3.805425 -0.193013
v 1.764947 2.971082 -0.073568
v 1.919904 3.963773 -0.035819
vt 0.055964 0.091212
vt 0.087845 0.135108
vt 0.080501 0.159274
vt 0.041071 0.101235
vt 0.197371 0.104558
vt 0.246924 0.060447
vt 0.329671 0.033143
vt 0.266252 0.101674
vt 0.371996 0.681233
vt 0.388495 0.673668
vt 0.421765 0.762083
vt 0.404203 0.767060
vt 0.065831 0.169024
vt 0.111528 0.207216
vt 0.097029 0.216750
vt 0.600983 0.668336
vt 0.677440 0.607115
vt 0.729221 0.657552
vt 0.437562 0.846534
vt 0.419513 0.848011
vt 0.434653 0.922223
vt 0.417716 0.921324
vt 0.570505 0.780120
vt 0.702191 0.758637
vt 0.508080 0.879784
vt 0.465468 0.946990
vt 0.412900 0.985210
vt 0.442677 0.722165
vt 0.490714 0.800431
vt 0.108872 0.164439
vt 0.130279 0.193278
vt 0.162459 0.017868
vt 0.211548 0.051951
vt 0.153765 0.090335
vt 0.119028 0.048445
vt 0.523735 0.705415
vt 0.378386 0.423228
vt 0.434710 0.391531
vt 0.280499 0.478300
vt 0.307449 0.463056
vt 0.523902 0.352437
vt 0.265173 0.487043
vt 0.305360 0.148496
vt 0.372183 0.098907
vt 0.327389 0.184864
vt 0.162127 0.283228
vt 0.163880 0.243613
vt 0.199708 0.294353
vt 0.147648 0.292602
vt 0.346843 0.316842
vt 0.382438 0.285435
vt 0.349620 0.349659
vt 0.670394 0.822219
vt 0.609908 0.896402
vt 0.457062 0.979674
vt 0.544262 0.942126
vt 0.292873 0.219844
vt 0.371370 0.263865
vt 0.296403 0.303353
vt 0.254577 0.260906
vt 0.209207 0.238937
vt 0.209253 0.181828
vt 0.293886 0.381019
vt 0.241988 0.357655
vt 0.276452 0.339681
vt 0.336613 0.380492
vt 0.377529 0.153482
vt 0.419507 0.154156
vt 0.446700 0.226486
vt 0.464972 0.234556
vt 0.212251 0.362670
vt 0.197543 0.371650
vt 0.331193 0.345418
vt 0.327406 0.328151
vt 0.300020 0.333992
vt 0.306579 0.355973
vt 0.309484 0.324101
vt 0.326231 0.356575
vt 0.026578 0.111072
vt 0.246367 0.166473
vt 0.276448 0.182673
vt 0.233104 0.227554
vt 0.255096 0.237631
vt 0.228788 0.201402
vt 0.268774 0.217164
vt 0.261474 0.192430
vt 0.244835 0.184270
vt 0.230298 0.339747
vt 0.448155 0.203557
vt 0.383285 0.110963
vt 0.385108 0.147036
vt 0.449887 0.224585
vt 0.055964 0.091212
vt 0.041071 0.101235
vt 0.080501 0.159274
vt 0.087845 0.135108
vt 0.197371 0.104558
vt 0.266252 0.101674
vt 0.421765 0.762083
vt 0.388495 0.673668
vt 0.111528 0.207216
vt 0.600983 0.668336
vt 0.437562 0.846534
vt 0.434653 0.922223
vt 0.570505 0.780120
vt 0.465468 0.946990
vt 0.508080 0.879784
vt 0.490714 0.800431
vt 0.442677 0.722165
vt 0.130279 0.193278
vt 0.108872 0.164439
vt 0.119028 0.048445
vt 0.153765 0.090335
vt 0.523735 0.705415
vt 0.378386 0.423228
vt 0.434710 0.391531
vt 0.280499 0.478300
vt 0.307449 0.463056
vt 0.305360 0.148496
vt 0.327389 0.184864
vt 0.162127 0.283228
vt 0.199708 0.294353
vt 0.163880 0.243613
vt 0.346843 0.316842
vt 0.349620 0.349659
vt 0.382438 0.285435
vt 0.292873 0.219844
vt 0.254577 0.260906
vt 0.296403 0.303353
vt 0.371370 0.263865
vt 0.209207 0.238937
vt 0.209253 0.181828
vt 0.293886 0.381019
vt 0.276452 0.339681
vt 0.241988 0.357655
vt 0.336613 0.380492
vt 0.377529 0.153482
vt 0.446700 0.226486
vt 0.212251 0.362670
vt 0.246367 0.166473
vt 0.276448 0.182673
vt 0.230298 0.339747
vn 0.0000 0.0000 1.0000
vn 0.2229 -0.2454 0.9434
vn 0.1739 -0.3227 0.9304
vn 0.1857 -0.1034 0.9771
vn 0.1707 -0.2162 0.9613
vn -0.9970 -0.0779 0.0000
vn -0.9650 -0.2621 0.0000
vn -0.9999 -0.0118 0.0000
vn -0.9999 -0.0154 0.0000
vn 0.1420 0.0410 0.9890
vn 0.1790 -0.0277 0.9835
vn 0.1307 0.0408 0.9906
vn -0.8506 -0.5259 0.0000
vn -0.6441 -0.7650 0.0000
vn -0.6336 -0.7737 0.0000
vn 0.0797 0.1388 0.9871
vn 0.0951 0.1144 0.9889
vn -0.0025 0.0192 0.9998
vn -0.0033 0.0252 0.9997
vn -0.0948 0.1134 0.9890
vn -0.0745 0.0998 0.9922
vn -0.1911 0.1776 0.9654
vn 0.2867 -0.0681 0.9556
vn 0.2611 -0.1592 0.9521
vn 0.2735 -0.1164 0.9548
vn 0.1869 0.0014 0.9824
vn 0.1850 -0.0007 0.9827
vn -1.0000 0.0059 0.0000
vn 0.2017 0.0046 0.9794
vn 0.2001 0.0008 0.9798
vn 0.2032 0.0108 0.9791
vn -1.0000 -0.0040 0.0000
vn 0.0303 0.2129 0.9766
vn 0.0760 0.1481 0.9860
vn 0.0498 0.1842 0.9816
vn -0.1954 0.3172 0.9280
vn -0.0929 0.3582 0.9290
vn -0.1671 0.3527 0.9207
vn -0.0035 0.2648 0.9643
vn 0.2018 0.0070 0.9794
vn 0.1991 0.0090 0.9799
vn 0.1965 0.0067 0.9805
vn 0.1946 0.0092 0.9808
vn 0.1944 0.0081 0.9809
vn 0.1923 0.0101 0.9813
vn -1.0000 0.0026 0.0000
vn -0.6176 -0.4869 0.6176
vn -0.7268 -0.3396 0.5970
vn -0.6066 -0.4996 0.6184
vn 0.6738 0.1176 0.7295
vn -0.6159 0.6431 0.4551
vn -0.4764 -0.6271 0.6162
vn 0.3625 0.6839 0.6331
vn 0.3286 -0.5393 0.7754
vn -1.0000 0.0058 0.0000
vn 0.6509 -0.3521 0.6726
vn 0.6197 0.3604 0.6972
vn -0.7852 -0.1986 0.5865
vn -0.0156 0.7775 0.6287
vn -0.2331 -0.8159 0.5292
vn -0.8245 0.4284 0.3696
vn 0.1957 0.0046 0.9807
vn 0.2023 0.0016 0.9793
vn -0.5095 -0.8605 0.0000
vn 0.5239 0.8518 0.0000
vn 0.5189 -0.8548 0.0000
vn 0.7165 0.6976 0.0000
vn 0.6461 -0.7632 0.0000
vn 0.0000 0.0000 -1.0000
vn 0.2229 -0.2454 -0.9434
vn 0.1707 -0.2162 -0.9613
vn 0.1857 -0.1034 -0.9771
vn 0.1739 -0.3227 -0.9304
vn 0.1420 0.0410 -0.9890
vn 0.1307 0.0408 -0.9906
vn 0.1790 -0.0277 -0.9835
vn 0.0797 0.1388 -0.9871
vn 0.0951 0.1144 -0.9889
vn -0.0025 0.0192 -0.9998
vn -0.0745 0.0998 -0.9922
vn -0.0948 0.1134 -0.9890
vn -0.0033 0.0252 -0.9997
vn -0.1911 0.1776 -0.9654
vn 0.2867 -0.0681 -0.9556
vn 0.2735 -0.1164 -0.9548
vn 0.2611 -0.1592 -0.9521
vn 0.1869 0.0014 -0.9824
vn 0.1850 -0.0007 -0.9827
vn 0.2017 0.0046 -0.9794
vn 0.2032 0.0108 -0.9791
vn 0.2001 0.0008 -0.9798
vn 0.0303 0.2129 -0.9766
vn 0.0498 0.1842 -0.9816
vn 0.0760 0.1481 -0.9860
vn -0.1954 0.3172 -0.9280
vn -0.1671 0.3527 -0.9207
vn -0.0929 0.3582 -0.9290
vn -0.0035 0.2648 -0.9643
vn 0.1965 0.0067 -0.9805
vn 0.1991 0.0090 -0.9799
vn 0.2018 0.0070 -0.9794
vn 0.1946 0.0092 -0.9808
vn 0.1923 0.0101 -0.9813
vn 0.1944 0.0081 -0.9809
vn -0.6176 -0.4869 -0.6176
vn -0.6066 -0.4996 -0.6184
vn -0.7268 -0.3396 -0.5970
vn 0.6738 0.1176 -0.7295
vn -0.6159 0.6431 -0.4551
vn -0.4764 -0.6271 -0.6162
vn 0.3625 0.6839 -0.6331
vn 0.3286 -0.5393 -0.7754
vn 0.6509 -0.3521 -0.6726
vn 0.6197 0.3604 -0.6972
vn -0.7852 -0.1986 -0.5865
vn -0.0156 0.7775 -0.6287
vn -0.2331 -0.8159 -0.5292
vn -0.8245 0.4284 -0.3696
vn 0.1957 0.0046 -0.9807
vn 0.2023 0.0016 -0.9793
usemtl None
s 1
f 41/28/11 42/29/11 29/30/11 28/31/11
f 65/32/12 63/33/13 33/34/14 51/35/15
f 95/36/16 52/37/16 34/38/17 94/39/17
f 93/40/18 29/30/18 32/41/19 66/42/19
f 55/43/20 53/44/21 35/45/22
f 94/39/17 34/38/17 36/46/23 92/47/23
f 92/47/23 36/46/23 38/48/24 97/49/25
f 67/50/26 55/43/20 35/45/22 37/51/27
f 36/46/28 45/52/29 46/53/30 38/48/31
f 38/48/31 46/53/30 39/54/32
f 52/37/11 54/55/11 44/56/11 34/38/11
f 34/38/11 44/56/11 45/52/29 36/46/28
f 29/30/11 64/57/11 43/58/11 32/41/11
f 30/59/33 31/60/34 50/61/35 48/62/33
f 70/63/11 55/43/11 67/50/11
f 71/64/11 59/65/11 55/43/11 70/63/11
f 57/66/11 58/67/11 54/55/11 52/37/11
f 59/65/36 56/68/37 53/44/21 55/43/20
f 91/69/38 57/66/38 52/37/16 95/36/16
f 62/70/39 60/71/40 75/72/41
f 111/73/11 61/74/11 110/75/11
f 32/41/11 43/58/11 61/74/11 111/73/11
f 51/35/15 33/34/14 60/71/40 62/70/39
f 66/42/19 32/41/19 111/73/42 96/76/42
f 48/62/11 50/61/11 42/29/11 41/28/11
f 29/30/11 42/29/11 64/57/11
f 42/29/11 50/61/11 65/32/11 64/57/11
f 50/61/35 31/60/34 63/33/13 65/32/12
f 85/77/11 76/78/11 59/65/11 83/79/11
f 58/67/11 71/64/11 70/63/11 54/55/11
f 44/56/11 67/50/11 45/52/29
f 54/55/11 70/63/11 67/50/11 44/56/11
f 45/52/43 67/50/26 40/80/44 49/81/45
f 39/54/46 46/53/47 47/82/48
f 46/53/47 69/83/49 47/82/48
f 49/81/45 69/83/49 46/53/47 45/52/43
f 40/80/44 67/50/26 37/51/27
f 102/84/11 75/72/11 112/85/11 89/86/11 107/87/11
f 103/88/11 61/74/11 43/58/11 105/89/11
f 82/90/11 58/67/11 78/91/11 86/92/11
f 90/93/11 71/64/11 58/67/11 82/90/11
f 75/72/41 118/94/50 72/95/51 112/85/52
f 76/78/53 119/96/54 74/97/55 59/65/36
f 83/79/11 59/65/11 71/64/11 90/93/11
f 77/98/11 78/91/11 58/67/11 57/66/11
f 116/99/56 77/98/56 57/66/38 91/69/38
f 80/100/57 84/101/58 85/77/58 83/79/59
f 82/90/60 86/92/60 87/102/60 81/103/60
f 84/101/61 88/104/61 89/86/61 85/77/61
f 83/79/59 90/93/62 79/105/62 80/100/57
f 86/92/63 89/86/63 88/104/63 87/102/63
f 81/103/64 79/105/64 90/93/64 82/90/64
f 64/57/11 65/32/11 51/35/11 43/58/11
f 28/31/65 29/30/18 93/40/18 68/106/65
f 105/89/11 43/58/11 51/35/11 100/107/11
f 100/107/11 51/35/11 62/70/11 98/108/11
f 104/109/66 109/110/66 107/87/66 103/88/66
f 103/88/67 105/89/67 106/111/67 104/109/67
f 98/108/68 102/84/68 108/112/68 99/113/68
f 101/114/69 106/111/69 105/89/69 100/107/69
f 102/84/70 107/87/70 109/110/70 108/112/70
f 99/113/71 101/114/71 100/107/71 98/108/71
f 98/108/11 62/70/11 75/72/11 102/84/11
f 107/87/11 110/75/11 61/74/11 103/88/11
f 110/75/11 107/87/11 89/86/11 115/115/11
f 96/76/42 111/73/42 77/98/56 116/99/56
f 112/85/52 113/116/72 119/96/54 76/78/53
f 89/86/11 112/85/11 76/78/11 85/77/11
f 59/65/36 74/97/55 56/68/37
f 112/85/52 72/95/51 113/116/72
f 75/72/41 60/71/40 73/117/73 118/94/50
f 39/54/74 97/49/25 38/48/24
f 110/75/11 115/115/11 77/98/11 111/73/11
f 115/115/11 89/86/11 86/92/11 78/91/11
f 77/98/11 115/115/11 78/91/11
f 73/117/75 114/118/75 118/94/75
f 72/95/76 118/94/76 114/118/76
f 113/116/77 117/119/77 119/96/77
f 74/97/78 119/96/78 117/119/78
f 126/120/79 120/121/79 121/122/79 127/123/79
f 144/124/80 134/125/81 33/34/82 63/33/83
f 95/36/16 94/39/17 123/126/17 135/127/16
f 93/40/18 66/42/19 122/128/19 121/122/18
f 137/129/84 35/45/85 53/44/86
f 94/39/17 92/47/23 124/130/23 123/126/17
f 92/47/23 97/49/25 125/131/24 124/130/23
f 145/132/87 37/51/88 35/45/85 137/129/84
f 124/130/89 125/131/90 131/133/91 130/134/92
f 125/131/90 39/54/93 131/133/91
f 135/127/79 123/126/79 129/135/79 136/136/79
f 123/126/79 124/130/89 130/134/92 129/135/79
f 121/122/79 122/128/79 128/137/79 143/138/79
f 30/59/94 132/139/94 133/140/95 31/60/96
f 146/141/79 145/132/79 137/129/79
f 147/142/79 146/141/79 137/129/79 140/143/79
f 138/144/79 135/127/79 136/136/79 139/145/79
f 140/143/97 137/129/84 53/44/86 56/68/98
f 91/69/38 95/36/16 135/127/16 138/144/38
f 142/146/99 148/147/100 60/71/101
f 165/148/79 164/149/79 141/150/79
f 122/128/79 165/148/79 141/150/79 128/137/79
f 134/125/81 142/146/99 60/71/101 33/34/82
f 66/42/19 96/76/42 165/148/42 122/128/19
f 132/139/79 126/120/79 127/123/79 133/140/79
f 121/122/79 143/138/79 127/123/79
f 127/123/79 143/138/79 144/124/79 133/140/79
f 133/140/95 144/124/80 63/33/83 31/60/96
f 154/151/79 153/152/79 140/143/79 149/153/79
f 139/145/79 136/136/79 146/141/79 147/142/79
f 129/135/79 130/134/92 145/132/79
f 136/136/79 129/135/79 145/132/79 146/141/79
f 130/134/102 49/81/103 40/80/104 145/132/87
f 39/54/105 47/82/106 131/133/107
f 131/133/107 47/82/106 69/83/108
f 49/81/103 130/134/102 131/133/107 69/83/108
f 40/80/104 37/51/88 145/132/87
f 160/154/79 163/155/79 156/156/79 166/157/79 148/147/79
f 161/158/79 162/159/79 128/137/79 141/150/79
f 152/160/79 155/161/79 151/162/79 139/145/79
f 157/163/79 152/160/79 139/145/79 147/142/79
f 148/147/100 166/157/109 72/95/110 168/164/111
f 149/153/112 140/143/97 74/97/113 169/165/114
f 153/152/79 157/163/79 147/142/79 140/143/79
f 150/166/79 138/144/79 139/145/79 151/162/79
f 116/99/56 91/69/38 138/144/38 150/166/56
f 80/100/115 153/152/116 154/151/117 84/101/117
f 152/160/118 81/103/118 87/102/118 155/161/118
f 84/101/119 154/151/119 156/156/119 88/104/119
f 153/152/116 80/100/115 79/105/120 157/163/120
f 155/161/121 87/102/121 88/104/121 156/156/121
f 81/103/122 152/160/122 157/163/122 79/105/122
f 143/138/79 128/137/79 134/125/79 144/124/79
f 120/121/65 68/106/65 93/40/18 121/122/18
f 162/159/79 159/167/79 134/125/79 128/137/79
f 159/167/79 158/168/79 142/146/79 134/125/79
f 104/109/123 161/158/123 163/155/123 109/110/123
f 161/158/124 104/109/124 106/111/124 162/159/124
f 158/168/125 99/113/125 108/112/125 160/154/125
f 101/114/126 159/167/126 162/159/126 106/111/126
f 160/154/127 108/112/127 109/110/127 163/155/127
f 99/113/128 158/168/128 159/167/128 101/114/128
f 158/168/79 160/154/79 148/147/79 142/146/79
f 163/155/79 161/158/79 141/150/79 164/149/79
f 164/149/79 167/169/79 156/156/79 163/155/79
f 96/76/42 116/99/56 150/166/56 165/148/42
f 166/157/109 149/153/112 169/165/114 113/116/129
f 156/156/79 154/151/79 149/153/79 166/157/79
f 140/143/97 56/68/98 74/97/113
f 166/157/109 113/116/129 72/95/110
f 148/147/100 168/164/111 73/117/130 60/71/101
f 39/54/74 125/131/24 97/49/25
f 164/149/79 165/148/79 150/166/79 167/169/79
f 167/169/79 151/162/79 155/161/79 156/156/79
f 150/166/79 151/162/79 167/169/79
f 73/117/75 168/164/75 114/118/75
f 72/95/76 114/118/76 168/164/76
f 113/116/77 169/165/77 117/119/77
f 74/97/78 117/119/78 169/165/78
o _handle_Cube.002
v -0.698521 -1.735967 0.286763
v 0.481724 -1.735967 0.286763
v -0.624128 -2.783858 0.286763
v 0.474081 -2.569385 0.286763
v -0.416932 -3.711234 0.286763
v 0.638947 -3.496761 0.286763
v -0.096012 -4.452955 0.286763
v 0.896003 -4.146118 0.286763
v 0.248840 -5.032440 0.286763
v 0.963082 -4.637321 0.286763
v -0.326586 -1.735967 0.286763
v 0.131268 -1.735967 0.286763
v -0.279538 -2.712367 0.286763
v 0.150970 -2.640876 0.286763
v -0.086452 -3.639743 0.286763
v 0.329946 -3.568252 0.286763
v 0.213271 -4.352648 0.286763
v 0.608109 -4.244453 0.286763
v 0.563303 -5.167958 0.286763
v 0.855978 -5.003230 0.286763
v -0.784439 -1.735967 -0.000000
v 0.685711 -1.735967 -0.000000
v -0.710046 -2.783858 -0.000000
v 0.696298 -2.569385 -0.000000
v -0.502851 -3.711234 -0.000000
v 0.842934 -3.496761 -0.000000
v -0.181567 -4.460842 -0.000000
v 1.039879 -4.127392 -0.000000
v 0.191611 -5.055115 -0.000000
v 1.093899 -4.614189 -0.000000
v 0.572702 -5.269908 -0.000000
v 0.865376 -5.105180 -0.000000
v -0.644500 -0.579985 0.181553
v -0.689406 -0.714407 0.286763
v 0.514939 -0.579985 0.181553
v 0.543311 -0.714392 0.286763
v 0.188787 -0.579985 0.181553
v 0.175364 -0.714399 0.286763
v -0.299980 -0.714404 0.286763
v -0.325408 -0.579985 0.181553
v -0.775324 -0.714408 -0.000000
v -0.698896 -0.579985 -0.000000
v 0.719953 -0.714387 -0.000000
v 0.644086 -0.579985 -0.000000
v -0.698521 -1.735967 -0.286763
v 0.481724 -1.735967 -0.286763
v -0.624128 -2.783858 -0.286763
v 0.474081 -2.569385 -0.286763
v -0.416932 -3.711234 -0.286763
v 0.638947 -3.496761 -0.286763
v -0.096012 -4.452955 -0.286763
v 0.896003 -4.146118 -0.286763
v 0.248840 -5.032440 -0.286763
v 0.963082 -4.637321 -0.286763
v -0.326586 -1.735967 -0.286763
v 0.131268 -1.735967 -0.286763
v -0.279538 -2.712367 -0.286763
v 0.150970 -2.640876 -0.286763
v -0.086452 -3.639743 -0.286763
v 0.329946 -3.568252 -0.286763
v 0.213271 -4.352648 -0.286763
v 0.608109 -4.244453 -0.286763
v 0.563303 -5.167958 -0.286763
v 0.855978 -5.003230 -0.286763
v -0.644500 -0.579985 -0.181553
v -0.689406 -0.714407 -0.286763
v 0.514939 -0.579985 -0.181553
v 0.543311 -0.714392 -0.286763
v 0.188787 -0.579985 -0.181553
v 0.175364 -0.714399 -0.286763
v -0.299980 -0.714404 -0.286763
v -0.325408 -0.579985 -0.181553
vt 0.722764 0.336265
vt 0.730470 0.422996
vt 0.699837 0.427317
vt 0.691280 0.338033
vt 0.650400 0.341113
vt 0.616000 0.344232
vt 0.614039 0.249385
vt 0.646258 0.252524
vt 0.751174 0.256189
vt 0.717007 0.258401
vt 0.721018 0.169694
vt 0.754283 0.167404
vt 0.756299 0.334729
vt 0.653435 0.166907
vt 0.623079 0.164321
vt 0.642659 0.095869
vt 0.670652 0.101686
vt 0.730667 0.107578
vt 0.759249 0.105245
vt 0.718647 0.020594
vt 0.751751 0.059580
vt 0.724616 0.068392
vt 0.710094 0.045598
vt 0.667492 0.049472
vt 0.688211 0.037526
vt 0.704849 0.105059
vt 0.648480 0.031018
vt 0.686683 0.012543
vt 0.686414 0.254916
vt 0.691717 0.167928
vt 0.759249 0.427592
vt 0.658870 0.429477
vt 0.616478 0.088270
vt 0.595643 0.161541
vt 0.586521 0.249542
vt 0.589537 0.346649
vt 0.627174 0.427361
vt 0.753192 0.440821
vt 0.732395 0.437881
vt 0.656319 0.444485
vt 0.627103 0.442519
vt 0.702625 0.442349
vt 0.609779 0.449124
vt 0.602440 0.435897
vt 0.722764 0.336265
vt 0.691280 0.338033
vt 0.699837 0.427317
vt 0.730470 0.422996
vt 0.650400 0.341113
vt 0.646258 0.252524
vt 0.614039 0.249385
vt 0.616000 0.344232
vt 0.721018 0.169694
vt 0.717007 0.258401
vt 0.653435 0.166907
vt 0.670652 0.101686
vt 0.642659 0.095869
vt 0.623079 0.164321
vt 0.730667 0.107578
vt 0.710094 0.045598
vt 0.724616 0.068392
vt 0.688211 0.037526
vt 0.667492 0.049472
vt 0.704849 0.105059
vt 0.691717 0.167928
vt 0.686414 0.254916
vt 0.658870 0.429477
vt 0.627174 0.427361
vt 0.732395 0.437881
vt 0.656319 0.444485
vt 0.627103 0.442519
vt 0.702625 0.442349
vn -0.0000 0.0000 1.0000
vn 0.8007 0.0698 0.5950
vn 0.8009 0.0654 0.5952
vn 0.8071 0.2039 0.5540
vn 0.8089 0.2185 0.5458
vn 0.8181 -0.0189 0.5747
vn 0.8179 -0.0186 0.5751
vn 0.8570 0.2039 0.4733
vn 0.8592 0.1988 0.4714
vn 0.8972 -0.3514 0.2676
vn 0.9231 -0.1021 0.3708
vn 0.9235 -0.1389 0.3575
vn -0.4498 -0.8931 -0.0000
vn -0.4382 -0.8701 0.2256
vn 0.4663 -0.8286 0.3099
vn 0.8326 -0.0390 0.5525
vn -0.8573 -0.4495 0.2510
vn -0.8901 -0.4557 0.0000
vn -0.8530 -0.5218 0.0000
vn -0.8295 -0.5074 0.2335
vn -0.9128 -0.3010 0.2760
vn -0.9158 -0.2914 0.2766
vn -0.9484 -0.1408 0.2842
vn -0.9489 -0.1370 0.2843
vn -0.9575 -0.0299 0.2869
vn -0.9575 -0.0295 0.2869
vn 0.7372 0.4742 0.4813
vn -0.0000 0.6164 0.7875
vn -0.0000 0.6163 0.7875
vn -0.8412 0.4783 0.2520
vn -0.8693 0.4943 0.0000
vn -0.9685 0.2491 -0.0000
vn -0.9380 0.2027 0.2811
vn 0.0000 0.0000 -1.0000
vn 0.8007 0.0698 -0.5950
vn 0.8089 0.2185 -0.5458
vn 0.8071 0.2039 -0.5540
vn 0.8009 0.0654 -0.5952
vn 0.8181 -0.0189 -0.5747
vn 0.8179 -0.0186 -0.5751
vn 0.8592 0.1988 -0.4714
vn 0.8570 0.2039 -0.4733
vn 0.8972 -0.3514 -0.2676
vn 0.9235 -0.1389 -0.3575
vn 0.9231 -0.1021 -0.3708
vn -0.4382 -0.8701 -0.2256
vn 0.4663 -0.8286 -0.3099
vn 0.8326 -0.0390 -0.5525
vn -0.8573 -0.4495 -0.2510
vn -0.8295 -0.5074 -0.2335
vn -0.9128 -0.3010 -0.2760
vn -0.9158 -0.2914 -0.2766
vn -0.9484 -0.1408 -0.2842
vn -0.9489 -0.1370 -0.2843
vn -0.9575 -0.0299 -0.2869
vn -0.9575 -0.0295 -0.2869
vn 0.7372 0.4742 -0.4813
vn -0.0000 0.6164 -0.7875
vn -0.0000 0.6163 -0.7875
vn -0.8412 0.4783 -0.2520
vn -0.9380 0.2027 -0.2811
usemtl None
s 1
f 171/170/131 205/171/131 207/172/131 181/173/131
f 180/174/131 170/175/131 172/176/131 182/177/131
f 193/178/132 173/179/133 175/180/134 195/181/135
f 191/182/136 171/170/137 173/179/133 193/178/132
f 184/183/131 174/184/131 176/185/131 186/186/131
f 182/177/131 172/176/131 174/184/131 184/183/131
f 195/181/135 175/180/134 177/187/138 197/188/139
f 201/189/140 199/190/141 179/191/142 189/192/140
f 197/188/139 177/187/138 179/191/142 199/190/141
f 186/186/131 176/185/131 178/193/131 188/194/131
f 177/187/131 187/195/131 189/192/131 179/191/131
f 187/195/131 186/186/131 188/194/131 189/192/131
f 198/196/143 200/197/143 188/194/144 178/193/144
f 200/197/145 201/189/145 189/192/145 188/194/145
f 173/179/131 183/198/131 185/199/131 175/180/131
f 183/198/131 182/177/131 184/183/131 185/199/131
f 175/180/131 185/199/131 187/195/131 177/187/131
f 185/199/131 184/183/131 186/186/131 187/195/131
f 191/182/136 212/200/146 205/171/146 171/170/137
f 171/170/131 181/173/131 183/198/131 173/179/131
f 181/173/131 180/174/131 182/177/131 183/198/131
f 181/173/131 207/172/131 208/201/131 180/174/131
f 176/185/147 196/202/148 198/196/149 178/193/150
f 174/184/151 194/203/152 196/202/148 176/185/147
f 172/176/153 192/204/154 194/203/152 174/184/151
f 170/175/155 190/205/156 192/204/154 172/176/153
f 180/174/131 208/201/131 203/206/131 170/175/131
f 213/207/157 204/208/157 205/171/157 212/200/157
f 209/209/158 202/210/159 203/206/159 208/201/158
f 204/208/158 206/211/158 207/172/158 205/171/158
f 206/211/158 209/209/158 208/201/158 207/172/158
f 202/210/160 211/212/161 210/213/162 203/206/163
f 170/175/155 203/206/163 210/213/162 190/205/156
f 215/214/164 225/215/164 239/216/164 237/217/164
f 224/218/164 226/219/164 216/220/164 214/221/164
f 193/178/165 195/181/166 219/222/167 217/223/168
f 191/182/169 193/178/165 217/223/168 215/214/170
f 228/224/164 230/225/164 220/226/164 218/227/164
f 226/219/164 228/224/164 218/227/164 216/220/164
f 195/181/166 197/188/171 221/228/172 219/222/167
f 201/189/173 233/229/173 223/230/174 199/190/175
f 197/188/171 199/190/175 223/230/174 221/228/172
f 230/225/164 232/231/164 222/232/164 220/226/164
f 221/228/164 223/230/164 233/229/164 231/233/164
f 231/233/164 233/229/164 232/231/164 230/225/164
f 198/196/143 222/232/176 232/231/176 200/197/143
f 200/197/177 232/231/177 233/229/177 201/189/177
f 217/223/164 219/222/164 229/234/164 227/235/164
f 227/235/164 229/234/164 228/224/164 226/219/164
f 219/222/164 221/228/164 231/233/164 229/234/164
f 229/234/164 231/233/164 230/225/164 228/224/164
f 191/182/169 215/214/170 237/217/178 212/200/178
f 215/214/164 217/223/164 227/235/164 225/215/164
f 225/215/164 227/235/164 226/219/164 224/218/164
f 225/215/164 224/218/164 240/236/164 239/216/164
f 220/226/179 222/232/180 198/196/149 196/202/148
f 218/227/181 220/226/179 196/202/148 194/203/182
f 216/220/183 218/227/181 194/203/182 192/204/184
f 214/221/185 216/220/183 192/204/184 190/205/186
f 224/218/164 214/221/164 235/237/164 240/236/164
f 213/207/187 212/200/187 237/217/187 236/238/187
f 241/239/188 240/236/188 235/237/189 234/240/189
f 236/238/188 237/217/188 239/216/188 238/241/188
f 238/241/188 239/216/188 240/236/188 241/239/188
f 234/240/190 235/237/191 210/213/162 211/212/161
f 214/221/185 190/205/186 210/213/162 235/237/191
o _circle_Torus
v 2.148578 -5.434161 -0.000001
v 1.482113 -5.559531 0.256685
v 1.292304 -5.572427 -0.005534
v 2.013097 -4.799213 -0.000001
v 1.422837 -5.281726 0.256685
v 1.258009 -5.411698 -0.005534
v -0.142461 -5.882271 -0.000001
v 0.479729 -5.755590 0.256685
v 0.281811 -6.372118 -0.000001
v 0.665357 -5.969909 0.256685
v 0.819758 -5.809857 -0.005534
v 0.881189 -6.585607 -0.000001
v 0.927600 -6.063316 0.256685
v 0.971482 -5.863899 -0.005534
v 1.495071 -6.465536 -0.000001
v 1.196188 -6.010782 0.256685
v 1.126878 -5.833505 -0.005534
v 1.958967 -6.044078 -0.000001
v 1.399154 -5.826384 0.256685
v 0.504555 -5.242961 0.256685
v 0.974808 -5.007835 0.256685
v 0.996062 -5.265925 -0.005534
v 0.730516 -5.398697 -0.005534
v 0.899946 -4.230887 -0.000001
v -0.026676 -4.696291 -0.000001
v 1.292304 -5.572427 0.005532
v 1.258009 -5.411698 0.005532
v 0.712360 -5.685859 0.005532
v 0.819758 -5.809857 0.005532
v 1.244307 -5.726819 0.005532
v 0.996062 -5.265925 0.005532
v 0.730516 -5.398697 0.005532
v 1.482113 -5.559531 -0.256687
v 1.422837 -5.281726 -0.256687
v 0.479729 -5.755590 -0.256687
v 0.665357 -5.969909 -0.256687
v 0.927600 -6.063316 -0.256687
v 0.971482 -5.863899 0.005532
v 1.196188 -6.010782 -0.256687
v 1.126878 -5.833505 0.005532
v 1.399154 -5.826384 -0.256687
v 0.504555 -5.242961 -0.256687
v 0.974808 -5.007835 -0.256687
v 0.712360 -5.685859 -0.005534
v 1.244307 -5.726819 -0.005534
vt 0.154674 0.827148
vt 0.105676 0.792201
vt 0.168954 0.756929
vt 0.189829 0.771655
vt 0.191235 0.743542
vt 0.199930 0.749524
vt 0.270387 0.644568
vt 0.299980 0.696102
vt 0.249546 0.717292
vt 0.237343 0.695370
vt 0.225206 0.726533
vt 0.220163 0.716719
vt 0.299980 0.755729
vt 0.249189 0.741788
vt 0.224749 0.737199
vt 0.269119 0.806674
vt 0.236693 0.762514
vt 0.219139 0.745830
vt 0.215061 0.833204
vt 0.214798 0.773785
vt 0.210053 0.750211
vt 0.201883 0.710221
vt 0.195539 0.681841
vt 0.167138 0.616829
vt 0.187427 0.724194
vt 0.161526 0.711684
vt 0.096659 0.678237
vt 0.189829 0.771655
vt 0.168954 0.756929
vt 0.199930 0.749524
vt 0.191235 0.743542
vt 0.237343 0.695370
vt 0.249546 0.717292
vt 0.220163 0.716719
vt 0.225206 0.726533
vt 0.249189 0.741788
vt 0.224749 0.737199
vt 0.236693 0.762514
vt 0.219139 0.745830
vt 0.214798 0.773785
vt 0.210053 0.750211
vt 0.195539 0.681841
vt 0.201883 0.710221
vt 0.161526 0.711684
vt 0.187427 0.724194
vn 0.3604 -0.0061 0.9328
vn 0.2580 0.1982 0.9456
vn 0.2632 0.1912 0.9456
vn 0.3646 -0.0330 0.9306
vn -0.8104 0.0293 0.5852
vn -0.7944 -0.1695 0.5833
vn -0.8103 0.0471 0.5842
vn -0.3651 -0.1101 0.9244
vn -0.2454 -0.3443 0.9062
vn -0.2295 -0.3586 0.9048
vn -0.3594 -0.1327 0.9237
vn 0.5774 0.5001 0.6453
vn 0.4421 0.6260 0.6424
vn 0.4203 0.6431 0.6401
vn -0.0335 -0.4384 0.8981
vn -0.0315 -0.4386 0.8981
vn 0.0690 0.7885 0.6112
vn 0.0453 0.7915 0.6095
vn 0.1978 -0.3800 0.9036
vn 0.1840 -0.3887 0.9028
vn -0.3577 0.7270 0.5861
vn -0.3717 0.7205 0.5854
vn 0.3407 -0.2055 0.9174
vn 0.3306 -0.2293 0.9155
vn -0.6901 0.4401 0.5746
vn -0.6904 0.4395 0.5746
vn 0.7489 -0.0402 0.6615
vn -0.2899 0.1545 0.9445
vn -0.2561 0.1905 0.9477
vn 0.3297 -0.6594 0.6757
vn -0.4019 -0.6800 0.6132
vn 0.0199 0.3092 0.9508
vn -0.0035 0.3081 0.9513
vn 0.3604 -0.0061 -0.9328
vn 0.3646 -0.0330 -0.9306
vn 0.2632 0.1912 -0.9456
vn 0.2580 0.1982 -0.9456
vn -0.8104 0.0293 -0.5852
vn -0.8103 0.0471 -0.5842
vn -0.7944 -0.1695 -0.5833
vn -0.3651 -0.1101 -0.9244
vn -0.3594 -0.1327 -0.9237
vn -0.2295 -0.3586 -0.9048
vn -0.2454 -0.3443 -0.9062
vn 0.5774 0.5001 -0.6453
vn 0.4203 0.6431 -0.6401
vn 0.4421 0.6260 -0.6424
vn -0.0315 -0.4386 -0.8981
vn -0.0335 -0.4384 -0.8981
vn 0.0453 0.7915 -0.6095
vn 0.0690 0.7885 -0.6112
vn 0.1840 -0.3887 -0.9028
vn 0.1978 -0.3800 -0.9036
vn -0.3717 0.7205 -0.5854
vn -0.3577 0.7270 -0.5861
vn 0.3306 -0.2293 -0.9155
vn 0.3407 -0.2055 -0.9174
vn -0.6904 0.4395 -0.5746
vn -0.6901 0.4401 -0.5746
vn 0.7489 -0.0402 -0.6615
vn -0.2561 0.1905 -0.9477
vn -0.2899 0.1545 -0.9445
vn 0.3297 -0.6594 -0.6757
vn -0.4019 -0.6800 -0.6132
vn -0.0035 0.3081 -0.9513
vn 0.0199 0.3092 -0.9508
usemtl None
s 1
f 242/242/192 245/243/193 246/244/194 243/245/195
f 243/245/196 246/244/197 247/246/197 244/247/198
f 248/248/199 250/249/200 251/250/201 249/251/202
f 249/251/203 251/250/204 252/252/205 285/253/203
f 250/249/200 253/254/206 254/255/207 251/250/201
f 251/250/204 254/255/208 255/256/209 252/252/205
f 253/254/206 256/257/210 257/258/211 254/255/207
f 254/255/208 257/258/212 258/259/213 255/256/209
f 256/257/210 259/260/214 260/261/215 257/258/211
f 257/258/212 260/261/216 286/262/217 258/259/213
f 259/260/214 242/242/192 243/245/195 260/261/215
f 260/261/216 243/245/196 244/247/198 286/262/217
f 249/251/218 285/253/218 264/263/218 261/264/218
f 248/248/199 249/251/202 261/264/219 266/265/220
f 261/264/221 264/263/221 263/266/221 262/267/221
f 262/267/222 263/266/222 247/246/222 246/244/222
f 266/265/220 261/264/219 262/267/223 265/268/224
f 265/268/224 262/267/223 246/244/194 245/243/193
f 242/242/225 274/269/226 275/270/227 245/243/228
f 274/269/229 267/271/230 268/272/231 275/270/231
f 248/248/232 276/273/233 277/274/234 250/249/235
f 276/273/236 269/275/236 270/276/237 277/274/238
f 250/249/235 277/274/234 278/277/239 253/254/240
f 277/274/238 270/276/237 279/278/241 278/277/242
f 253/254/240 278/277/239 280/279/243 256/257/244
f 278/277/242 279/278/241 281/280/245 280/279/246
f 256/257/244 280/279/243 282/281/247 259/260/248
f 280/279/246 281/280/245 271/282/249 282/281/250
f 259/260/248 282/281/247 274/269/226 242/242/225
f 282/281/250 271/282/249 267/271/230 274/269/229
f 276/273/251 283/283/251 273/284/251 269/275/251
f 248/248/232 266/265/252 283/283/253 276/273/233
f 283/283/254 284/285/254 272/286/254 273/284/254
f 284/285/255 275/270/255 268/272/255 272/286/255
f 266/265/252 265/268/256 284/285/257 283/283/253
f 265/268/256 245/243/228 275/270/227 284/285/257
o _guard2_Cube.003
v -1.311105 -0.101688 0.209243
v -0.940564 -0.069212 0.209243
v -1.668531 0.018931 0.209243
v -2.119487 0.395566 0.209243
v -2.346336 0.766239 0.209243
v -2.332155 1.017185 0.209243
v -1.311105 -0.383063 0.000000
v -1.287478 0.288863 0.000000
v -0.940564 -0.419426 0.000000
v -0.940564 0.281002 0.000000
v -1.738718 -0.181583 0.000000
v -1.571125 0.289633 0.000000
v -2.185646 0.141692 0.000000
v -2.005358 0.579633 0.000000
v -2.500109 0.707548 0.000000
v -2.187585 0.842403 0.000000
v -2.572559 1.045126 0.000000
v -2.046082 1.038221 0.000000
v -2.332155 1.017185 0.000000
v -1.311105 -0.101688 -0.209243
v -0.940564 -0.069212 -0.209243
v -1.668531 0.018931 -0.209243
v -2.119487 0.395566 -0.209243
v -2.346336 0.766239 -0.209243
v -2.332155 1.017185 -0.209243
vt 0.882644 0.782818
vt 0.844135 0.773039
vt 0.851475 0.748601
vt 0.883310 0.749233
vt 0.912656 0.791899
vt 0.910039 0.749480
vt 0.870181 0.698479
vt 0.900068 0.700899
vt 0.870945 0.651028
vt 0.852818 0.665577
vt 0.839567 0.653846
vt 0.847071 0.630575
vt 0.832061 0.675943
vt 0.813930 0.662784
vt 0.843369 0.702313
vt 0.870576 0.813842
vt 0.905588 0.824560
vt 0.835521 0.803030
vt 0.828967 0.642426
vt 0.882644 0.782818
vt 0.883310 0.749233
vt 0.870181 0.698479
vt 0.839567 0.653846
vt 0.852818 0.665577
vt 0.870576 0.813842
vn 0.0387 0.5062 0.8616
vn 0.0392 0.5063 0.8615
vn 0.2440 0.5250 0.8154
vn 0.2335 0.5250 0.8185
vn -0.1097 -0.5836 0.8046
vn -0.1353 -0.5899 0.7960
vn -0.3448 -0.5777 0.7398
vn -0.3307 -0.5836 0.7417
vn -0.5839 -0.4473 0.6775
vn -0.5116 -0.4935 0.7034
vn -0.7042 -0.2318 0.6711
vn -0.7054 -0.2251 0.6721
vn -0.7234 -0.0716 0.6867
vn 0.6924 -0.2413 0.6800
vn 0.4969 0.4753 0.7261
vn 0.5259 0.4617 0.7143
vn 0.6290 0.4062 0.6628
vn -0.0029 -0.5523 0.8336
vn -0.0169 0.4922 0.8703
vn 0.1154 0.9933 0.0000
vn 0.0168 0.9999 0.0000
vn 0.0212 0.9998 0.0000
vn -0.0733 0.9973 0.0000
vn 0.0387 0.5062 -0.8616
vn 0.2335 0.5250 -0.8185
vn 0.2440 0.5250 -0.8154
vn 0.0392 0.5063 -0.8615
vn -0.1097 -0.5836 -0.8046
vn -0.3307 -0.5836 -0.7417
vn -0.3448 -0.5777 -0.7398
vn -0.1353 -0.5899 -0.7960
vn -0.5116 -0.4935 -0.7034
vn -0.5839 -0.4473 -0.6775
vn -0.7042 -0.2318 -0.6711
vn -0.7234 -0.0716 -0.6867
vn -0.7054 -0.2251 -0.6721
vn 0.6924 -0.2413 -0.6800
vn 0.4969 0.4753 -0.7261
vn 0.6290 0.4062 -0.6628
vn 0.5259 0.4617 -0.7143
vn -0.0029 -0.5523 -0.8336
vn -0.0169 0.4922 -0.8703
usemtl None
s 1
f 287/287/258 294/288/259 298/289/260 289/290/261
f 293/291/262 287/287/263 289/290/264 297/292/265
f 297/292/265 289/290/264 290/293/266 299/294/267
f 301/295/268 291/296/269 292/297/270 303/298/270
f 291/296/271 302/299/271 304/300/271 292/297/271
f 299/294/267 290/293/266 291/296/269 301/295/268
f 290/293/272 300/301/273 302/299/274 291/296/274
f 288/302/275 287/287/263 293/291/262 295/303/275
f 296/304/276 294/288/259 287/287/258 288/302/276
f 303/298/277 292/297/278 305/305/279
f 292/297/278 304/300/280 305/305/279
f 289/290/261 298/289/260 300/301/273 290/293/272
f 306/306/281 308/307/282 298/289/283 294/288/284
f 293/291/285 297/292/286 308/307/287 306/306/288
f 297/292/286 299/294/289 309/308/290 308/307/287
f 301/295/291 303/298/292 311/309/292 310/310/293
f 310/310/294 311/309/294 304/300/294 302/299/294
f 299/294/289 301/295/291 310/310/293 309/308/290
f 309/308/295 310/310/296 302/299/296 300/301/297
f 307/311/298 295/303/298 293/291/285 306/306/288
f 296/304/299 307/311/299 306/306/281 294/288/284
f 303/298/277 305/305/279 311/309/278
f 311/309/278 305/305/279 304/300/280
f 308/307/282 309/308/295 300/301/297 298/289/283
o _dot_Sphere
v -0.171472 0.009896 0.360323
v -0.171472 0.139528 0.230692
v -0.125640 -0.087800 0.395704
v -0.082932 -0.013828 0.360323
v -0.046258 0.049694 0.304041
v -0.018117 0.098436 0.230692
v -0.092089 -0.121351 0.395704
v -0.018117 -0.078643 0.360323
v 0.045405 -0.041969 0.304041
v 0.094147 -0.013828 0.230692
v -0.079809 -0.167183 0.395704
v 0.005608 -0.167183 0.360323
v 0.078956 -0.167183 0.304041
v 0.135239 -0.167183 0.230692
v -0.092089 -0.213014 0.395704
v -0.018117 -0.255722 0.360323
v 0.045405 -0.292397 0.304041
v 0.094147 -0.320538 0.230692
v -0.125640 -0.246565 0.395704
v -0.082932 -0.320538 0.360323
v -0.046258 -0.384060 0.304041
v -0.018117 -0.432802 0.230692
v -0.171472 -0.258846 0.395704
v -0.171472 -0.344262 0.360323
v -0.171472 -0.417611 0.304041
v -0.171472 -0.473893 0.230692
v -0.217303 -0.246565 0.395704
v -0.260011 -0.320538 0.360323
v -0.296686 -0.384060 0.304041
v -0.324827 -0.432802 0.230692
v -0.171472 -0.167183 0.407771
v -0.250854 -0.213014 0.395704
v -0.324827 -0.255722 0.360323
v -0.388349 -0.292397 0.304041
v -0.437091 -0.320538 0.230692
v -0.263135 -0.167183 0.395704
v -0.348551 -0.167183 0.360323
v -0.421900 -0.167183 0.304041
v -0.478182 -0.167183 0.230692
v -0.250854 -0.121351 0.395704
v -0.324827 -0.078643 0.360323
v -0.388349 -0.041969 0.304041
v -0.437091 -0.013828 0.230692
v -0.217303 -0.087800 0.395704
v -0.260011 -0.013828 0.360323
v -0.296686 0.049694 0.304041
v -0.324827 0.098436 0.230692
v -0.171472 -0.075520 0.395704
v -0.171472 0.083245 0.304041
v -0.171472 -1.400841 0.325872
v -0.171472 -1.330631 0.255663
v -0.146649 -1.453754 0.345035
v -0.123518 -1.413690 0.325872
v -0.103655 -1.379286 0.295389
v -0.088413 -1.352887 0.255663
v -0.128477 -1.471926 0.345035
v -0.088413 -1.448795 0.325872
v -0.054009 -1.428932 0.295389
v -0.027610 -1.413690 0.255663
v -0.121826 -1.496749 0.345035
v -0.075564 -1.496749 0.325872
v -0.035837 -1.496749 0.295389
v -0.005354 -1.496749 0.255663
v -0.128477 -1.521572 0.345035
v -0.088413 -1.544703 0.325872
v -0.054009 -1.564566 0.295389
v -0.027610 -1.579808 0.255663
v -0.146649 -1.539743 0.345035
v -0.123518 -1.579808 0.325872
v -0.103655 -1.614212 0.295389
v -0.088413 -1.640611 0.255663
v -0.171472 -1.546394 0.345035
v -0.171472 -1.592657 0.325872
v -0.171472 -1.632383 0.295389
v -0.171472 -1.662866 0.255663
v -0.196295 -1.539743 0.345035
v -0.219426 -1.579808 0.325872
v -0.239289 -1.614212 0.295389
v -0.254531 -1.640611 0.255663
v -0.171472 -1.496749 0.351571
v -0.214466 -1.521572 0.345035
v -0.254531 -1.544703 0.325872
v -0.288935 -1.564566 0.295389
v -0.315334 -1.579808 0.255663
v -0.221117 -1.496749 0.345035
v -0.267380 -1.496749 0.325872
v -0.307106 -1.496749 0.295389
v -0.337589 -1.496749 0.255663
v -0.214466 -1.471926 0.345035
v -0.254531 -1.448795 0.325872
v -0.288935 -1.428932 0.295389
v -0.315334 -1.413690 0.255663
v -0.196295 -1.453754 0.345035
v -0.219426 -1.413690 0.325872
v -0.239289 -1.379286 0.295389
v -0.254531 -1.352887 0.255663
v -0.171472 -1.447103 0.345035
v -0.171472 -1.361114 0.295389
v 0.420688 -4.524088 0.315427
v 0.420688 -4.458293 0.249632
v 0.443950 -4.573675 0.333385
v 0.465627 -4.536130 0.315427
v 0.484241 -4.503889 0.286861
v 0.498525 -4.479149 0.249632
v 0.460979 -4.590704 0.333385
v 0.498525 -4.569027 0.315427
v 0.530766 -4.550413 0.286861
v 0.555505 -4.536130 0.249632
v 0.467212 -4.613966 0.333385
v 0.510566 -4.613966 0.315427
v 0.547795 -4.613966 0.286861
v 0.576361 -4.613966 0.249632
v 0.460979 -4.637228 0.333385
v 0.498525 -4.658906 0.315427
v 0.530766 -4.677520 0.286861
v 0.555505 -4.691803 0.249632
v 0.443950 -4.654258 0.333385
v 0.465627 -4.691803 0.315427
v 0.484241 -4.724044 0.286861
v 0.498525 -4.748784 0.249632
v 0.420688 -4.660491 0.333385
v 0.420688 -4.703845 0.315427
v 0.420688 -4.741073 0.286861
v 0.420688 -4.769639 0.249632
v 0.397426 -4.654258 0.333385
v 0.375749 -4.691803 0.315427
v 0.357135 -4.724044 0.286861
v 0.342851 -4.748784 0.249632
v 0.420688 -4.613966 0.339510
v 0.380397 -4.637228 0.333385
v 0.342851 -4.658906 0.315427
v 0.310610 -4.677520 0.286861
v 0.285871 -4.691803 0.249632
v 0.374164 -4.613966 0.333385
v 0.330810 -4.613966 0.315427
v 0.293581 -4.613966 0.286861
v 0.265015 -4.613966 0.249632
v 0.380397 -4.590704 0.333385
v 0.342851 -4.569027 0.315427
v 0.310610 -4.550413 0.286861
v 0.285871 -4.536130 0.249632
v 0.397426 -4.573675 0.333385
v 0.375749 -4.536130 0.315427
v 0.357135 -4.503889 0.286861
v 0.342851 -4.479149 0.249632
v 0.420688 -4.567442 0.333385
v 0.420688 -4.486860 0.286861
v -0.171472 0.009896 -0.360323
v -0.171472 0.139528 -0.230692
v -0.125640 -0.087800 -0.395704
v -0.082932 -0.013828 -0.360323
v -0.046258 0.049694 -0.304041
v -0.018117 0.098436 -0.230692
v -0.092089 -0.121351 -0.395704
v -0.018117 -0.078643 -0.360323
v 0.045405 -0.041969 -0.304041
v 0.094147 -0.013828 -0.230692
v -0.079809 -0.167183 -0.395704
v 0.005608 -0.167183 -0.360323
v 0.078956 -0.167183 -0.304041
v 0.135239 -0.167183 -0.230692
v -0.092089 -0.213014 -0.395704
v -0.018117 -0.255722 -0.360323
v 0.045405 -0.292397 -0.304041
v 0.094147 -0.320538 -0.230692
v -0.125640 -0.246565 -0.395704
v -0.082932 -0.320538 -0.360323
v -0.046258 -0.384060 -0.304041
v -0.018117 -0.432802 -0.230692
v -0.171472 -0.258846 -0.395704
v -0.171472 -0.344262 -0.360323
v -0.171472 -0.417611 -0.304041
v -0.171472 -0.473893 -0.230692
v -0.217303 -0.246565 -0.395704
v -0.260011 -0.320538 -0.360323
v -0.296686 -0.384060 -0.304041
v -0.324827 -0.432802 -0.230692
v -0.171472 -0.167183 -0.407771
v -0.250854 -0.213014 -0.395704
v -0.324827 -0.255722 -0.360323
v -0.388349 -0.292397 -0.304041
v -0.437091 -0.320538 -0.230692
v -0.263135 -0.167183 -0.395704
v -0.348551 -0.167183 -0.360323
v -0.421900 -0.167183 -0.304041
v -0.478182 -0.167183 -0.230692
v -0.250854 -0.121351 -0.395704
v -0.324827 -0.078643 -0.360323
v -0.388349 -0.041969 -0.304041
v -0.437091 -0.013828 -0.230692
v -0.217303 -0.087800 -0.395704
v -0.260011 -0.013828 -0.360323
v -0.296686 0.049694 -0.304041
v -0.324827 0.098436 -0.230692
v -0.171472 -0.075520 -0.395704
v -0.171472 0.083245 -0.304041
v -0.171472 -1.400841 -0.325872
v -0.171472 -1.330631 -0.255663
v -0.146649 -1.453754 -0.345035
v -0.123518 -1.413690 -0.325872
v -0.103655 -1.379286 -0.295389
v -0.088413 -1.352887 -0.255663
v -0.128477 -1.471926 -0.345035
v -0.088413 -1.448795 -0.325872
v -0.054009 -1.428932 -0.295389
v -0.027610 -1.413690 -0.255663
v -0.121826 -1.496749 -0.345035
v -0.075564 -1.496749 -0.325872
v -0.035837 -1.496749 -0.295389
v -0.005354 -1.496749 -0.255663
v -0.128477 -1.521572 -0.345035
v -0.088413 -1.544703 -0.325872
v -0.054009 -1.564566 -0.295389
v -0.027610 -1.579808 -0.255663
v -0.146649 -1.539743 -0.345035
v -0.123518 -1.579808 -0.325872
v -0.103655 -1.614212 -0.295389
v -0.088413 -1.640611 -0.255663
v -0.171472 -1.546394 -0.345035
v -0.171472 -1.592657 -0.325872
v -0.171472 -1.632383 -0.295389
v -0.171472 -1.662866 -0.255663
v -0.196295 -1.539743 -0.345035
v -0.219426 -1.579808 -0.325872
v -0.239289 -1.614212 -0.295389
v -0.254531 -1.640611 -0.255663
v -0.171472 -1.496749 -0.351571
v -0.214466 -1.521572 -0.345035
v -0.254531 -1.544703 -0.325872
v -0.288935 -1.564566 -0.295389
v -0.315334 -1.579808 -0.255663
v -0.221117 -1.496749 -0.345035
v -0.267380 -1.496749 -0.325872
v -0.307106 -1.496749 -0.295389
v -0.337589 -1.496749 -0.255663
v -0.214466 -1.471926 -0.345035
v -0.254531 -1.448795 -0.325872
v -0.288935 -1.428932 -0.295389
v -0.315334 -1.413690 -0.255663
v -0.196295 -1.453754 -0.345035
v -0.219426 -1.413690 -0.325872
v -0.239289 -1.379286 -0.295389
v -0.254531 -1.352887 -0.255663
v -0.171472 -1.447103 -0.345035
v -0.171472 -1.361114 -0.295389
v 0.420688 -4.524088 -0.315427
v 0.420688 -4.458293 -0.249632
v 0.443950 -4.573675 -0.333385
v 0.465627 -4.536130 -0.315427
v 0.484241 -4.503889 -0.286861
v 0.498525 -4.479149 -0.249632
v 0.460979 -4.590704 -0.333385
v 0.498525 -4.569027 -0.315427
v 0.530766 -4.550413 -0.286861
v 0.555505 -4.536130 -0.249632
v 0.467212 -4.613966 -0.333385
v 0.510566 -4.613966 -0.315427
v 0.547795 -4.613966 -0.286861
v 0.576361 -4.613966 -0.249632
v 0.460979 -4.637228 -0.333385
v 0.498525 -4.658906 -0.315427
v 0.530766 -4.677520 -0.286861
v 0.555505 -4.691803 -0.249632
v 0.443950 -4.654258 -0.333385
v 0.465627 -4.691803 -0.315427
v 0.484241 -4.724044 -0.286861
v 0.498525 -4.748784 -0.249632
v 0.420688 -4.660491 -0.333385
v 0.420688 -4.703845 -0.315427
v 0.420688 -4.741073 -0.286861
v 0.420688 -4.769639 -0.249632
v 0.397426 -4.654258 -0.333385
v 0.375749 -4.691803 -0.315427
v 0.357135 -4.724044 -0.286861
v 0.342851 -4.748784 -0.249632
v 0.420688 -4.613966 -0.339510
v 0.380397 -4.637228 -0.333385
v 0.342851 -4.658906 -0.315427
v 0.310610 -4.677520 -0.286861
v 0.285871 -4.691803 -0.249632
v 0.374164 -4.613966 -0.333385
v 0.330810 -4.613966 -0.315427
v 0.293581 -4.613966 -0.286861
v 0.265015 -4.613966 -0.249632
v 0.380397 -4.590704 -0.333385
v 0.342851 -4.569027 -0.315427
v 0.310610 -4.550413 -0.286861
v 0.285871 -4.536130 -0.249632
v 0.397426 -4.573675 -0.333385
v 0.375749 -4.536130 -0.315427
v 0.357135 -4.503889 -0.286861
v 0.342851 -4.479149 -0.249632
v 0.420688 -4.567442 -0.333385
v 0.420688 -4.486860 -0.286861
vt 1.463407 0.105260
vt 1.465478 0.097250
vt 1.469661 0.097145
vt 1.471872 0.105118
vt 1.461010 0.113890
vt 1.474111 0.113790
vt 1.458199 0.123635
vt 1.476549 0.123635
vt 1.467374 0.089393
vt 1.479132 0.100762
vt 1.485407 0.107153
vt 1.492440 0.114460
vt 1.473230 0.094963
vt 1.475230 0.091289
vt 1.483241 0.093360
vt 1.491871 0.095757
vt 1.501615 0.098568
vt 1.491771 0.082655
vt 1.501615 0.080218
vt 1.475126 0.087106
vt 1.483099 0.084895
vt 1.478743 0.077635
vt 1.485133 0.071360
vt 1.492440 0.064326
vt 1.472944 0.083537
vt 1.469269 0.081536
vt 1.471341 0.073526
vt 1.473737 0.064896
vt 1.476549 0.055151
vt 1.460636 0.064996
vt 1.458199 0.055151
vt 1.465087 0.081641
vt 1.462875 0.073668
vt 1.455616 0.078024
vt 1.449340 0.071634
vt 1.442307 0.064326
vt 1.461517 0.083823
vt 1.459517 0.087498
vt 1.451506 0.085426
vt 1.442876 0.083030
vt 1.433132 0.080218
vt 1.442977 0.096131
vt 1.433132 0.098568
vt 1.459622 0.091680
vt 1.451649 0.093891
vt 1.456005 0.101151
vt 1.449614 0.107427
vt 1.442307 0.114460
vt 1.461804 0.095250
vt 1.550801 0.092028
vt 1.547576 0.088878
vt 1.548660 0.086884
vt 1.553018 0.087980
vt 1.554232 0.095415
vt 1.557696 0.089261
vt 1.558032 0.099360
vt 1.562962 0.090770
vt 1.544418 0.085829
vt 1.552953 0.083389
vt 1.557642 0.082181
vt 1.562962 0.080865
vt 1.548642 0.084610
vt 1.547456 0.082665
vt 1.550597 0.079464
vt 1.554057 0.076068
vt 1.558015 0.072268
vt 1.547892 0.072560
vt 1.549423 0.067283
vt 1.545463 0.081575
vt 1.546589 0.077234
vt 1.542003 0.077304
vt 1.540792 0.072604
vt 1.539475 0.067263
vt 1.543195 0.081626
vt 1.541260 0.082803
vt 1.538072 0.079660
vt 1.534664 0.076203
vt 1.530842 0.072237
vt 1.531157 0.082412
vt 1.525866 0.080886
vt 1.540170 0.084784
vt 1.535879 0.083648
vt 1.535853 0.088233
vt 1.531195 0.089512
vt 1.525866 0.090830
vt 1.540211 0.087051
vt 1.541388 0.088987
vt 1.538241 0.092183
vt 1.534797 0.095598
vt 1.530851 0.099420
vt 1.540984 0.099081
vt 1.539479 0.104372
vt 1.543371 0.090070
vt 1.542258 0.094400
vt 1.546818 0.094291
vt 1.548113 0.098997
vt 1.549443 0.104332
vt 1.545622 0.090016
vt 1.533679 0.136046
vt 1.530727 0.139083
vt 1.528849 0.138061
vt 1.529886 0.133975
vt 1.536806 0.132834
vt 1.531054 0.129529
vt 1.540502 0.129047
vt 1.532271 0.124586
vt 1.527860 0.142050
vt 1.525616 0.134109
vt 1.524385 0.129765
vt 1.522946 0.124738
vt 1.526726 0.138110
vt 1.524911 0.139209
vt 1.521898 0.136246
vt 1.518631 0.133068
vt 1.515028 0.129563
vt 1.515443 0.138919
vt 1.510528 0.137551
vt 1.523903 0.141061
vt 1.519865 0.140039
vt 1.519857 0.144341
vt 1.515509 0.145548
vt 1.510525 0.146805
vt 1.523915 0.143175
vt 1.524999 0.145015
vt 1.522086 0.148025
vt 1.518903 0.151169
vt 1.515224 0.154896
vt 1.524606 0.154524
vt 1.523333 0.159394
vt 1.526873 0.146039
vt 1.525829 0.150113
vt 1.530123 0.150032
vt 1.531268 0.154426
vt 1.532513 0.159381
vt 1.528998 0.145990
vt 1.530806 0.144888
vt 1.533798 0.147817
vt 1.537001 0.151049
vt 1.540582 0.154764
vt 1.540293 0.145208
vt 1.545287 0.146643
vt 1.531814 0.143039
vt 1.535842 0.144064
vt 1.535851 0.139782
vt 1.540231 0.138495
vt 1.545287 0.137221
vt 1.531805 0.140927
vt 0.463407 0.105260
vt 0.471872 0.105118
vt 0.469660 0.097145
vt 0.465478 0.097250
vt 0.461010 0.113890
vt 0.474111 0.113790
vt 0.458199 0.123635
vt 0.476549 0.123635
vt 0.467374 0.089393
vt 0.485407 0.107153
vt 0.479132 0.100762
vt 0.492440 0.114460
vt 0.473230 0.094963
vt 0.483241 0.093360
vt 0.475230 0.091289
vt 0.491871 0.095757
vt 0.501615 0.098568
vt 0.501615 0.080218
vt 0.491771 0.082655
vt 0.475126 0.087106
vt 0.483099 0.084895
vt 0.485133 0.071360
vt 0.478743 0.077635
vt 0.492440 0.064326
vt 0.472944 0.083537
vt 0.471341 0.073526
vt 0.469269 0.081536
vt 0.473737 0.064896
vt 0.476549 0.055151
vt 0.458199 0.055151
vt 0.460636 0.064996
vt 0.465087 0.081641
vt 0.462876 0.073668
vt 0.449340 0.071634
vt 0.455616 0.078024
vt 0.442307 0.064326
vt 0.461517 0.083823
vt 0.451506 0.085426
vt 0.459517 0.087498
vt 0.442876 0.083030
vt 0.433132 0.080218
vt 0.433132 0.098568
vt 0.442977 0.096131
vt 0.459622 0.091680
vt 0.451649 0.093891
vt 0.449614 0.107427
vt 0.456005 0.101151
vt 0.442307 0.114460
vt 0.461804 0.095250
vt 0.550801 0.092028
vt 0.553018 0.087980
vt 0.548660 0.086884
vt 0.547576 0.088878
vt 0.554232 0.095415
vt 0.557696 0.089261
vt 0.558032 0.099360
vt 0.562962 0.090770
vt 0.544418 0.085829
vt 0.557642 0.082181
vt 0.552953 0.083389
vt 0.562962 0.080865
vt 0.548642 0.084610
vt 0.550597 0.079464
vt 0.547456 0.082665
vt 0.554057 0.076068
vt 0.558015 0.072268
vt 0.549423 0.067283
vt 0.547892 0.072560
vt 0.545463 0.081575
vt 0.546589 0.077234
vt 0.540792 0.072604
vt 0.542003 0.077304
vt 0.539475 0.067263
vt 0.543195 0.081626
vt 0.538072 0.079660
vt 0.541260 0.082803
vt 0.534664 0.076203
vt 0.530842 0.072237
vt 0.525866 0.080886
vt 0.531157 0.082412
vt 0.540170 0.084784
vt 0.535879 0.083648
vt 0.531195 0.089512
vt 0.535853 0.088233
vt 0.525866 0.090830
vt 0.540211 0.087051
vt 0.538241 0.092183
vt 0.541388 0.088987
vt 0.534797 0.095598
vt 0.530851 0.099420
vt 0.539478 0.104372
vt 0.540984 0.099081
vt 0.543371 0.090070
vt 0.542257 0.094400
vt 0.548113 0.098997
vt 0.546818 0.094291
vt 0.549443 0.104332
vt 0.545622 0.090016
vt 0.533679 0.136046
vt 0.529886 0.133975
vt 0.528849 0.138061
vt 0.530727 0.139083
vt 0.536806 0.132834
vt 0.531054 0.129529
vt 0.540502 0.129047
vt 0.532271 0.124586
vt 0.527860 0.142050
vt 0.524385 0.129765
vt 0.525616 0.134109
vt 0.522946 0.124738
vt 0.526726 0.138110
vt 0.521898 0.136246
vt 0.524911 0.139209
vt 0.518630 0.133068
vt 0.515028 0.129563
vt 0.510528 0.137551
vt 0.515443 0.138919
vt 0.523903 0.141061
vt 0.519865 0.140039
vt 0.515509 0.145548
vt 0.519857 0.144341
vt 0.510525 0.146805
vt 0.523915 0.143175
vt 0.522086 0.148025
vt 0.524999 0.145015
vt 0.518903 0.151169
vt 0.515224 0.154896
vt 0.523333 0.159394
vt 0.524606 0.154524
vt 0.526873 0.146039
vt 0.525829 0.150113
vt 0.531268 0.154426
vt 0.530123 0.150032
vt 0.532513 0.159381
vt 0.528998 0.145990
vt 0.533798 0.147817
vt 0.530806 0.144888
vt 0.537001 0.151049
vt 0.540582 0.154764
vt 0.545287 0.146643
vt 0.540293 0.145208
vt 0.531814 0.143039
vt 0.535842 0.144064
vt 0.540231 0.138495
vt 0.535851 0.139782
vt 0.545287 0.137221
vt 0.531805 0.140927
vn -0.0000 0.5159 0.8566
vn -0.0000 0.2789 0.9603
vn 0.1394 0.2415 0.9603
vn 0.2580 0.4468 0.8566
vn -0.0000 0.7176 0.6965
vn 0.3588 0.6215 0.6965
vn -0.0000 0.7934 0.6088
vn 0.3967 0.6871 0.6088
vn -0.0000 0.0000 1.0000
vn 0.4468 0.2580 0.8566
vn 0.6215 0.3588 0.6965
vn 0.6871 0.3967 0.6088
vn 0.2415 0.1394 0.9603
vn 0.2789 -0.0000 0.9603
vn 0.5159 -0.0000 0.8566
vn 0.7176 0.0000 0.6965
vn 0.7934 0.0000 0.6088
vn 0.6215 -0.3588 0.6965
vn 0.6871 -0.3967 0.6088
vn 0.2415 -0.1394 0.9603
vn 0.4468 -0.2580 0.8566
vn 0.2580 -0.4468 0.8566
vn 0.3588 -0.6215 0.6965
vn 0.3967 -0.6871 0.6088
vn 0.1394 -0.2415 0.9603
vn 0.0000 -0.2789 0.9603
vn 0.0000 -0.5159 0.8566
vn -0.0000 -0.7176 0.6965
vn -0.0000 -0.7934 0.6088
vn -0.3588 -0.6215 0.6965
vn -0.3967 -0.6871 0.6088
vn -0.1394 -0.2415 0.9603
vn -0.2580 -0.4468 0.8566
vn -0.4468 -0.2580 0.8566
vn -0.6215 -0.3588 0.6965
vn -0.6871 -0.3967 0.6088
vn -0.2415 -0.1394 0.9603
vn -0.2789 0.0000 0.9603
vn -0.5159 0.0000 0.8566
vn -0.7176 0.0000 0.6965
vn -0.7934 0.0000 0.6088
vn -0.6215 0.3588 0.6965
vn -0.6871 0.3967 0.6088
vn -0.2415 0.1394 0.9603
vn -0.4468 0.2580 0.8566
vn -0.2580 0.4468 0.8566
vn -0.3588 0.6215 0.6965
vn -0.3967 0.6871 0.6088
vn -0.1394 0.2415 0.9603
vn -0.0000 0.5159 -0.8566
vn 0.2580 0.4468 -0.8566
vn 0.1394 0.2415 -0.9603
vn -0.0000 0.2789 -0.9603
vn -0.0000 0.7176 -0.6965
vn 0.3588 0.6215 -0.6965
vn -0.0000 0.7934 -0.6088
vn 0.3967 0.6871 -0.6088
vn -0.0000 -0.0000 -1.0000
vn 0.6215 0.3588 -0.6965
vn 0.4468 0.2580 -0.8566
vn 0.6871 0.3967 -0.6088
vn 0.2415 0.1394 -0.9603
vn 0.5159 -0.0000 -0.8566
vn 0.2789 -0.0000 -0.9603
vn 0.7176 0.0000 -0.6965
vn 0.7934 0.0000 -0.6088
vn 0.6871 -0.3967 -0.6088
vn 0.6215 -0.3588 -0.6965
vn 0.2415 -0.1394 -0.9603
vn 0.4468 -0.2580 -0.8566
vn 0.3588 -0.6215 -0.6965
vn 0.2580 -0.4468 -0.8566
vn 0.3967 -0.6871 -0.6088
vn 0.1394 -0.2415 -0.9603
vn -0.0000 -0.5159 -0.8566
vn 0.0000 -0.2789 -0.9603
vn -0.0000 -0.7176 -0.6965
vn -0.0000 -0.7934 -0.6088
vn -0.3967 -0.6871 -0.6088
vn -0.3588 -0.6215 -0.6965
vn -0.1394 -0.2415 -0.9603
vn -0.2580 -0.4468 -0.8566
vn -0.6215 -0.3588 -0.6965
vn -0.4468 -0.2580 -0.8566
vn -0.6871 -0.3967 -0.6088
vn -0.2415 -0.1394 -0.9603
vn -0.5159 0.0000 -0.8566
vn -0.2789 0.0000 -0.9603
vn -0.7176 0.0000 -0.6965
vn -0.7934 0.0000 -0.6088
vn -0.6871 0.3967 -0.6088
vn -0.6215 0.3588 -0.6965
vn -0.2415 0.1394 -0.9603
vn -0.4468 0.2580 -0.8566
vn -0.3588 0.6215 -0.6965
vn -0.2580 0.4468 -0.8566
vn -0.3967 0.6871 -0.6088
vn -0.1394 0.2415 -0.9603
usemtl None
s 1
f 312/312/300 359/313/301 314/314/302 315/315/303
f 360/316/304 312/312/300 315/315/303 316/317/305
f 313/318/306 360/316/304 316/317/305 317/319/307
f 359/313/301 342/320/308 314/314/302
f 316/317/305 315/315/303 319/321/309 320/322/310
f 317/319/307 316/317/305 320/322/310 321/323/311
f 314/314/302 342/320/308 318/324/312
f 315/315/303 314/314/302 318/324/312 319/321/309
f 319/321/309 318/324/312 322/325/313 323/326/314
f 320/322/310 319/321/309 323/326/314 324/327/315
f 321/323/311 320/322/310 324/327/315 325/328/316
f 318/324/312 342/320/308 322/325/313
f 325/328/316 324/327/315 328/329/317 329/330/318
f 322/325/313 342/320/308 326/331/319
f 323/326/314 322/325/313 326/331/319 327/332/320
f 324/327/315 323/326/314 327/332/320 328/329/317
f 328/329/317 327/332/320 331/333/321 332/334/322
f 329/330/318 328/329/317 332/334/322 333/335/323
f 326/331/319 342/320/308 330/336/324
f 327/332/320 326/331/319 330/336/324 331/333/321
f 331/333/321 330/336/324 334/337/325 335/338/326
f 332/334/322 331/333/321 335/338/326 336/339/327
f 333/335/323 332/334/322 336/339/327 337/340/328
f 330/336/324 342/320/308 334/337/325
f 337/340/328 336/339/327 340/341/329 341/342/330
f 334/337/325 342/320/308 338/343/331
f 335/338/326 334/337/325 338/343/331 339/344/332
f 336/339/327 335/338/326 339/344/332 340/341/329
f 340/341/329 339/344/332 344/345/333 345/346/334
f 341/342/330 340/341/329 345/346/334 346/347/335
f 338/343/331 342/320/308 343/348/336
f 339/344/332 338/343/331 343/348/336 344/345/333
f 344/345/333 343/348/336 347/349/337 348/350/338
f 345/346/334 344/345/333 348/350/338 349/351/339
f 346/347/335 345/346/334 349/351/339 350/352/340
f 343/348/336 342/320/308 347/349/337
f 350/352/340 349/351/339 353/353/341 354/354/342
f 347/349/337 342/320/308 351/355/343
f 348/350/338 347/349/337 351/355/343 352/356/344
f 349/351/339 348/350/338 352/356/344 353/353/341
f 353/353/341 352/356/344 356/357/345 357/358/346
f 354/354/342 353/353/341 357/358/346 358/359/347
f 351/355/343 342/320/308 355/360/348
f 352/356/344 351/355/343 355/360/348 356/357/345
f 356/357/345 355/360/348 359/313/301 312/312/300
f 357/358/346 356/357/345 312/312/300 360/316/304
f 358/359/347 357/358/346 360/316/304 313/318/306
f 355/360/348 342/320/308 359/313/301
f 361/361/300 408/362/301 363/363/302 364/364/303
f 409/365/304 361/361/300 364/364/303 365/366/305
f 362/367/306 409/365/304 365/366/305 366/368/307
f 408/362/301 391/369/308 363/363/302
f 365/366/305 364/364/303 368/370/309 369/371/310
f 366/368/307 365/366/305 369/371/310 370/372/311
f 363/363/302 391/369/308 367/373/312
f 364/364/303 363/363/302 367/373/312 368/370/309
f 368/370/309 367/373/312 371/374/313 372/375/314
f 369/371/310 368/370/309 372/375/314 373/376/315
f 370/372/311 369/371/310 373/376/315 374/377/316
f 367/373/312 391/369/308 371/374/313
f 374/377/316 373/376/315 377/378/317 378/379/318
f 371/374/313 391/369/308 375/380/319
f 372/375/314 371/374/313 375/380/319 376/381/320
f 373/376/315 372/375/314 376/381/320 377/378/317
f 377/378/317 376/381/320 380/382/321 381/383/322
f 378/379/318 377/378/317 381/383/322 382/384/323
f 375/380/319 391/369/308 379/385/324
f 376/381/320 375/380/319 379/385/324 380/382/321
f 380/382/321 379/385/324 383/386/325 384/387/326
f 381/383/322 380/382/321 384/387/326 385/388/327
f 382/384/323 381/383/322 385/388/327 386/389/328
f 379/385/324 391/369/308 383/386/325
f 386/389/328 385/388/327 389/390/329 390/391/330
f 383/386/325 391/369/308 387/392/331
f 384/387/326 383/386/325 387/392/331 388/393/332
f 385/388/327 384/387/326 388/393/332 389/390/329
f 389/390/329 388/393/332 393/394/333 394/395/334
f 390/391/330 389/390/329 394/395/334 395/396/335
f 387/392/331 391/369/308 392/397/336
f 388/393/332 387/392/331 392/397/336 393/394/333
f 393/394/333 392/397/336 396/398/337 397/399/338
f 394/395/334 393/394/333 397/399/338 398/400/339
f 395/396/335 394/395/334 398/400/339 399/401/340
f 392/397/336 391/369/308 396/398/337
f 399/401/340 398/400/339 402/402/341 403/403/342
f 396/398/337 391/369/308 400/404/343
f 397/399/338 396/398/337 400/404/343 401/405/344
f 398/400/339 397/399/338 401/405/344 402/402/341
f 402/402/341 401/405/344 405/406/345 406/407/346
f 403/403/342 402/402/341 406/407/346 407/408/347
f 400/404/343 391/369/308 404/409/348
f 401/405/344 400/404/343 404/409/348 405/406/345
f 405/406/345 404/409/348 408/362/301 361/361/300
f 406/407/346 405/406/345 361/361/300 409/365/304
f 407/408/347 406/407/346 409/365/304 362/367/306
f 404/409/348 391/369/308 408/362/301
f 410/410/300 457/411/301 412/412/302 413/413/303
f 458/414/304 410/410/300 413/413/303 414/415/305
f 411/416/306 458/414/304 414/415/305 415/417/307
f 457/411/301 440/418/308 412/412/302
f 414/415/305 413/413/303 417/419/309 418/420/310
f 415/417/307 414/415/305 418/420/310 419/421/311
f 412/412/302 440/418/308 416/422/312
f 413/413/303 412/412/302 416/422/312 417/419/309
f 417/419/309 416/422/312 420/423/313 421/424/314
f 418/420/310 417/419/309 421/424/314 422/425/315
f 419/421/311 418/420/310 422/425/315 423/426/316
f 416/422/312 440/418/308 420/423/313
f 423/426/316 422/425/315 426/427/317 427/428/318
f 420/423/313 440/418/308 424/429/319
f 421/424/314 420/423/313 424/429/319 425/430/320
f 422/425/315 421/424/314 425/430/320 426/427/317
f 426/427/317 425/430/320 429/431/321 430/432/322
f 427/428/318 426/427/317 430/432/322 431/433/323
f 424/429/319 440/418/308 428/434/324
f 425/430/320 424/429/319 428/434/324 429/431/321
f 429/431/321 428/434/324 432/435/325 433/436/326
f 430/432/322 429/431/321 433/436/326 434/437/327
f 431/433/323 430/432/322 434/437/327 435/438/328
f 428/434/324 440/418/308 432/435/325
f 435/438/328 434/437/327 438/439/329 439/440/330
f 432/435/325 440/418/308 436/441/331
f 433/436/326 432/435/325 436/441/331 437/442/332
f 434/437/327 433/436/326 437/442/332 438/439/329
f 438/439/329 437/442/332 442/443/333 443/444/334
f 439/440/330 438/439/329 443/444/334 444/445/335
f 436/441/331 440/418/308 441/446/336
f 437/442/332 436/441/331 441/446/336 442/443/333
f 442/443/333 441/446/336 445/447/337 446/448/338
f 443/444/334 442/443/333 446/448/338 447/449/339
f 444/445/335 443/444/334 447/449/339 448/450/340
f 441/446/336 440/418/308 445/447/337
f 448/450/340 447/449/339 451/451/341 452/452/342
f 445/447/337 440/418/308 449/453/343
f 446/448/338 445/447/337 449/453/343 450/454/344
f 447/449/339 446/448/338 450/454/344 451/451/341
f 451/451/341 450/454/344 454/455/345 455/456/346
f 452/452/342 451/451/341 455/456/346 456/457/347
f 449/453/343 440/418/308 453/458/348
f 450/454/344 449/453/343 453/458/348 454/455/345
f 454/455/345 453/458/348 457/411/301 410/410/300
f 455/456/346 454/455/345 410/410/300 458/414/304
f 456/457/347 455/456/346 458/414/304 411/416/306
f 453/458/348 440/418/308 457/411/301
f 459/459/349 462/460/350 461/461/351 506/462/352
f 507/463/353 463/464/354 462/460/350 459/459/349
f 460/465/355 464/466/356 463/464/354 507/463/353
f 506/462/352 461/461/351 489/467/357
f 463/464/354 467/468/358 466/469/359 462/460/350
f 464/466/356 468/470/360 467/468/358 463/464/354
f 461/461/351 465/471/361 489/467/357
f 462/460/350 466/469/359 465/471/361 461/461/351
f 466/469/359 470/472/362 469/473/363 465/471/361
f 467/468/358 471/474/364 470/472/362 466/469/359
f 468/470/360 472/475/365 471/474/364 467/468/358
f 465/471/361 469/473/363 489/467/357
f 472/475/365 476/476/366 475/477/367 471/474/364
f 469/473/363 473/478/368 489/467/357
f 470/472/362 474/479/369 473/478/368 469/473/363
f 471/474/364 475/477/367 474/479/369 470/472/362
f 475/477/367 479/480/370 478/481/371 474/479/369
f 476/476/366 480/482/372 479/480/370 475/477/367
f 473/478/368 477/483/373 489/467/357
f 474/479/369 478/481/371 477/483/373 473/478/368
f 478/481/371 482/484/374 481/485/375 477/483/373
f 479/480/370 483/486/376 482/484/374 478/481/371
f 480/482/372 484/487/377 483/486/376 479/480/370
f 477/483/373 481/485/375 489/467/357
f 484/487/377 488/488/378 487/489/379 483/486/376
f 481/485/375 485/490/380 489/467/357
f 482/484/374 486/491/381 485/490/380 481/485/375
f 483/486/376 487/489/379 486/491/381 482/484/374
f 487/489/379 492/492/382 491/493/383 486/491/381
f 488/488/378 493/494/384 492/492/382 487/489/379
f 485/490/380 490/495/385 489/467/357
f 486/491/381 491/493/383 490/495/385 485/490/380
f 491/493/383 495/496/386 494/497/387 490/495/385
f 492/492/382 496/498/388 495/496/386 491/493/383
f 493/494/384 497/499/389 496/498/388 492/492/382
f 490/495/385 494/497/387 489/467/357
f 497/499/389 501/500/390 500/501/391 496/498/388
f 494/497/387 498/502/392 489/467/357
f 495/496/386 499/503/393 498/502/392 494/497/387
f 496/498/388 500/501/391 499/503/393 495/496/386
f 500/501/391 504/504/394 503/505/395 499/503/393
f 501/500/390 505/506/396 504/504/394 500/501/391
f 498/502/392 502/507/397 489/467/357
f 499/503/393 503/505/395 502/507/397 498/502/392
f 503/505/395 459/459/349 506/462/352 502/507/397
f 504/504/394 507/463/353 459/459/349 503/505/395
f 505/506/396 460/465/355 507/463/353 504/504/394
f 502/507/397 506/462/352 489/467/357
f 508/508/349 511/509/350 510/510/351 555/511/352
f 556/512/353 512/513/354 511/509/350 508/508/349
f 509/514/355 513/515/356 512/513/354 556/512/353
f 555/511/352 510/510/351 538/516/357
f 512/513/354 516/517/358 515/518/359 511/509/350
f 513/515/356 517/519/360 516/517/358 512/513/354
f 510/510/351 514/520/361 538/516/357
f 511/509/350 515/518/359 514/520/361 510/510/351
f 515/518/359 519/521/362 518/522/363 514/520/361
f 516/517/358 520/523/364 519/521/362 515/518/359
f 517/519/360 521/524/365 520/523/364 516/517/358
f 514/520/361 518/522/363 538/516/357
f 521/524/365 525/525/366 524/526/367 520/523/364
f 518/522/363 522/527/368 538/516/357
f 519/521/362 523/528/369 522/527/368 518/522/363
f 520/523/364 524/526/367 523/528/369 519/521/362
f 524/526/367 528/529/370 527/530/371 523/528/369
f 525/525/366 529/531/372 528/529/370 524/526/367
f 522/527/368 526/532/373 538/516/357
f 523/528/369 527/530/371 526/532/373 522/527/368
f 527/530/371 531/533/374 530/534/375 526/532/373
f 528/529/370 532/535/376 531/533/374 527/530/371
f 529/531/372 533/536/377 532/535/376 528/529/370
f 526/532/373 530/534/375 538/516/357
f 533/536/377 537/537/378 536/538/379 532/535/376
f 530/534/375 534/539/380 538/516/357
f 531/533/374 535/540/381 534/539/380 530/534/375
f 532/535/376 536/538/379 535/540/381 531/533/374
f 536/538/379 541/541/382 540/542/383 535/540/381
f 537/537/378 542/543/384 541/541/382 536/538/379
f 534/539/380 539/544/385 538/516/357
f 535/540/381 540/542/383 539/544/385 534/539/380
f 540/542/383 544/545/386 543/546/387 539/544/385
f 541/541/382 545/547/388 544/545/386 540/542/383
f 542/543/384 546/548/389 545/547/388 541/541/382
f 539/544/385 543/546/387 538/516/357
f 546/548/389 550/549/390 549/550/391 545/547/388
f 543/546/387 547/551/392 538/516/357
f 544/545/386 548/552/393 547/551/392 543/546/387
f 545/547/388 549/550/391 548/552/393 544/545/386
f 549/550/391 553/553/394 552/554/395 548/552/393
f 550/549/390 554/555/396 553/553/394 549/550/391
f 547/551/392 551/556/397 538/516/357
f 548/552/393 552/554/395 551/556/397 547/551/392
f 552/554/395 508/508/349 555/511/352 551/556/397
f 553/553/394 556/512/353 508/508/349 552/554/395
f 554/555/396 509/514/355 556/512/353 553/553/394
f 551/556/397 555/511/352 538/516/357
f 557/557/349 560/558/350 559/559/351 604/560/352
f 605/561/353 561/562/354 560/558/350 557/557/349
f 558/563/355 562/564/356 561/562/354 605/561/353
f 604/560/352 559/559/351 587/565/357
f 561/562/354 565/566/358 564/567/359 560/558/350
f 562/564/356 566/568/360 565/566/358 561/562/354
f 559/559/351 563/569/361 587/565/357
f 560/558/350 564/567/359 563/569/361 559/559/351
f 564/567/359 568/570/362 567/571/363 563/569/361
f 565/566/358 569/572/364 568/570/362 564/567/359
f 566/568/360 570/573/365 569/572/364 565/566/358
f 563/569/361 567/571/363 587/565/357
f 570/573/365 574/574/366 573/575/367 569/572/364
f 567/571/363 571/576/368 587/565/357
f 568/570/362 572/577/369 571/576/368 567/571/363
f 569/572/364 573/575/367 572/577/369 568/570/362
f 573/575/367 577/578/370 576/579/371 572/577/369
f 574/574/366 578/580/372 577/578/370 573/575/367
f 571/576/368 575/581/373 587/565/357
f 572/577/369 576/579/371 575/581/373 571/576/368
f 576/579/371 580/582/374 579/583/375 575/581/373
f 577/578/370 581/584/376 580/582/374 576/579/371
f 578/580/372 582/585/377 581/584/376 577/578/370
f 575/581/373 579/583/375 587/565/357
f 582/585/377 586/586/378 585/587/379 581/584/376
f 579/583/375 583/588/380 587/565/357
f 580/582/374 584/589/381 583/588/380 579/583/375
f 581/584/376 585/587/379 584/589/381 580/582/374
f 585/587/379 590/590/382 589/591/383 584/589/381
f 586/586/378 591/592/384 590/590/382 585/587/379
f 583/588/380 588/593/385 587/565/357
f 584/589/381 589/591/383 588/593/385 583/588/380
f 589/591/383 593/594/386 592/595/387 588/593/385
f 590/590/382 594/596/388 593/594/386 589/591/383
f 591/592/384 595/597/389 594/596/388 590/590/382
f 588/593/385 592/595/387 587/565/357
f 595/597/389 599/598/390 598/599/391 594/596/388
f 592/595/387 596/600/392 587/565/357
f 593/594/386 597/601/393 596/600/392 592/595/387
f 594/596/388 598/599/391 597/601/393 593/594/386
f 598/599/391 602/602/394 601/603/395 597/601/393
f 599/598/390 603/604/396 602/602/394 598/599/391
f 596/600/392 600/605/397 587/565/357
f 597/601/393 601/603/395 600/605/397 596/600/392
f 601/603/395 557/557/349 604/560/352 600/605/397
f 602/602/394 605/561/353 557/557/349 601/603/395
f 603/604/396 558/563/355 605/561/353 602/602/394
f 600/605/397 604/560/352 587/565/357
