# Blender 4.3.2
# www.blender.org
mtllib scrolls.mtl
o scrolls
v -0.952070 0.768287 0.329943
v -0.390556 0.775879 0.346967
v -0.964737 0.762324 -0.111126
v -0.684557 0.779247 0.333128
v -0.402088 0.757371 -0.105314
v -0.517700 0.774883 -0.439397
v -0.671411 0.779944 -0.099773
v -0.529913 0.771475 0.349739
v -0.393109 0.767260 -0.319733
v -0.804039 0.766674 -0.434279
v -0.952295 0.769595 -0.318071
v -0.817480 0.760930 0.327027
v -0.393158 0.757211 0.123524
v -0.653106 0.766156 -0.437697
v -0.667301 0.771884 -0.316870
v -0.683126 0.773212 0.110313
v -0.822656 0.771291 -0.094154
v -0.528629 0.771885 -0.110017
v -0.547320 0.755624 0.109506
v -0.816250 0.775339 0.111821
v -0.809844 0.763004 -0.318899
v -0.521382 0.772430 -0.305595
v -0.965894 0.767576 -0.450282
v -0.952070 0.792435 0.363789
v -0.408428 0.756977 -0.449245
v -0.390556 0.801269 0.380203
v -0.684557 0.803601 0.366152
v -0.529913 0.797083 0.383294
v -0.817480 0.784882 0.361427
v -0.952070 0.831451 0.354665
v -0.390556 0.834732 0.373015
v -0.684557 0.841325 0.360390
v -0.529913 0.829791 0.374623
v -0.817480 0.825009 0.350069
v -0.952070 0.831647 0.323084
v -0.390556 0.834472 0.341509
v -0.684557 0.841376 0.329052
v -0.816214 0.827366 0.335889
v -0.517700 0.794850 -0.455051
v -0.804039 0.786133 -0.452893
v -0.653106 0.786095 -0.456600
v -0.965894 0.791942 -0.467835
v -0.408428 0.781678 -0.470676
v -0.517700 0.828387 -0.437827
v -0.653106 0.820549 -0.442023
v -0.965894 0.829602 -0.450881
v -0.408428 0.820730 -0.456774
v -0.838492 0.821092 -0.441566
v -0.769426 0.819194 -0.439730
v -0.490299 0.830908 0.342590
v -0.569279 0.832517 0.339464
v -0.954216 0.768000 0.152413
v -0.913410 0.770142 0.111280
v -0.956579 0.766890 0.069740
v -0.952283 0.758722 0.332851
v -0.390271 0.766533 0.350512
v -0.964427 0.752329 -0.111017
v -0.684656 0.769771 0.336319
v -0.402691 0.747395 -0.105645
v -0.518268 0.765784 -0.443506
v -0.671518 0.769945 -0.099807
v -0.530256 0.762134 0.353293
v -0.393970 0.757297 -0.319692
v -0.803918 0.757488 -0.438228
v -0.952377 0.759595 -0.318086
v -0.817195 0.751332 0.329820
v -0.393265 0.747214 0.123745
v -0.652876 0.756978 -0.441660
v -0.667059 0.761889 -0.316663
v -0.683368 0.763215 0.110233
v -0.822281 0.761299 -0.094016
v -0.529218 0.761905 -0.110273
v -0.547872 0.745639 0.109550
v -0.815886 0.765346 0.111736
v -0.809663 0.753007 -0.318779
v -0.521797 0.762439 -0.305514
v -0.965654 0.758727 -0.454933
v -0.952032 0.789190 0.373247
v -0.409923 0.747896 -0.453156
v -0.390284 0.797988 0.389645
v -0.685152 0.800275 0.375564
v -0.530328 0.793600 0.392658
v -0.817417 0.781042 0.370660
v -0.951601 0.839180 0.360993
v -0.390733 0.842684 0.379076
v -0.685178 0.849180 0.366547
v -0.530198 0.835130 0.383073
v -0.817845 0.832646 0.356515
v -0.951692 0.841624 0.323651
v -0.390913 0.844466 0.341422
v -0.684764 0.851372 0.329287
v -0.816632 0.837344 0.336419
v -0.518454 0.793736 -0.464961
v -0.803725 0.782544 -0.462222
v -0.653118 0.784413 -0.466458
v -0.964970 0.790720 -0.477717
v -0.410113 0.779981 -0.480385
v -0.518258 0.832474 -0.446936
v -0.653251 0.824621 -0.451155
v -0.964931 0.833607 -0.459993
v -0.409500 0.824649 -0.465912
v -0.837530 0.825098 -0.450678
v -0.769651 0.823093 -0.448936
v -0.490656 0.840901 0.342503
v -0.568523 0.842489 0.339433
v -0.954147 0.758004 0.152133
v -0.912877 0.760157 0.111400
v -0.956014 0.756908 0.069946
v -0.324736 0.830921 0.340171
v -0.286925 0.872008 0.364226
v -0.230198 0.872568 0.378425
v -0.188228 0.835369 0.375451
v -0.183675 0.784517 0.358350
v -0.216038 0.749981 0.337986
v -0.263809 0.749929 0.326180
v -0.298560 0.781298 0.328846
v -0.301861 0.823396 0.343119
v -0.274944 0.851383 0.359791
v -0.236130 0.850926 0.369205
v -0.208597 0.825387 0.366847
v -0.206549 0.792042 0.355402
v -0.228019 0.770605 0.342421
v -0.257878 0.771571 0.335399
v -0.278191 0.791280 0.337450
v -0.278986 0.815871 0.346067
v -0.207134 0.887765 0.089022
v -0.193268 0.874312 0.087622
v -0.172887 0.873652 0.092415
v -0.158231 0.888285 0.101276
v -0.159629 0.911046 0.109088
v -0.178423 0.928479 0.110698
v -0.204917 0.928791 0.104272
v -0.223291 0.909688 0.092891
v -0.197317 0.859539 0.081329
v -0.164709 0.859574 0.089388
v -0.142617 0.883149 0.103288
v -0.145726 0.917860 0.114961
v -0.174374 0.943252 0.116991
v -0.213095 0.942869 0.107299
v -0.238905 0.914824 0.090879
v -0.251332 0.826507 0.250875
v -0.234651 0.810323 0.249191
v -0.270768 0.852879 0.255530
v -0.268057 0.818310 0.243810
v -0.258503 0.892796 0.272861
v -0.289551 0.859058 0.253109
v -0.251984 0.846700 0.257950
v -0.248665 0.875861 0.269220
v -0.211922 0.893257 0.284521
v -0.216793 0.875485 0.276950
v -0.177459 0.862711 0.282079
v -0.194184 0.854514 0.275014
v -0.173719 0.820954 0.268037
v -0.192503 0.827133 0.265616
v -0.200295 0.792594 0.251315
v -0.210133 0.809529 0.254957
v -0.239522 0.792551 0.241620
v -0.200425 1.011454 -0.163581
v -0.162614 1.052540 -0.139526
v -0.105888 1.053101 -0.125326
v -0.063918 1.015902 -0.128301
v -0.059364 0.965050 -0.145401
v -0.091728 0.930513 -0.165765
v -0.139498 0.930462 -0.177571
v -0.174250 0.961831 -0.174905
v -0.177550 1.003929 -0.160633
v -0.150634 1.031916 -0.143960
v -0.111819 1.031459 -0.134546
v -0.084287 1.005920 -0.136905
v -0.082239 0.972575 -0.148349
v -0.103709 0.951138 -0.161330
v -0.133567 0.952104 -0.168352
v -0.153881 0.971813 -0.166301
v -0.154676 0.996404 -0.157685
v -0.208082 0.903962 0.096548
v -0.221443 0.880362 0.084793
v -0.170937 0.943262 -0.074914
v -0.154256 0.927078 -0.076598
v -0.190373 0.969634 -0.070259
v -0.187663 0.935065 -0.081979
v -0.178108 1.009552 -0.052927
v -0.209157 0.975814 -0.072680
v -0.171589 0.963455 -0.067839
v -0.168270 0.992616 -0.056569
v -0.131527 1.010012 -0.041268
v -0.136398 0.992240 -0.048838
v -0.097064 0.979466 -0.043710
v -0.113790 0.971269 -0.050775
v -0.093324 0.937709 -0.057752
v -0.112108 0.943888 -0.060173
v -0.119900 0.909349 -0.074474
v -0.129738 0.926285 -0.070832
v -0.159127 0.909307 -0.084169
v -0.331889 0.837880 0.339529
v -0.291134 0.881048 0.364973
v -0.227025 0.881681 0.381050
v -0.179367 0.839441 0.377665
v -0.174172 0.781411 0.358144
v -0.211307 0.741765 0.334807
v -0.266477 0.741653 0.321242
v -0.306929 0.778059 0.324434
v -0.310857 0.827344 0.341254
v -0.279091 0.860399 0.361024
v -0.232825 0.859851 0.372274
v -0.199680 0.829106 0.369426
v -0.197189 0.788524 0.355491
v -0.223648 0.762090 0.339526
v -0.260996 0.763248 0.330818
v -0.286873 0.788248 0.333522
v -0.288588 0.816513 0.343349
v -0.217359 0.905093 0.092465
v -0.215937 0.884653 0.085440
v -0.196536 0.865842 0.083431
v -0.168636 0.864942 0.089953
v -0.148958 0.884586 0.101833
v -0.150802 0.914616 0.112143
v -0.175222 0.937267 0.114238
v -0.209177 0.937674 0.105992
v -0.232437 0.913502 0.091554
v -0.229614 0.877535 0.079307
v -0.200201 0.850998 0.077000
v -0.160135 0.851047 0.086866
v -0.133220 0.879766 0.103785
v -0.136977 0.921715 0.117894
v -0.171350 0.952179 0.120333
v -0.217493 0.951729 0.108772
v -0.246271 0.921588 0.090905
v -0.260084 0.823455 0.247123
v -0.237862 0.801933 0.244799
v -0.279836 0.856779 0.253931
v -0.276543 0.815002 0.239680
v -0.262799 0.901759 0.273968
v -0.296812 0.865927 0.252791
v -0.261628 0.847292 0.255371
v -0.252861 0.884817 0.270697
v -0.208819 0.902285 0.287499
v -0.213538 0.884345 0.280252
v -0.168648 0.866682 0.284647
v -0.185310 0.858163 0.277829
v -0.164261 0.817709 0.268174
v -0.183183 0.823523 0.265935
v -0.195646 0.784216 0.248451
v -0.205829 0.800912 0.252271
v -0.242315 0.784148 0.236976
v -0.208147 1.017587 -0.161918
v -0.167427 1.060705 -0.136334
v -0.103306 1.061356 -0.120307
v -0.055651 1.019111 -0.123679
v -0.050458 0.961078 -0.143189
v -0.087579 0.921452 -0.166585
v -0.142712 0.921394 -0.180301
v -0.183111 0.957877 -0.177323
v -0.186987 1.007238 -0.160716
v -0.155185 1.040344 -0.141089
v -0.108907 1.039814 -0.129888
v -0.075765 1.009063 -0.132721
v -0.073277 0.968479 -0.146646
v -0.099720 0.942066 -0.162674
v -0.137030 0.943281 -0.171539
v -0.162853 0.968360 -0.169054
v -0.164518 0.996697 -0.159430
v -0.179896 0.939910 -0.077828
v -0.157713 0.918331 -0.079994
v -0.199756 0.973077 -0.070582
v -0.196501 0.931245 -0.084679
v -0.182838 1.017884 -0.050063
v -0.216828 0.982087 -0.071337
v -0.181404 0.963799 -0.069725
v -0.172756 1.001152 -0.053919
v -0.128849 1.018423 -0.036569
v -0.133424 1.000693 -0.044399
v -0.088680 0.982817 -0.039411
v -0.105198 0.974506 -0.046812
v -0.084296 0.933841 -0.055876
v -0.103073 0.939864 -0.058698
v -0.115670 0.900363 -0.075641
v -0.125708 0.917269 -0.072408
v -0.162312 0.900334 -0.087227
v -0.217969 0.941131 0.104183
v -0.250527 0.944704 0.098016
v -0.224634 0.923234 0.122111
v -0.256013 0.929972 0.112774
v -0.230865 0.897805 0.121467
v -0.261143 0.909040 0.112244
v -0.233013 0.879738 0.102628
v -0.262911 0.894168 0.096736
v -0.228009 0.879022 0.076864
v -0.260282 0.894069 0.075336
v -0.223155 0.897514 0.058703
v -0.254796 0.908800 0.060579
v -0.216924 0.922944 0.059347
v -0.249667 0.929733 0.061109
v -0.214776 0.941010 0.078186
v -0.247898 0.944605 0.076616
v -0.256144 0.932247 0.118380
v -0.249479 0.950143 0.100453
v -0.262375 0.906817 0.117736
v -0.264523 0.888750 0.098898
v -0.261330 0.888630 0.072900
v -0.254665 0.906526 0.054972
v -0.248434 0.931956 0.055616
v -0.246286 0.950022 0.074455
v -0.251456 0.928460 0.112381
v -0.246170 0.942652 0.098164
v -0.256397 0.908293 0.111871
v -0.258101 0.893965 0.096931
v -0.255568 0.893869 0.076313
v -0.250283 0.908062 0.062096
v -0.245341 0.928229 0.062607
v -0.243638 0.942557 0.077547
v -0.251229 0.947334 0.098881
v -0.257204 0.931290 0.114953
v -0.262791 0.908491 0.114376
v -0.264716 0.892294 0.097486
v -0.261853 0.892186 0.074179
v -0.255878 0.908231 0.058106
v -0.250292 0.931029 0.058684
v -0.248366 0.947226 0.075573
v -0.138428 0.820155 0.103819
v -0.116156 0.875193 0.090736
v -0.068701 0.894958 0.062859
v -0.024943 0.870905 0.037153
v -0.009433 0.820155 0.028042
v -0.028641 0.773694 0.039326
v -0.068701 0.757482 0.062859
v -0.105063 0.777983 0.084219
v -0.117510 0.820155 0.091531
v -0.101365 0.858039 0.082047
v -0.068701 0.870698 0.062859
v -0.039734 0.853750 0.045842
v -0.030351 0.820155 0.040330
v -0.043432 0.790849 0.048015
v -0.068701 0.781743 0.062859
v -0.090271 0.795138 0.075530
v -0.096592 0.820155 0.079243
v -0.228237 0.821249 -0.163038
v -0.223923 0.804172 -0.165573
v -0.209199 0.795029 -0.174222
v -0.191950 0.801245 -0.184355
v -0.189426 0.844180 -0.185838
v -0.209199 0.855749 -0.174222
v -0.231495 0.847108 -0.161124
v -0.234019 0.792462 -0.159642
v -0.209199 0.778469 -0.174222
v -0.181854 0.789535 -0.190286
v -0.168742 0.821249 -0.197988
v -0.179330 0.855890 -0.191769
v -0.209199 0.872309 -0.174222
v -0.241592 0.858817 -0.155193
v -0.256794 0.821249 -0.146263
v -0.136079 0.800228 -0.010105
v -0.118366 0.789229 -0.020510
v -0.158446 0.820771 0.003034
v -0.148225 0.786142 -0.002970
v -0.157334 0.865966 0.002381
v -0.175622 0.820771 0.013125
v -0.141269 0.820771 -0.007056
v -0.145188 0.851879 -0.004754
v -0.118366 0.882196 -0.020510
v -0.118366 0.862274 -0.020510
v -0.082434 0.862444 -0.041618
v -0.094580 0.848358 -0.034483
v -0.069698 0.820771 -0.049100
v -0.086875 0.820771 -0.039010
v -0.085471 0.782620 -0.039834
v -0.097617 0.796707 -0.032699
v -0.118366 0.769308 -0.020510
v -0.416693 0.820155 -0.369867
v -0.394421 0.875193 -0.382950
v -0.346965 0.894958 -0.410828
v -0.303208 0.870905 -0.436533
v -0.287698 0.820155 -0.445645
v -0.306906 0.773694 -0.434361
v -0.346966 0.757482 -0.410828
v -0.383328 0.777983 -0.389467
v -0.395775 0.820155 -0.382155
v -0.379630 0.858039 -0.391640
v -0.346966 0.870698 -0.410828
v -0.317999 0.853750 -0.427844
v -0.308616 0.820155 -0.433357
v -0.321697 0.790849 -0.425672
v -0.346966 0.781743 -0.410828
v -0.368536 0.795138 -0.398156
v -0.374856 0.820155 -0.394444
v -0.182113 0.821249 -0.188054
v -0.241607 0.821249 -0.153105
v -0.316040 0.800228 -0.316450
v -0.298327 0.789229 -0.326856
v -0.338407 0.820771 -0.303311
v -0.328186 0.786142 -0.309315
v -0.337295 0.865966 -0.303964
v -0.355584 0.820771 -0.293221
v -0.321230 0.820771 -0.313402
v -0.325149 0.851879 -0.311099
v -0.298327 0.882196 -0.326856
v -0.298327 0.862274 -0.326856
v -0.262396 0.862444 -0.347964
v -0.274541 0.848358 -0.340829
v -0.249659 0.820771 -0.355446
v -0.266836 0.820771 -0.345355
v -0.265432 0.782620 -0.346180
v -0.277578 0.796707 -0.339045
v -0.298327 0.769308 -0.326856
v -0.146808 0.824370 0.107285
v -0.122593 0.882513 0.092971
v -0.068945 0.904861 0.061488
v -0.019261 0.877545 0.032293
v -0.001565 0.819629 0.021892
v -0.023582 0.766314 0.034861
v -0.069784 0.747570 0.062098
v -0.112014 0.771371 0.087042
v -0.126567 0.820768 0.095725
v -0.107471 0.865536 0.084598
v -0.068519 0.880634 0.061747
v -0.033652 0.860228 0.041255
v -0.022236 0.819339 0.034543
v -0.038333 0.783221 0.044038
v -0.069875 0.771814 0.062667
v -0.097255 0.788818 0.078890
v -0.105123 0.817347 0.083640
v -0.236622 0.818438 -0.158372
v -0.230759 0.797883 -0.161870
v -0.210192 0.785080 -0.174011
v -0.186604 0.793578 -0.187910
v -0.174622 0.820427 -0.194965
v -0.183071 0.850684 -0.189999
v -0.208761 0.865716 -0.174904
v -0.237345 0.854644 -0.158126
v -0.251320 0.821907 -0.149955
v -0.240714 0.785857 -0.156242
v -0.209971 0.768499 -0.174360
v -0.176395 0.782087 -0.194125
v -0.160429 0.820717 -0.203520
v -0.173223 0.862583 -0.196001
v -0.209058 0.882282 -0.174947
v -0.247668 0.866206 -0.152279
v -0.264858 0.825491 -0.142143
v -0.143003 0.793940 -0.006567
v -0.119468 0.779290 -0.020493
v -0.167381 0.821425 0.007476
v -0.155066 0.779547 0.000145
v -0.163593 0.873331 0.004946
v -0.183855 0.825002 0.016910
v -0.149728 0.817962 -0.002525
v -0.151164 0.859404 -0.001985
v -0.118422 0.892140 -0.021566
v -0.118058 0.872229 -0.021411
v -0.076542 0.869117 -0.046174
v -0.088364 0.854852 -0.038862
v -0.061607 0.820241 -0.054953
v -0.078618 0.819951 -0.044591
v -0.080220 0.775195 -0.043992
v -0.092401 0.789051 -0.036465
v -0.119314 0.759363 -0.020956
v -0.423800 0.824370 -0.364235
v -0.399507 0.882513 -0.378417
v -0.345887 0.904861 -0.409948
v -0.296196 0.877545 -0.439130
v -0.278495 0.819629 -0.449522
v -0.300543 0.766314 -0.436606
v -0.346829 0.747570 -0.409512
v -0.389177 0.771371 -0.384770
v -0.403848 0.820768 -0.376286
v -0.384831 0.865536 -0.387548
v -0.345906 0.880634 -0.410445
v -0.311031 0.860228 -0.430923
v -0.299610 0.819339 -0.437626
v -0.315741 0.783221 -0.428190
v -0.347370 0.771814 -0.409709
v -0.374871 0.788818 -0.393693
v -0.382851 0.817347 -0.389132
v -0.322501 0.793940 -0.312125
v -0.298879 0.779290 -0.325902
v -0.346637 0.821425 -0.297669
v -0.334238 0.779547 -0.304856
v -0.342583 0.873331 -0.299746
v -0.362898 0.825002 -0.287873
v -0.329307 0.817962 -0.308219
v -0.330477 0.859404 -0.307227
v -0.297432 0.892140 -0.326293
v -0.297391 0.872229 -0.326686
v -0.255547 0.869117 -0.350892
v -0.267690 0.854852 -0.344127
v -0.240608 0.820241 -0.359663
v -0.257941 0.819951 -0.349850
v -0.259244 0.775195 -0.348742
v -0.271749 0.789051 -0.341767
v -0.298399 0.759363 -0.325810
v -0.290926 0.828369 -0.177014
v -0.274570 0.781658 -0.186622
v -0.236266 0.760239 -0.209124
v -0.196122 0.776507 -0.232706
v -0.177654 0.820932 -0.243555
v -0.188580 0.867287 -0.237136
v -0.229985 0.888909 -0.212813
v -0.270129 0.872641 -0.189231
v -0.247336 0.828369 -0.102810
v -0.230980 0.781658 -0.112418
v -0.192676 0.760239 -0.134920
v -0.152531 0.776507 -0.158503
v -0.134063 0.820932 -0.169352
v -0.144990 0.867287 -0.162933
v -0.186394 0.888909 -0.138610
v -0.226539 0.872641 -0.115028
v -0.255284 0.776993 -0.098454
v -0.273622 0.758152 -0.087526
v -0.317212 0.758152 -0.161730
v -0.298875 0.776993 -0.172658
v -0.296891 0.758314 -0.079187
v -0.335826 0.758314 -0.145465
v -0.337550 0.758355 -0.136257
v -0.305774 0.758355 -0.082165
v -0.233641 0.890896 -0.213436
v -0.271579 0.875326 -0.185962
v -0.271647 0.878753 -0.183856
v -0.234814 0.893080 -0.212909
v -0.225708 0.879297 -0.112567
v -0.189305 0.893523 -0.133413
v -0.227168 0.875118 -0.111023
v -0.186813 0.891244 -0.135521
v -0.281720 0.827313 -0.182422
v -0.267832 0.788992 -0.190580
v -0.235738 0.771046 -0.209434
v -0.202337 0.784581 -0.229055
v -0.186822 0.821904 -0.238169
v -0.195826 0.860103 -0.232880
v -0.233506 0.873194 -0.217233
v -0.267710 0.863324 -0.199436
v -0.238131 0.827315 -0.108218
v -0.224242 0.788992 -0.116377
v -0.192148 0.771046 -0.135230
v -0.158747 0.784581 -0.154851
v -0.143231 0.821904 -0.163966
v -0.152235 0.860103 -0.158677
v -0.183773 0.878140 -0.136174
v -0.219903 0.863574 -0.115396
v -0.247317 0.771812 -0.103135
v -0.270179 0.748209 -0.089549
v -0.313760 0.748213 -0.163758
v -0.290907 0.771811 -0.177338
v -0.296949 0.748314 -0.079153
v -0.335884 0.748314 -0.145431
v -0.337607 0.748355 -0.136223
v -0.305831 0.748355 -0.082131
v -0.239502 0.891264 -0.221686
v -0.278310 0.877568 -0.193638
v -0.276809 0.884429 -0.189520
v -0.242396 0.899993 -0.218650
v -0.224674 0.887068 -0.103756
v -0.187830 0.901810 -0.127406
v -0.222484 0.873969 -0.105314
v -0.183046 0.889570 -0.128978
v -0.282748 0.805014 -0.181818
v -0.239158 0.805014 -0.107614
v -0.274776 0.808152 -0.186501
v -0.231186 0.808153 -0.112297
vn -0.7718 0.6097 -0.1803
vn 0.7605 0.6045 -0.2372
vn -0.7449 0.6671 -0.0124
vn 0.0099 0.9477 -0.3191
vn 0.7437 0.6681 0.0225
vn 0.0568 0.9099 0.4109
vn 0.0106 0.9999 0.0034
vn 0.0343 0.9341 -0.3554
vn 0.7661 0.6421 -0.0281
vn -0.0121 0.9187 0.3949
vn -0.6865 0.7270 0.0154
vn -0.0285 0.9598 -0.2793
vn 0.7280 0.6847 -0.0344
vn -0.0229 0.9178 0.3964
vn -0.0242 0.9995 -0.0207
vn 0.0243 0.9997 0.0080
vn -0.0375 0.9992 -0.0139
vn 0.0589 0.9979 0.0256
vn 0.0552 0.9985 -0.0043
vn -0.0363 0.9993 0.0085
vn -0.0181 0.9998 -0.0119
vn 0.0415 0.9991 -0.0081
vn -0.8428 0.4629 0.2745
vn -0.8616 0.1762 -0.4761
vn 0.8988 0.4222 0.1176
vn 0.8379 0.1866 -0.5129
vn 0.0595 0.3326 -0.9412
vn 0.0414 0.3483 -0.9365
vn -0.0062 0.3841 -0.9233
vn -0.8915 -0.3471 -0.2912
vn 0.8853 -0.3622 -0.2916
vn 0.0621 -0.7855 -0.6158
vn 0.0288 -0.0962 -0.9949
vn 0.0366 -0.7636 -0.6446
vn -0.5627 -0.5198 -0.6428
vn 0.5936 -0.5627 -0.5753
vn 0.0260 -0.6523 -0.7575
vn 0.0437 -0.7040 -0.7089
vn 0.0754 0.1114 0.9909
vn -0.0110 0.7219 0.6919
vn 0.0013 0.1682 0.9858
vn -0.8883 0.0688 0.4540
vn 0.9219 0.0554 0.3835
vn 0.0629 0.3694 0.9271
vn -0.0141 0.3537 0.9353
vn -0.6208 0.3302 0.7111
vn 0.6881 0.2933 0.6637
vn 0.2978 0.4427 0.8457
vn -0.3240 0.4685 0.8219
vn -0.2801 -0.5737 -0.7696
vn 0.3058 -0.5798 -0.7552
vn -0.7305 0.6240 -0.2773
vn -0.4637 0.8860 -0.0068
vn -0.7381 0.6011 0.3065
vn -0.6523 -0.7210 0.2340
vn 0.6654 -0.6966 0.2682
vn -0.6918 -0.7221 0.0035
vn -0.0110 -0.9434 0.3315
vn 0.6498 -0.7597 -0.0246
vn -0.0576 -0.9051 -0.4213
vn -0.0107 -0.9999 -0.0034
vn -0.0349 -0.9294 0.3675
vn 0.6756 -0.7368 -0.0269
vn 0.0121 -0.9160 -0.4011
vn -0.6892 -0.7245 0.0096
vn 0.0285 -0.9564 0.2908
vn 0.6919 -0.7220 -0.0022
vn 0.0241 -0.9135 -0.4062
vn 0.0244 -0.9996 0.0171
vn -0.0241 -0.9997 -0.0070
vn 0.0376 -0.9992 0.0139
vn -0.0589 -0.9979 -0.0256
vn -0.0552 -0.9985 0.0052
vn 0.0366 -0.9993 -0.0074
vn 0.0179 -0.9998 0.0083
vn -0.0416 -0.9991 0.0047
vn -0.6102 -0.7096 -0.3524
vn -0.6000 -0.2432 0.7621
vn 0.4950 -0.7769 -0.3891
vn 0.6218 -0.2462 0.7435
vn -0.0621 -0.3181 0.9460
vn -0.0415 -0.3387 0.9400
vn 0.0054 -0.3720 0.9282
vn -0.5590 0.6265 0.5432
vn 0.5796 0.6341 0.5119
vn -0.0623 0.7654 0.6405
vn -0.0140 0.8135 0.5814
vn -0.0371 0.7422 0.6691
vn -0.5369 0.6411 -0.5484
vn 0.5520 0.6143 -0.5638
vn -0.0031 0.7513 -0.6600
vn -0.0167 0.7678 -0.6404
vn -0.0749 -0.1215 -0.9898
vn 0.0381 -0.0246 -0.9990
vn -0.0013 -0.1805 -0.9836
vn -0.5569 -0.1094 -0.8233
vn 0.5024 -0.1635 -0.8491
vn -0.0131 0.9454 -0.3257
vn -0.0362 0.9189 -0.3929
vn -0.5101 0.7827 -0.3566
vn 0.5292 0.7408 -0.4136
vn 0.3766 0.8527 -0.3619
vn -0.3139 0.8645 -0.3925
vn -0.2812 0.7322 -0.6203
vn 0.3441 0.7295 -0.5911
vn -0.7084 -0.6341 -0.3100
vn -0.3768 -0.9262 0.0151
vn -0.6710 -0.6618 0.3343
vn -0.1437 -0.9384 0.3142
vn 0.0173 -0.6990 0.7149
vn -0.3367 -0.7029 0.6266
vn -0.6069 -0.4630 0.6460
vn -0.6373 -0.1212 0.7610
vn -0.4107 0.1247 0.9032
vn -0.0534 0.1327 0.9897
vn 0.2315 -0.1097 0.9666
vn 0.2701 -0.4693 0.8407
vn 0.0274 -0.7301 0.6828
vn -0.3545 -0.7271 0.5879
vn -0.6431 -0.4589 0.6131
vn -0.6657 -0.0859 0.7413
vn -0.4089 0.1743 0.8958
vn -0.0176 0.1691 0.9854
vn 0.2833 -0.1075 0.9530
vn 0.3738 0.3228 0.8695
vn 0.8667 0.4509 -0.2133
vn 0.4027 0.8976 -0.1793
vn -0.2250 0.9185 -0.3252
vn -0.6449 0.4999 -0.5781
vn -0.6077 -0.1083 -0.7867
vn -0.1368 -0.5452 -0.8270
vn 0.4881 -0.5532 -0.6751
vn 0.9043 -0.1327 -0.4058
vn 0.3773 0.9126 -0.1578
vn -0.2524 0.9107 -0.3269
vn -0.6582 0.4782 -0.5815
vn -0.6036 -0.1313 -0.7864
vn -0.1215 -0.5585 -0.8205
vn 0.5031 -0.5526 -0.6645
vn 0.1966 -0.7810 -0.5928
vn 0.8754 0.3050 0.3752
vn 0.3211 0.8390 0.4392
vn 0.9069 -0.3898 0.1601
vn 0.8485 0.3308 0.4130
vn 0.4296 -0.8962 -0.1106
vn 0.1005 -0.9543 -0.2815
vn 0.6657 0.6223 0.4118
vn 0.4196 -0.8956 -0.1477
vn -0.3103 -0.9028 -0.2977
vn -0.3255 -0.8860 -0.3302
vn -0.8811 -0.3971 -0.2568
vn -0.8875 -0.3649 -0.2815
vn -0.9458 0.3245 -0.0137
vn -0.9320 0.3610 -0.0319
vn -0.4649 0.8378 0.2864
vn -0.4304 0.8617 0.2686
vn 0.2796 0.8403 0.4645
vn 0.1409 -0.5250 -0.8393
vn 0.4162 -0.1198 -0.9014
vn 0.0624 -0.1234 -0.9904
vn -0.2078 0.1166 -0.9712
vn -0.2382 0.4584 -0.8562
vn -0.0124 0.7031 -0.7109
vn 0.3430 0.7085 -0.6168
vn 0.6252 0.4621 -0.6290
vn 0.6611 0.0985 -0.7438
vn 0.4165 -0.1650 -0.8940
vn 0.0339 -0.1630 -0.9860
vn -0.2546 0.1054 -0.9613
vn -0.2771 0.4784 -0.8333
vn -0.0212 0.7373 -0.6753
vn 0.3680 0.7291 -0.5771
vn 0.6657 0.4479 -0.5968
vn 0.6484 0.7215 -0.2430
vn 0.7191 0.6904 0.0785
vn 0.8606 0.4762 -0.1804
vn 0.8958 0.3355 0.2914
vn 0.3457 0.8748 0.3394
vn 0.9383 -0.3444 0.0321
vn 0.8838 0.3821 0.2699
vn 0.4730 -0.8331 -0.2867
vn 0.1148 -0.9328 -0.3417
vn 0.6754 0.6375 0.3707
vn 0.4486 -0.8535 -0.2651
vn -0.2677 -0.8410 -0.4701
vn -0.2973 -0.8452 -0.4441
vn -0.8383 -0.3350 -0.4302
vn -0.8591 -0.3237 -0.3965
vn -0.9028 0.3869 -0.1878
vn -0.9035 0.4024 -0.1476
vn -0.4229 0.8986 0.1165
vn -0.4029 0.9016 0.1575
vn 0.3183 0.8974 0.3056
vn -0.9620 -0.1314 0.2393
vn -0.5003 0.5576 0.6624
vn 0.1233 0.5627 0.8174
vn 0.6078 0.1336 0.7828
vn 0.6626 -0.4774 0.5771
vn 0.2562 -0.9106 0.3242
vn -0.3702 -0.9122 0.1756
vn -0.8465 -0.4847 0.2204
vn -0.8939 0.1160 0.4329
vn -0.4888 0.5350 0.6891
vn 0.1278 0.5266 0.8405
vn 0.5917 0.0966 0.8004
vn 0.6284 -0.5010 0.5950
vn 0.2163 -0.9119 0.3487
vn -0.3985 -0.8927 0.2104
vn -0.8435 -0.4676 0.2645
vn -0.7409 0.3893 0.5473
vn -0.5768 0.7863 -0.2216
vn -0.7262 -0.1801 -0.6635
vn -0.2252 -0.6704 -0.7070
vn 0.4713 -0.6943 -0.5439
vn 0.9369 -0.2303 -0.2629
vn 0.8957 0.4436 -0.0316
vn 0.3745 0.9272 0.0130
vn -0.3168 0.9358 -0.1546
vn -0.7666 0.4689 -0.4387
vn -0.7133 -0.2009 -0.6715
vn -0.1890 -0.6802 -0.7082
vn 0.4978 -0.6830 -0.5345
vn 0.9451 -0.2064 -0.2535
vn 0.8850 0.4648 -0.0278
vn 0.3544 0.9350 0.0097
vn -0.3272 0.9311 -0.1612
vn -0.8407 0.0833 -0.5351
vn -0.8690 -0.3188 -0.3783
vn -0.3213 -0.8390 -0.4392
vn -0.9068 0.3900 -0.1599
vn -0.8486 -0.3307 -0.4129
vn -0.4236 0.8987 0.1134
vn -0.9429 0.0186 -0.3325
vn -0.7095 0.7034 0.0423
vn -0.4196 0.8956 0.1477
vn 0.3103 0.9028 0.2977
vn 0.3255 0.8860 0.3302
vn 0.8811 0.3971 0.2568
vn 0.8875 0.3649 0.2815
vn 0.9458 -0.3245 0.0137
vn 0.9320 -0.3610 0.0319
vn 0.4648 -0.8378 -0.2864
vn 0.4303 -0.8618 -0.2687
vn -0.2794 -0.8404 -0.4645
vn -0.7447 0.1843 -0.6415
vn -0.2571 0.9108 -0.3231
vn 0.3662 0.9155 -0.1668
vn 0.8505 0.4861 -0.2008
vn 0.9052 -0.1250 -0.4061
vn 0.4999 -0.5567 -0.6635
vn -0.1238 -0.5543 -0.8230
vn -0.5962 -0.1213 -0.7936
vn -0.6400 0.4848 -0.5961
vn -0.2323 0.9074 -0.3502
vn 0.3852 0.9004 -0.2025
vn 0.8489 0.4701 -0.2418
vn 0.8855 -0.1277 -0.4467
vn 0.4745 -0.5370 -0.6975
vn -0.1376 -0.5139 -0.8468
vn -0.5778 -0.0817 -0.8121
vn -0.4958 0.7452 -0.4459
vn -0.8896 -0.3488 -0.2947
vn -0.3459 -0.8748 -0.3393
vn -0.9384 0.3442 -0.0320
vn -0.8839 -0.3821 -0.2697
vn -0.4669 0.8358 0.2890
vn -0.9872 -0.0453 -0.1529
vn -0.7241 0.6823 0.1007
vn -0.4486 0.8535 0.2652
vn 0.2677 0.8409 0.4703
vn 0.2973 0.8451 0.4442
vn 0.8382 0.3349 0.4303
vn 0.8591 0.3236 0.3966
vn 0.9027 -0.3869 0.1880
vn 0.9034 -0.4025 0.1477
vn 0.4229 -0.8987 -0.1163
vn 0.4028 -0.9016 -0.1574
vn -0.3186 -0.8973 -0.3054
vn 0.7486 0.5380 0.3875
vn -0.7855 -0.4911 -0.3765
vn 0.5944 0.1394 0.7920
vn -0.6396 -0.1098 -0.7608
vn 0.4458 -0.4340 0.7829
vn -0.5008 0.4350 -0.7483
vn 0.3797 -0.8557 0.3515
vn -0.4510 0.8238 -0.3435
vn 0.4800 -0.8460 -0.2323
vn -0.5200 0.8264 0.2161
vn 0.6097 -0.4493 -0.6529
vn -0.6671 0.4414 0.6001
vn 0.7682 0.1348 -0.6258
vn -0.8054 -0.1032 0.5837
vn 0.8203 0.5372 -0.1960
vn -0.8541 -0.4883 0.1793
vn -0.5133 0.4492 0.7312
vn -0.3385 0.8965 0.2857
vn -0.6808 -0.1811 0.7097
vn -0.7436 -0.6243 0.2395
vn -0.6663 -0.6265 -0.4043
vn -0.4932 -0.1870 -0.8496
vn -0.3247 0.4425 -0.8359
vn -0.2602 0.8937 -0.3656
vn -0.6683 -0.0954 -0.7378
vn -0.8055 -0.4640 -0.3686
vn -0.5399 0.4285 -0.7245
vn -0.4956 0.8008 -0.3364
vn -0.5614 0.8033 0.1991
vn -0.6986 0.4346 0.5683
vn -0.8270 -0.0893 0.5550
vn -0.8713 -0.4615 0.1669
vn -0.9551 0.2783 -0.1022
vn -0.9635 0.2540 -0.0845
vn -0.9692 0.2285 -0.0916
vn -0.9700 0.2166 -0.1102
vn -0.9677 0.2161 -0.1300
vn -0.9623 0.2279 -0.1488
vn -0.9548 0.2540 -0.1545
vn -0.9509 0.2785 -0.1348
vn 0.4856 -0.7529 0.4442
vn 0.7223 -0.3477 0.5978
vn 0.4265 -0.4712 0.7720
vn 0.1448 -0.3159 0.9377
vn 0.0407 0.0253 0.9988
vn 0.1732 0.3541 0.9190
vn 0.4685 0.4814 0.7408
vn 0.7595 0.3261 0.5629
vn 0.8708 -0.0331 0.4905
vn 0.7246 -0.3851 0.5716
vn 0.4025 -0.5119 0.7589
vn 0.0990 -0.3336 0.9375
vn -0.0057 0.0424 0.9991
vn 0.1487 0.3959 0.9062
vn 0.4753 0.5211 0.7089
vn 0.7870 0.3355 0.5178
vn 0.6160 0.7098 0.3417
vn 0.2314 0.8208 -0.5222
vn 0.2779 0.5255 -0.8041
vn -0.2103 0.8310 -0.5149
vn -0.7398 0.6465 -0.1864
vn -0.8252 -0.5484 -0.1354
vn -0.3298 -0.8342 -0.4421
vn 0.2104 -0.6351 -0.7432
vn 0.2800 0.5582 -0.7810
vn -0.2326 0.8382 -0.4933
vn -0.7575 0.6265 -0.1835
vn -0.9981 0.0447 -0.0415
vn -0.8122 -0.5636 -0.1507
vn -0.3096 -0.8398 -0.4460
vn 0.2129 -0.6225 -0.7531
vn 0.1387 -0.8739 -0.4659
vn 0.6924 0.6289 -0.3538
vn 0.1102 0.9939 -0.0017
vn 0.8936 -0.0654 -0.4441
vn 0.6843 0.6593 -0.3115
vn 0.6259 -0.7365 -0.2565
vn 0.3240 -0.9337 -0.1524
vn 0.4290 0.8746 -0.2261
vn 0.5978 -0.7523 -0.2769
vn 0.0056 -0.9944 0.1056
vn -0.0308 -0.9955 0.0901
vn -0.5892 -0.6673 0.4556
vn -0.6218 -0.6493 0.4380
vn -0.8091 0.0530 0.5853
vn -0.8257 0.0820 0.5582
vn -0.5251 0.7425 0.4158
vn -0.5217 0.7654 0.3768
vn 0.0948 0.9945 0.0446
vn -0.1516 -0.7529 -0.6405
vn -0.1705 -0.3477 -0.9220
vn -0.4667 -0.4712 -0.7484
vn -0.7485 -0.3159 -0.5830
vn -0.8526 0.0253 -0.5219
vn -0.7184 0.3540 -0.5988
vn -0.4189 0.4814 -0.7699
vn -0.1219 0.3261 -0.9375
vn -0.0045 -0.0331 -0.9994
vn -0.1465 -0.3851 -0.9112
vn -0.4669 -0.5119 -0.7211
vn -0.7707 -0.3336 -0.5429
vn -0.8754 0.0424 -0.4815
vn -0.7191 0.3959 -0.5711
vn -0.3878 0.5211 -0.7603
vn -0.0691 0.3355 -0.9395
vn 0.0014 0.7098 -0.7044
vn -0.9974 0.0705 -0.0174
vn 0.4730 -0.0558 -0.8793
vn 0.6460 0.6289 -0.4326
vn 0.0551 0.9939 -0.0955
vn 0.8230 -0.0654 -0.5643
vn 0.6049 0.6597 -0.4460
vn 0.5286 -0.7365 -0.4221
vn 0.2904 -0.9339 -0.2086
vn 0.4063 0.8746 -0.2647
vn 0.5326 -0.7526 -0.3872
vn -0.0897 -0.9944 -0.0565
vn -0.0938 -0.9954 -0.0171
vn -0.6850 -0.6673 0.2926
vn -0.6850 -0.6497 0.3296
vn -0.9053 0.0530 0.4215
vn -0.8896 0.0820 0.4494
vn -0.6190 0.7425 0.2560
vn -0.5827 0.7658 0.2720
vn 0.0071 0.9945 -0.1048
vn -0.4786 -0.2615 0.8382
vn -0.2142 0.6268 0.7491
vn 0.3072 0.8428 0.4419
vn 0.8121 0.5652 0.1450
vn 0.9984 -0.0446 0.0353
vn 0.7586 -0.6265 0.1790
vn 0.2372 -0.8376 0.4922
vn -0.2554 -0.5556 0.7913
vn -0.4282 0.0494 0.9023
vn -0.1812 0.6196 0.7637
vn 0.3392 0.8204 0.4603
vn 0.8269 0.5350 0.1733
vn 0.9950 -0.0672 0.0743
vn 0.7453 -0.6281 0.2238
vn 0.2288 -0.8138 0.5341
vn -0.2356 -0.5228 0.8193
vn -0.3748 0.3741 0.8483
vn -0.8829 0.4496 0.1353
vn -0.8043 -0.5933 0.0324
vn -0.2688 -0.9218 -0.2793
vn 0.3161 -0.7099 -0.6293
vn 0.5961 -0.0756 -0.7994
vn 0.4101 0.6024 -0.6848
vn -0.1334 0.9236 -0.3595
vn -0.7153 0.6985 -0.0238
vn -0.9895 0.0613 0.1312
vn -0.7906 -0.6120 0.0202
vn -0.2399 -0.9240 -0.2977
vn 0.3398 -0.6907 -0.6384
vn 0.6053 -0.0494 -0.7945
vn 0.4005 0.6205 -0.6742
vn -0.1526 0.9245 -0.3494
vn -0.7243 0.6894 -0.0149
vn -0.9278 -0.3346 0.1649
vn -0.6839 -0.6407 0.3490
vn -0.1103 -0.9939 0.0018
vn -0.8935 0.0655 0.4442
vn -0.6842 -0.6594 0.3115
vn -0.6212 0.7413 0.2541
vn -0.8558 -0.3403 0.3896
vn -0.7766 0.4701 0.4194
vn -0.5976 0.7525 0.2769
vn -0.0055 0.9944 -0.1056
vn 0.0308 0.9955 -0.0901
vn 0.5892 0.6673 -0.4556
vn 0.6217 0.6495 -0.4379
vn 0.8091 -0.0530 -0.5853
vn 0.8257 -0.0821 -0.5581
vn 0.5251 -0.7426 -0.4158
vn 0.5215 -0.7657 -0.3766
vn -0.0949 -0.9945 -0.0446
vn -0.9652 -0.2615 0.0099
vn -0.7587 0.6268 -0.1776
vn -0.2364 0.8428 -0.4835
vn 0.2687 0.5652 -0.7799
vn 0.4552 -0.0446 -0.8893
vn 0.2130 -0.6265 -0.7497
vn -0.3145 -0.8376 -0.4468
vn -0.8155 -0.5556 -0.1622
vn -0.9966 0.0494 -0.0653
vn -0.7553 0.6196 -0.2136
vn -0.2369 0.8204 -0.5204
vn 0.2512 0.5350 -0.8067
vn 0.4195 -0.0672 -0.9053
vn 0.1673 -0.6281 -0.7599
vn -0.3551 -0.8138 -0.4599
vn -0.8303 -0.5228 -0.1931
vn -0.9234 0.3741 -0.0856
vn -0.6377 -0.6407 0.4276
vn -0.0552 -0.9939 0.0957
vn -0.8229 0.0655 0.5644
vn -0.6050 -0.6594 0.4462
vn -0.5242 0.7413 0.4192
vn -0.7568 -0.3399 0.5583
vn -0.7444 0.4700 0.4743
vn -0.5326 0.7525 0.3874
vn 0.0898 0.9943 0.0567
vn 0.0938 0.9954 0.0172
vn 0.6850 0.6673 -0.2924
vn 0.6853 0.6495 -0.3296
vn 0.9054 -0.0530 -0.4213
vn 0.8896 -0.0821 -0.4492
vn 0.6190 -0.7425 -0.2558
vn 0.5830 -0.7657 -0.2719
vn -0.0071 -0.9945 0.1049
vn -0.9543 0.2569 -0.1529
vn -0.8074 -0.5290 -0.2615
vn -0.3571 -0.7752 -0.5212
vn 0.1266 -0.5791 -0.8053
vn 0.3404 -0.0703 -0.9377
vn 0.2263 0.5388 -0.8115
vn 0.3540 0.8579 -0.3724
vn -0.7318 0.1194 0.6710
vn -0.2913 0.2487 0.9237
vn -0.1647 -0.5290 0.8325
vn 0.2814 -0.7752 0.5656
vn 0.7651 -0.5791 0.2815
vn 0.9847 -0.0703 0.1592
vn 0.8211 0.5322 0.2063
vn 0.3870 0.9149 -0.1151
vn -0.7996 0.4703 0.3734
vn -0.0644 0.2998 0.9518
vn 0.1617 0.5232 0.8367
vn -0.6550 0.5221 -0.5463
vn -0.8601 0.3006 -0.4120
vn 0.0171 0.6353 0.7721
vn -0.6661 0.6353 -0.3908
vn -0.7564 0.6409 0.1307
vn -0.4825 0.6409 0.5971
vn 0.9778 0.1884 0.0916
vn -0.1613 -0.3847 0.9088
vn -0.4034 -0.6567 0.6372
vn 0.9743 0.0206 -0.2244
vn -0.8692 -0.4890 -0.0731
vn 0.5155 0.0659 -0.8544
vn -0.9917 -0.1240 0.0347
vn 0.3308 0.5545 -0.7636
vn 0.0019 -0.0090 -1.0000
vn -0.0249 0.4168 -0.9087
vn -0.3784 0.5934 -0.7104
vn -0.7487 0.4434 -0.4929
vn -0.9235 0.0552 -0.3797
vn -0.7720 -0.3410 -0.5364
vn -0.2059 -0.6209 -0.7563
vn -0.2702 -0.6053 -0.7487
vn 0.8925 -0.0207 0.4505
vn 0.7815 0.4168 0.4642
vn 0.4363 0.5934 0.6764
vn 0.0660 0.4434 0.8939
vn -0.1180 0.0552 0.9915
vn 0.0820 -0.3493 0.9334
vn 0.5782 -0.6320 0.5160
vn 0.5427 -0.6783 0.4954
vn 0.8845 -0.4050 0.2318
vn 0.5302 -0.7179 0.4511
vn -0.1362 -0.7197 -0.6808
vn 0.2270 -0.4022 -0.8870
vn 0.0104 -0.6438 0.7651
vn -0.6632 -0.6439 -0.3816
vn -0.7638 -0.6312 0.1350
vn -0.4898 -0.6312 0.6014
vn 0.0896 0.2378 -0.9672
vn -0.9339 -0.2772 -0.2259
vn -0.9111 0.4062 0.0707
vn -0.0641 0.8052 -0.5895
vn -0.3240 0.4315 0.8419
vn 0.5683 0.7750 0.2762
vn -0.1971 -0.3950 0.8973
vn 0.9513 0.0639 0.3015
vn -0.4861 -0.1759 -0.8560
vn 0.5031 -0.1792 0.8455
vn 0.2039 0.2740 -0.9399
vn 0.9202 0.2740 0.2795
vt 0.494839 0.340867
vt 0.552021 0.345408
vt 0.549294 0.402901
vt 0.497222 0.403870
vt 0.362972 0.154157
vt 0.422621 0.154752
vt 0.427304 0.248523
vt 0.359858 0.245841
vt 0.483117 0.155651
vt 0.551421 0.149499
vt 0.547269 0.250773
vt 0.490928 0.253256
vt 0.422277 0.053617
vt 0.491593 0.051215
vt 0.552021 0.050550
vt 0.300403 0.172751
vt 0.319684 0.154308
vt 0.362031 0.058754
vt 0.296455 0.253133
vt 0.365080 0.346092
vt 0.301645 0.345162
vt 0.428803 0.345467
vt 0.434500 0.399372
vt 0.367322 0.397794
vt 0.491815 0.033202
vt 0.551755 0.031934
vt 0.294822 0.403730
vt 0.302523 0.057204
vt 0.302066 0.038805
vt 0.362057 0.040143
vt 0.422753 0.034863
vt 0.362172 0.021323
vt 0.422475 0.017955
vt 0.301402 0.021541
vt 0.491266 0.018582
vt 0.551929 0.017042
vt 0.301706 0.007879
vt 0.362438 0.014722
vt 0.420966 0.004163
vt 0.472265 0.004244
vt 0.367325 0.409851
vt 0.295060 0.417138
vt 0.496875 0.415914
vt 0.434315 0.411538
vt 0.548734 0.417444
vt 0.545440 0.435538
vt 0.495063 0.433445
vt 0.353644 0.427707
vt 0.297004 0.435478
vt 0.433943 0.428080
vt 0.382255 0.426287
vt 0.508315 0.004405
vt 0.551735 0.003333
vt 0.301519 0.135947
vt 0.223759 0.113832
vt 0.227385 0.047885
vt 0.274450 0.053346
vt 0.283665 0.109409
vt 0.088427 0.298576
vt 0.085077 0.210229
vt 0.152958 0.207292
vt 0.146102 0.299952
vt 0.205931 0.302061
vt 0.218337 0.203985
vt 0.277635 0.208674
vt 0.273817 0.313237
vt 0.139362 0.399383
vt 0.207610 0.405642
vt 0.262076 0.407072
vt 0.030361 0.277575
vt 0.044173 0.298419
vt 0.080977 0.387404
vt 0.020669 0.207005
vt 0.018077 0.110567
vt 0.086820 0.106918
vt 0.154555 0.107541
vt 0.161396 0.048402
vt 0.088303 0.048706
vt 0.259750 0.425304
vt 0.207627 0.427285
vt 0.021117 0.052401
vt 0.077296 0.409389
vt 0.027025 0.399171
vt 0.028448 0.381013
vt 0.137895 0.422301
vt 0.136203 0.444297
vt 0.071414 0.435656
vt 0.019424 0.416266
vt 0.262702 0.441627
vt 0.207546 0.447661
vt 0.068969 0.446577
vt 0.006523 0.427111
vt 0.183841 0.463424
vt 0.133601 0.461740
vt 0.018483 0.038597
vt 0.087040 0.030649
vt 0.161620 0.031634
vt 0.228718 0.029531
vt 0.275396 0.037512
vt 0.229558 0.008309
vt 0.283341 0.017395
vt 0.007656 0.019687
vt 0.062125 0.014984
vt 0.161630 0.009670
vt 0.109769 0.013003
vt 0.273294 0.454995
vt 0.231424 0.462026
vt 0.031933 0.318557
vt 0.016165 0.207324
vt 0.013579 0.110449
vt 0.282283 0.208946
vt 0.278161 0.313676
vt 0.288156 0.109238
vt 0.265958 0.407728
vt 0.017505 0.052627
vt 0.278210 0.053154
vt 0.263345 0.425316
vt 0.023589 0.398319
vt 0.024651 0.380958
vt 0.016190 0.413761
vt 0.266283 0.439759
vt 0.133003 0.466643
vt 0.067685 0.451343
vt 0.207739 0.453260
vt 0.185237 0.467940
vt 0.005088 0.431477
vt 0.003333 0.423196
vt 0.230384 0.466636
vt 0.277043 0.451578
vt 0.014403 0.040084
vt 0.279638 0.038590
vt 0.161425 0.004471
vt 0.229895 0.003333
vt 0.086687 0.024135
vt 0.107963 0.008490
vt 0.284059 0.012456
vt 0.287780 0.019642
vt 0.063370 0.010277
vt 0.003333 0.022329
vt 0.007251 0.015304
vt 0.274102 0.459913
vt 0.028661 0.317616
vt 0.039083 0.298570
vt 0.026928 0.278802
vt 0.775669 0.270625
vt 0.772210 0.260791
vt 0.848749 0.238300
vt 0.851303 0.246450
vt 0.756245 0.180299
vt 0.755158 0.163440
vt 0.834864 0.160414
vt 0.836546 0.173706
vt 0.770178 0.045829
vt 0.777448 0.024890
vt 0.851675 0.049736
vt 0.846507 0.067001
vt 0.779097 0.279465
vt 0.853063 0.254138
vt 0.757920 0.196196
vt 0.837901 0.186337
vt 0.764308 0.066747
vt 0.842394 0.083911
vt 0.760049 0.211127
vt 0.839619 0.198234
vt 0.760128 0.087408
vt 0.839228 0.100355
vt 0.762707 0.225057
vt 0.841595 0.209389
vt 0.757296 0.107553
vt 0.837029 0.116268
vt 0.765681 0.237987
vt 0.843811 0.219784
vt 0.755463 0.126998
vt 0.835807 0.131618
vt 0.768841 0.249914
vt 0.846226 0.229415
vt 0.754798 0.145659
vt 0.835406 0.146353
vt 0.711623 0.164848
vt 0.711125 0.144963
vt 0.731632 0.274856
vt 0.727444 0.262333
vt 0.711725 0.124043
vt 0.723601 0.248688
vt 0.713659 0.102115
vt 0.720273 0.233945
vt 0.717248 0.079415
vt 0.717431 0.218211
vt 0.722385 0.056107
vt 0.714945 0.201476
vt 0.729185 0.032063
vt 0.712965 0.183686
vt 0.740553 0.296599
vt 0.736048 0.286270
vt 0.738453 0.007306
vt 0.789019 0.620948
vt 0.713957 0.597550
vt 0.716454 0.589380
vt 0.792399 0.611088
vt 0.807684 0.530471
vt 0.728128 0.524686
vt 0.728054 0.511286
vt 0.808655 0.513614
vt 0.792403 0.396180
vt 0.717105 0.418017
vt 0.711733 0.400818
vt 0.784893 0.375328
vt 0.785664 0.629793
vt 0.710740 0.604776
vt 0.806151 0.546384
vt 0.726887 0.537329
vt 0.798503 0.417029
vt 0.721410 0.434876
vt 0.804151 0.561333
vt 0.725271 0.549241
vt 0.802904 0.437639
vt 0.724754 0.451282
vt 0.801612 0.575284
vt 0.723388 0.560412
vt 0.805942 0.457750
vt 0.727118 0.467168
vt 0.798744 0.588236
vt 0.721255 0.570826
vt 0.807966 0.477174
vt 0.728490 0.482503
vt 0.795681 0.600186
vt 0.718912 0.580476
vt 0.808806 0.495828
vt 0.729027 0.497231
vt 0.852183 0.514614
vt 0.852489 0.494711
vt 0.833070 0.624828
vt 0.837164 0.612275
vt 0.851681 0.473785
vt 0.840903 0.598599
vt 0.849525 0.451868
vt 0.844116 0.583826
vt 0.845699 0.429197
vt 0.846833 0.568062
vt 0.840311 0.405936
vt 0.849180 0.551297
vt 0.833244 0.381960
vt 0.851009 0.533479
vt 0.824316 0.646628
vt 0.828741 0.636271
vt 0.823700 0.357304
vt 0.069396 0.504645
vt 0.145492 0.528032
vt 0.142081 0.539483
vt 0.065176 0.517988
vt 0.047499 0.619435
vt 0.127620 0.624212
vt 0.126908 0.640944
vt 0.046669 0.639725
vt 0.067475 0.777105
vt 0.142893 0.753822
vt 0.149063 0.772546
vt 0.075819 0.799354
vt 0.073117 0.493986
vt 0.148420 0.518951
vt 0.049081 0.600089
vt 0.128966 0.608198
vt 0.060081 0.753118
vt 0.137404 0.733817
vt 0.051264 0.581694
vt 0.130843 0.592921
vt 0.054642 0.729248
vt 0.133056 0.714199
vt 0.054166 0.564279
vt 0.133123 0.578397
vt 0.050777 0.705799
vt 0.129883 0.695055
vt 0.057530 0.547841
vt 0.135792 0.564651
vt 0.048090 0.682995
vt 0.127910 0.676422
vt 0.061178 0.532390
vt 0.138817 0.551686
vt 0.046792 0.660933
vt 0.126959 0.658363
vt 0.003334 0.639284
vt 0.003333 0.662573
vt 0.023931 0.505600
vt 0.019325 0.521480
vt 0.004613 0.686872
vt 0.015154 0.538499
vt 0.007427 0.712152
vt 0.011627 0.556618
vt 0.012116 0.738142
vt 0.008688 0.575714
vt 0.018576 0.764644
vt 0.006197 0.595827
vt 0.026973 0.791797
vt 0.004362 0.617027
vt 0.033390 0.478667
vt 0.028853 0.490829
vt 0.037486 0.817929
vt 0.639134 0.033227
vt 0.643298 0.046585
vt 0.567360 0.067490
vt 0.563945 0.056039
vt 0.660423 0.148101
vt 0.661111 0.168391
vt 0.582097 0.169011
vt 0.581457 0.152277
vt 0.639017 0.305517
vt 0.630414 0.327670
vt 0.558688 0.300363
vt 0.565117 0.281725
vt 0.635456 0.022554
vt 0.561008 0.046959
vt 0.658966 0.128750
vt 0.580183 0.136257
vt 0.646674 0.281615
vt 0.570828 0.261780
vt 0.656892 0.110346
vt 0.578385 0.120970
vt 0.652363 0.257809
vt 0.575392 0.242209
vt 0.654088 0.092918
vt 0.576187 0.106433
vt 0.656458 0.234407
vt 0.578758 0.223097
vt 0.650808 0.076467
vt 0.573587 0.092674
vt 0.659347 0.211635
vt 0.580889 0.204481
vt 0.647233 0.061002
vt 0.570606 0.079698
vt 0.660827 0.189592
vt 0.581959 0.186429
vt 0.704458 0.168270
vt 0.704280 0.191581
vt 0.684596 0.034376
vt 0.689136 0.050282
vt 0.702794 0.215891
vt 0.693232 0.067329
vt 0.699748 0.241165
vt 0.696673 0.085478
vt 0.694804 0.267129
vt 0.699513 0.104606
vt 0.688065 0.293585
vt 0.701887 0.124752
vt 0.679362 0.320662
vt 0.703588 0.145985
vt 0.675242 0.007400
vt 0.679731 0.019581
vt 0.668550 0.346684
vt 0.462264 0.777784
vt 0.489359 0.777496
vt 0.491091 0.781602
vt 0.462312 0.782241
vt 0.507694 0.758973
vt 0.511816 0.760668
vt 0.507695 0.733943
vt 0.511816 0.732246
vt 0.490813 0.716889
vt 0.492550 0.712785
vt 0.467850 0.716660
vt 0.466201 0.712520
vt 0.452123 0.731944
vt 0.448038 0.730161
vt 0.451756 0.752840
vt 0.447602 0.754454
vt 0.465530 0.767155
vt 0.463732 0.771234
vt 0.484359 0.767528
vt 0.485978 0.771681
vt 0.497187 0.755186
vt 0.501272 0.756968
vt 0.497491 0.738419
vt 0.501636 0.736782
vt 0.486546 0.727109
vt 0.488315 0.723018
vt 0.471840 0.726903
vt 0.470192 0.722761
vt 0.462067 0.736471
vt 0.457968 0.734719
vt 0.461996 0.749118
vt 0.457869 0.750800
vt 0.470225 0.757320
vt 0.467078 0.760477
vt 0.364516 0.809585
vt 0.358749 0.815087
vt 0.354649 0.813342
vt 0.361314 0.806359
vt 0.358715 0.823720
vt 0.354595 0.825419
vt 0.365337 0.830301
vt 0.363654 0.834428
vt 0.375376 0.830211
vt 0.377129 0.834309
vt 0.382865 0.822509
vt 0.387010 0.824147
vt 0.382656 0.811064
vt 0.386738 0.809275
vt 0.373876 0.802664
vt 0.375486 0.798508
vt 0.361024 0.802990
vt 0.359214 0.798917
vt 0.351784 0.812946
vt 0.347546 0.811253
vt 0.351664 0.827233
vt 0.347546 0.828938
vt 0.362271 0.837797
vt 0.360573 0.841918
vt 0.377946 0.837744
vt 0.379667 0.841855
vt 0.389477 0.826110
vt 0.393603 0.827795
vt 0.389386 0.809025
vt 0.393494 0.807297
vt 0.376731 0.796521
vt 0.378414 0.792394
vt 0.358236 0.796641
vt 0.358207 0.792185
vt 0.779047 0.020824
vt 0.853063 0.045590
vt 0.034950 0.474606
vt 0.074610 0.489822
vt 0.740243 0.003333
vt 0.149063 0.514495
vt 0.489359 0.640877
vt 0.462264 0.640589
vt 0.462312 0.636132
vt 0.491091 0.636770
vt 0.507694 0.659400
vt 0.511816 0.657705
vt 0.507695 0.684430
vt 0.511816 0.686127
vt 0.490813 0.701484
vt 0.492550 0.705588
vt 0.467850 0.701712
vt 0.466201 0.705853
vt 0.452122 0.686428
vt 0.448038 0.688211
vt 0.451756 0.665533
vt 0.447602 0.663919
vt 0.465530 0.651217
vt 0.463732 0.647139
vt 0.484359 0.650844
vt 0.485978 0.646692
vt 0.497187 0.663187
vt 0.501272 0.661405
vt 0.497490 0.679954
vt 0.501636 0.681590
vt 0.486546 0.691263
vt 0.488315 0.695354
vt 0.471840 0.691470
vt 0.470192 0.695611
vt 0.462066 0.681902
vt 0.457968 0.683654
vt 0.461996 0.669255
vt 0.457869 0.667573
vt 0.470225 0.661052
vt 0.467078 0.657896
vt 0.710740 0.396536
vt 0.783248 0.371278
vt 0.633981 0.018389
vt 0.673698 0.003333
vt 0.821864 0.353351
vt 0.558688 0.043074
vt 0.220205 0.619730
vt 0.205504 0.619738
vt 0.205743 0.608067
vt 0.220444 0.608059
vt 0.206148 0.596402
vt 0.220849 0.596394
vt 0.206478 0.584734
vt 0.221178 0.584726
vt 0.206535 0.573060
vt 0.222091 0.573060
vt 0.222141 0.666436
vt 0.206585 0.666415
vt 0.206333 0.654744
vt 0.221034 0.654736
vt 0.205916 0.643079
vt 0.220617 0.643071
vt 0.716716 0.315276
vt 0.724080 0.308163
vt 0.725048 0.309988
vt 0.718652 0.316384
vt 0.205574 0.631412
vt 0.220275 0.631404
vt 0.538411 0.664426
vt 0.526737 0.664427
vt 0.518483 0.656175
vt 0.518483 0.644503
vt 0.526659 0.636132
vt 0.538411 0.636246
vt 0.546666 0.644499
vt 0.546666 0.656171
vt 0.712797 0.325609
vt 0.716280 0.336147
vt 0.714942 0.337085
vt 0.711125 0.325674
vt 0.724386 0.342848
vt 0.723763 0.344325
vt 0.734605 0.344226
vt 0.734853 0.345814
vt 0.743727 0.340073
vt 0.744865 0.341196
vt 0.743731 0.308584
vt 0.733989 0.304899
vt 0.734144 0.303266
vt 0.744865 0.307356
vt 0.723487 0.307078
vt 0.722748 0.305619
vt 0.715549 0.314623
vt 0.714130 0.313786
vt 0.525030 0.693444
vt 0.518484 0.686898
vt 0.518482 0.677640
vt 0.525027 0.671094
vt 0.534284 0.671094
vt 0.540830 0.677640
vt 0.540831 0.686898
vt 0.534287 0.693444
vt 0.733919 0.306087
vt 0.743024 0.309432
vt 0.742167 0.311320
vt 0.733751 0.308304
vt 0.734446 0.343119
vt 0.724870 0.341794
vt 0.725676 0.339979
vt 0.734132 0.341007
vt 0.717312 0.335482
vt 0.714090 0.325564
vt 0.716453 0.325498
vt 0.719123 0.334286
vt 0.742917 0.339272
vt 0.741964 0.337528
vt 0.788968 0.679117
vt 0.792387 0.688964
vt 0.715758 0.711192
vt 0.713231 0.703032
vt 0.808049 0.769521
vt 0.809109 0.786377
vt 0.728502 0.789122
vt 0.728507 0.775720
vt 0.793613 0.903938
vt 0.786267 0.924847
vt 0.712142 0.899735
vt 0.717373 0.882491
vt 0.785579 0.670285
vt 0.710740 0.695566
vt 0.806434 0.753612
vt 0.726413 0.763169
vt 0.799560 0.883044
vt 0.721547 0.865599
vt 0.804361 0.738672
vt 0.724740 0.751265
vt 0.803815 0.862400
vt 0.724772 0.849169
vt 0.801756 0.724732
vt 0.722805 0.740102
vt 0.806720 0.842265
vt 0.727028 0.833267
vt 0.798830 0.711791
vt 0.721403 0.729535
vt 0.808624 0.822825
vt 0.728305 0.817923
vt 0.795715 0.699852
vt 0.718252 0.720087
vt 0.809356 0.804164
vt 0.728758 0.803192
vt 0.852626 0.785140
vt 0.853041 0.805031
vt 0.832997 0.675052
vt 0.837143 0.687584
vt 0.852357 0.825950
vt 0.840941 0.701241
vt 0.850338 0.847869
vt 0.844219 0.715995
vt 0.846663 0.870553
vt 0.847007 0.731741
vt 0.841439 0.893838
vt 0.849435 0.748486
vt 0.834551 0.917854
vt 0.851354 0.766288
vt 0.824154 0.653294
vt 0.828621 0.663630
vt 0.825193 0.942573
vt 0.636170 0.970859
vt 0.561177 0.947213
vt 0.563701 0.939051
vt 0.639584 0.961008
vt 0.655178 0.880437
vt 0.574774 0.874291
vt 0.576385 0.860973
vt 0.656172 0.863577
vt 0.640334 0.746100
vt 0.564978 0.767669
vt 0.559666 0.750455
vt 0.632899 0.725226
vt 0.632785 0.979694
vt 0.558688 0.954680
vt 0.653558 0.896339
vt 0.574324 0.887009
vt 0.646361 0.766965
vt 0.569222 0.784539
vt 0.651506 0.911285
vt 0.572667 0.898915
vt 0.650689 0.787587
vt 0.572509 0.800952
vt 0.648918 0.925232
vt 0.570744 0.910080
vt 0.653657 0.807705
vt 0.574816 0.816843
vt 0.646026 0.938168
vt 0.567776 0.920313
vt 0.655612 0.827134
vt 0.576134 0.832179
vt 0.642903 0.950115
vt 0.566189 0.930154
vt 0.656386 0.845791
vt 0.576618 0.846906
vt 0.699707 0.864722
vt 0.700076 0.844819
vt 0.680219 0.974893
vt 0.684358 0.962352
vt 0.699337 0.823893
vt 0.688145 0.948684
vt 0.697254 0.801972
vt 0.691408 0.933919
vt 0.693506 0.779293
vt 0.694178 0.918162
vt 0.688199 0.756019
vt 0.696585 0.901404
vt 0.681216 0.732024
vt 0.698475 0.883587
vt 0.671387 0.996667
vt 0.675849 0.986323
vt 0.671759 0.707341
vt 0.360494 0.472143
vt 0.436658 0.495309
vt 0.433280 0.506770
vt 0.356313 0.485498
vt 0.338930 0.586995
vt 0.419064 0.591541
vt 0.418401 0.608275
vt 0.338159 0.607288
vt 0.359361 0.744607
vt 0.434711 0.721107
vt 0.440936 0.739813
vt 0.367769 0.766833
vt 0.364184 0.461474
vt 0.439560 0.486220
vt 0.340456 0.567646
vt 0.420364 0.575523
vt 0.351898 0.720642
vt 0.429165 0.701117
vt 0.342585 0.549245
vt 0.422197 0.560241
vt 0.346390 0.696788
vt 0.424760 0.681512
vt 0.345437 0.531821
vt 0.424434 0.545710
vt 0.342457 0.673351
vt 0.421532 0.662377
vt 0.348754 0.515373
vt 0.427064 0.531957
vt 0.339704 0.650554
vt 0.419505 0.643750
vt 0.352356 0.499911
vt 0.430051 0.518983
vt 0.338342 0.628496
vt 0.418502 0.625694
vt 0.294822 0.606972
vt 0.294889 0.630261
vt 0.315032 0.473230
vt 0.310473 0.489123
vt 0.296239 0.654557
vt 0.306351 0.506153
vt 0.299126 0.679829
vt 0.302876 0.524283
vt 0.303890 0.705804
vt 0.299992 0.543387
vt 0.310426 0.732288
vt 0.297559 0.563507
vt 0.318902 0.759416
vt 0.295785 0.584713
vt 0.324414 0.446270
vt 0.319912 0.458445
vt 0.329490 0.785518
vt 0.638356 0.383345
vt 0.642558 0.396691
vt 0.566681 0.417816
vt 0.563234 0.406375
vt 0.659979 0.498156
vt 0.660726 0.518445
vt 0.581714 0.519295
vt 0.581025 0.502562
vt 0.639032 0.655634
vt 0.630494 0.677812
vt 0.558688 0.650714
vt 0.565063 0.632057
vt 0.634646 0.372682
vt 0.560269 0.397305
vt 0.658465 0.478810
vt 0.579705 0.486546
vt 0.646619 0.631710
vt 0.570716 0.612095
vt 0.656338 0.460412
vt 0.577863 0.471264
vt 0.652239 0.607887
vt 0.575222 0.592512
vt 0.653483 0.442992
vt 0.575622 0.456734
vt 0.656265 0.584474
vt 0.578533 0.573390
vt 0.650155 0.426551
vt 0.572982 0.442983
vt 0.659089 0.561693
vt 0.580610 0.554768
vt 0.646535 0.411096
vt 0.569963 0.430015
vt 0.660504 0.539646
vt 0.581627 0.536713
vt 0.704073 0.518197
vt 0.703962 0.541508
vt 0.683821 0.384361
vt 0.688407 0.400254
vt 0.702547 0.565823
vt 0.692552 0.417289
vt 0.699575 0.591106
vt 0.696046 0.435428
vt 0.694707 0.617083
vt 0.698943 0.454547
vt 0.688045 0.643559
vt 0.701375 0.474687
vt 0.679421 0.670661
vt 0.703137 0.495915
vt 0.674388 0.357413
vt 0.678913 0.369580
vt 0.668685 0.696715
vt 0.220166 0.814754
vt 0.247261 0.814466
vt 0.248992 0.818572
vt 0.220213 0.819211
vt 0.265596 0.795943
vt 0.269717 0.797638
vt 0.265596 0.770913
vt 0.269717 0.769216
vt 0.248714 0.753859
vt 0.250451 0.749755
vt 0.225752 0.753631
vt 0.224103 0.749490
vt 0.210024 0.768915
vt 0.205940 0.767132
vt 0.209658 0.789810
vt 0.205504 0.791424
vt 0.223431 0.804126
vt 0.221633 0.808204
vt 0.242261 0.804499
vt 0.243880 0.808651
vt 0.255089 0.792156
vt 0.259174 0.793938
vt 0.255392 0.775389
vt 0.259538 0.773753
vt 0.244447 0.764079
vt 0.246216 0.759989
vt 0.229741 0.763873
vt 0.228094 0.759732
vt 0.219968 0.773441
vt 0.215870 0.771689
vt 0.219898 0.786088
vt 0.215771 0.787770
vt 0.228126 0.794290
vt 0.224980 0.797447
vt 0.324433 0.823770
vt 0.329927 0.818051
vt 0.334082 0.819663
vt 0.327647 0.826858
vt 0.329681 0.809422
vt 0.333744 0.807591
vt 0.322849 0.803059
vt 0.324398 0.798880
vt 0.312792 0.803597
vt 0.310934 0.799436
vt 0.305196 0.811236
vt 0.301051 0.809598
vt 0.305405 0.822681
vt 0.301323 0.824469
vt 0.314185 0.831082
vt 0.312574 0.835237
vt 0.327057 0.830635
vt 0.328845 0.834830
vt 0.336766 0.821134
vt 0.340879 0.822850
vt 0.336761 0.806869
vt 0.340879 0.805165
vt 0.326154 0.796306
vt 0.327852 0.792185
vt 0.310479 0.796359
vt 0.308758 0.792248
vt 0.298948 0.807992
vt 0.294822 0.806308
vt 0.299039 0.825077
vt 0.294931 0.826806
vt 0.311694 0.837581
vt 0.310011 0.841708
vt 0.330189 0.837461
vt 0.330218 0.841918
vt 0.784654 0.928908
vt 0.710740 0.903876
vt 0.325962 0.442205
vt 0.365665 0.457306
vt 0.823388 0.946538
vt 0.440936 0.482027
vt 0.227961 0.738078
vt 0.255056 0.738367
vt 0.255008 0.742823
vt 0.226229 0.742185
vt 0.209626 0.719555
vt 0.205504 0.721251
vt 0.209625 0.694526
vt 0.205504 0.692829
vt 0.226507 0.677472
vt 0.224770 0.673368
vt 0.249470 0.677243
vt 0.251118 0.673102
vt 0.265197 0.692527
vt 0.269282 0.690744
vt 0.265563 0.713422
vt 0.269717 0.715037
vt 0.251790 0.727738
vt 0.253588 0.731816
vt 0.232960 0.728111
vt 0.231342 0.732264
vt 0.220133 0.715769
vt 0.216048 0.717551
vt 0.219829 0.699002
vt 0.215684 0.697365
vt 0.230774 0.687692
vt 0.229005 0.683601
vt 0.245480 0.687485
vt 0.247128 0.683344
vt 0.255253 0.697053
vt 0.259351 0.695301
vt 0.255323 0.709700
vt 0.259451 0.711382
vt 0.247095 0.717903
vt 0.250242 0.721059
vt 0.558688 0.746171
vt 0.631268 0.721171
vt 0.633159 0.368522
vt 0.672832 0.353351
vt 0.669938 0.703381
vt 0.558688 0.393159
vt 0.494214 0.518636
vt 0.532569 0.518636
vt 0.532569 0.540617
vt 0.494214 0.540617
vt 0.494214 0.564088
vt 0.532569 0.564088
vt 0.532569 0.585505
vt 0.494214 0.585505
vt 0.494214 0.607485
vt 0.532569 0.607485
vt 0.532569 0.629465
vt 0.494214 0.629465
vt 0.267162 0.619650
vt 0.228807 0.619650
vt 0.228928 0.604282
vt 0.267282 0.604282
vt 0.494214 0.496167
vt 0.532569 0.496167
vt 0.267162 0.652865
vt 0.228807 0.652865
vt 0.228807 0.630884
vt 0.267162 0.630884
vt 0.494153 0.460227
vt 0.532508 0.460227
vt 0.532448 0.472917
vt 0.494094 0.472917
vt 0.496202 0.449403
vt 0.530460 0.449403
vt 0.499351 0.446661
vt 0.527311 0.446661
vt 0.492570 0.539715
vt 0.492446 0.517716
vt 0.491462 0.539496
vt 0.490655 0.517649
vt 0.450853 0.535294
vt 0.452909 0.515660
vt 0.449309 0.536167
vt 0.451578 0.514050
vt 0.447602 0.536485
vt 0.449531 0.514590
vt 0.198837 0.530054
vt 0.198131 0.547778
vt 0.155729 0.549606
vt 0.155746 0.529929
vt 0.196417 0.566798
vt 0.197202 0.584429
vt 0.158885 0.586136
vt 0.158100 0.568504
vt 0.198024 0.602878
vt 0.198837 0.621148
vt 0.160520 0.622854
vt 0.159707 0.604584
vt 0.195414 0.502285
vt 0.195429 0.511548
vt 0.157074 0.511609
vt 0.157059 0.502346
vt 0.195371 0.474606
vt 0.195400 0.493022
vt 0.157045 0.493082
vt 0.157016 0.474666
vt 0.267223 0.588440
vt 0.228868 0.588435
vt 0.485383 0.823754
vt 0.478050 0.837260
vt 0.474548 0.834092
vt 0.483575 0.812666
vt 0.230916 0.575802
vt 0.265174 0.575801
vt 0.234065 0.573060
vt 0.262025 0.573060
vt 0.175542 0.633462
vt 0.177636 0.641518
vt 0.155742 0.637867
vt 0.158247 0.629520
vt 0.176793 0.645047
vt 0.155729 0.642183
vt 0.176963 0.689794
vt 0.156375 0.689568
vt 0.177636 0.695715
vt 0.155992 0.695454
vt 0.175924 0.702044
vt 0.156255 0.701477
vt 0.488110 0.814183
vt 0.489711 0.823306
vt 0.504372 0.848551
vt 0.487190 0.834842
vt 0.491312 0.832430
vt 0.505708 0.843915
vt 0.264878 0.544414
vt 0.264719 0.566394
vt 0.260276 0.564516
vt 0.260408 0.546228
vt 0.249447 0.528760
vt 0.247444 0.533077
vt 0.228093 0.527124
vt 0.229846 0.531728
vt 0.211814 0.544032
vt 0.218575 0.547144
vt 0.498442 0.795818
vt 0.501692 0.801159
vt 0.469924 0.825784
vt 0.467116 0.836662
vt 0.463230 0.833885
vt 0.465654 0.824944
vt 0.448760 0.848752
vt 0.447850 0.844014
vt 0.260962 0.474606
vt 0.264878 0.496235
vt 0.260163 0.495212
vt 0.256905 0.477217
vt 0.252353 0.514297
vt 0.249640 0.510387
vt 0.231592 0.519563
vt 0.232533 0.514726
vt 0.212467 0.505957
vt 0.216997 0.503708
vt 0.459667 0.796625
vt 0.472732 0.814905
vt 0.468078 0.816003
vt 0.457372 0.801078
vt 0.463406 0.840164
vt 0.464161 0.844880
vt 0.479774 0.837064
vt 0.490318 0.844124
vt 0.489143 0.848752
vt 0.475999 0.839900
vt 0.501237 0.842655
vt 0.505375 0.842098
vt 0.505969 0.846515
vt 0.501831 0.847072
vt 0.452666 0.837709
vt 0.451673 0.842054
vt 0.448595 0.836779
vt 0.447602 0.841124
vt 0.499351 0.442205
vt 0.527311 0.442205
vt 0.497560 0.794031
vt 0.502065 0.792843
vt 0.210671 0.545519
vt 0.210350 0.550021
vt 0.209544 0.545586
vt 0.206065 0.549504
vt 0.496763 0.792425
vt 0.500100 0.789793
vt 0.209279 0.504762
vt 0.205504 0.502118
vt 0.458966 0.792733
vt 0.455362 0.788907
vt 0.211042 0.504967
vt 0.211374 0.501536
vt 0.458608 0.794792
vt 0.455278 0.794866
s 1
usemtl scrolls_mat
f 22/1/22 9/2/9 25/3/25 6/4/6
f 20/5/20 16/6/16 7/7/7 17/8/17
f 19/9/19 13/10/13 5/11/5 18/12/18
f 16/6/16 19/9/19 18/12/18 7/7/7
f 4/13/4 8/14/8 19/9/19 16/6/16
f 8/14/8 2/15/2 13/10/13 19/9/19
f 54/16/54 53/17/53 20/5/20
f 12/18/12 4/13/4 16/6/16 20/5/20
f 3/19/3 17/8/17 21/20/21 11/21/11
f 17/8/17 7/7/7 15/22/15 21/20/21
f 15/22/15 22/1/22 6/4/6 14/23/14
f 7/7/7 18/12/18 22/1/22 15/22/15
f 18/12/18 5/11/5 9/2/9 22/1/22
f 21/20/21 15/22/15 14/23/14 10/24/10
f 2/15/2 8/14/8 28/25/28 26/26/26
f 11/21/11 21/20/21 10/24/10 23/27/23
f 12/18/12 1/28/1 24/29/24 29/30/29
f 8/14/8 4/13/4 27/31/27 28/25/28
f 4/13/4 12/18/12 29/30/29 27/31/27
f 27/31/27 29/30/29 34/32/34 32/33/32
f 29/30/29 24/29/24 30/34/30 34/32/34
f 26/26/26 28/25/28 33/35/33 31/36/31
f 28/25/28 27/31/27 32/33/32 33/35/33
f 34/32/34 30/34/30 35/37/35 38/38/38
f 33/35/33 32/33/32 37/39/37 51/40/51
f 32/33/32 34/32/34 38/38/38 37/39/37
f 23/27/23 10/24/10 40/41/40 42/42/42
f 14/23/14 6/4/6 39/43/39 41/44/41
f 6/4/6 25/3/25 43/45/43 39/43/39
f 10/24/10 14/23/14 41/44/41 40/41/40
f 39/43/39 43/45/43 47/46/47 44/47/44
f 42/42/42 40/41/40 48/48/48 46/49/46
f 41/44/41 39/43/39 44/47/44 45/50/45
f 40/41/40 41/44/41 45/50/45 49/51/49
f 31/36/31 33/35/33 50/52/50 36/53/36
f 52/54/52 20/5/20 53/17/53
f 3/19/3 54/16/54 20/5/20 17/8/17
f 1/28/1 12/18/12 20/5/20 52/54/52
f 76/55/76 60/56/60 79/57/79 63/58/63
f 74/59/74 71/60/71 61/61/61 70/62/70
f 73/63/73 72/64/72 59/65/59 67/66/67
f 70/62/70 61/61/61 72/64/72 73/63/73
f 58/67/58 70/62/70 73/63/73 62/68/62
f 62/68/62 73/63/73 67/66/67 56/69/56
f 108/70/108 74/59/74 107/71/107
f 66/72/66 74/59/74 70/62/70 58/67/58
f 57/73/57 65/74/65 75/75/75 71/60/71
f 71/60/71 75/75/75 69/76/69 61/61/61
f 69/76/69 68/77/68 60/56/60 76/55/76
f 61/61/61 69/76/69 76/55/76 72/64/72
f 72/64/72 76/55/76 63/58/63 59/65/59
f 75/75/75 64/78/64 68/77/68 69/76/69
f 56/69/56 80/79/80 82/80/82 62/68/62
f 65/74/65 77/81/77 64/78/64 75/75/75
f 66/72/66 83/82/83 78/83/78 55/84/55
f 62/68/62 82/80/82 81/85/81 58/67/58
f 58/67/58 81/85/81 83/82/83 66/72/66
f 81/85/81 86/86/86 88/87/88 83/82/83
f 83/82/83 88/87/88 84/88/84 78/83/78
f 80/79/80 85/89/85 87/90/87 82/80/82
f 82/80/82 87/90/87 86/86/86 81/85/81
f 88/87/88 92/91/92 89/92/89 84/88/84
f 87/90/87 105/93/105 91/94/91 86/86/86
f 86/86/86 91/94/91 92/91/92 88/87/88
f 77/81/77 96/95/96 94/96/94 64/78/64
f 68/77/68 95/97/95 93/98/93 60/56/60
f 60/56/60 93/98/93 97/99/97 79/57/79
f 64/78/64 94/96/94 95/97/95 68/77/68
f 93/98/93 98/100/98 101/101/101 97/99/97
f 96/95/96 100/102/100 102/103/102 94/96/94
f 95/97/95 99/104/99 98/100/98 93/98/93
f 94/96/94 103/105/103 99/104/99 95/97/95
f 85/89/85 90/106/90 104/107/104 87/90/87
f 106/108/106 107/71/107 74/59/74
f 57/73/57 71/60/71 74/59/74 108/70/108
f 55/84/55 106/108/106 74/59/74 66/72/66
f 3/109/3 11/110/11 65/74/65 57/73/57
f 5/111/5 13/112/13 67/66/67 59/65/59
f 9/113/9 5/111/5 59/65/59 63/58/63
f 13/112/13 2/114/2 56/69/56 67/66/67
f 11/110/11 23/115/23 77/81/77 65/74/65
f 25/116/25 9/113/9 63/58/63 79/57/79
f 2/114/2 26/117/26 80/79/80 56/69/56
f 24/118/24 1/119/1 55/84/55 78/83/78
f 30/120/30 24/118/24 78/83/78 84/88/84
f 26/117/26 31/121/31 85/89/85 80/79/80
f 37/122/37 38/123/38 92/91/92 91/94/91
f 33/124/33 51/125/51 105/93/105 87/90/87
f 38/123/38 35/126/35 89/92/89 92/91/92
f 35/127/35 30/120/30 84/88/84 89/92/89
f 50/128/50 33/124/33 87/90/87 104/107/104
f 31/121/31 36/129/36 90/106/90 85/89/85
f 23/115/23 42/130/42 96/95/96 77/81/77
f 43/131/43 25/116/25 79/57/79 97/99/97
f 45/132/45 44/133/44 98/100/98 99/104/99
f 40/134/40 49/135/49 103/105/103 94/96/94
f 44/133/44 47/136/47 101/101/101 98/100/98
f 47/137/47 43/131/43 97/99/97 101/101/101
f 48/138/48 40/134/40 94/96/94 102/103/102
f 42/130/42 46/139/46 100/102/100 96/95/96
f 49/135/49 45/132/45 99/104/99 103/105/103
f 46/140/46 48/138/48 102/103/102 100/102/100
f 36/141/36 50/128/50 104/107/104 90/106/90
f 51/125/51 37/122/37 91/94/91 105/93/105
f 52/142/52 53/143/53 107/71/107 106/108/106
f 53/143/53 54/144/54 108/70/108 107/71/107
f 1/119/1 52/142/52 106/108/106 55/84/55
f 54/144/54 3/109/3 57/73/57 108/70/108
f 141/145/141 142/146/142 127/147/127 126/148/126
f 143/149/143 144/150/144 176/151/176 133/152/133
f 145/153/145 146/154/146 140/155/140 139/156/139
f 147/157/147 141/145/141 126/148/126 175/158/175
f 148/159/148 143/149/143 133/152/133 132/160/132
f 149/161/149 145/153/145 139/156/139 138/162/138
f 150/163/150 148/159/148 132/160/132 131/164/131
f 151/165/151 149/161/149 138/162/138 137/166/137
f 152/167/152 150/163/150 131/164/131 130/168/130
f 153/169/153 151/165/151 137/166/137 136/170/136
f 154/171/154 152/167/152 130/168/130 129/172/129
f 155/173/155 153/169/153 136/170/136 135/174/135
f 156/175/156 154/171/154 129/172/129 128/176/128
f 157/177/157 155/173/155 135/174/135 134/178/134
f 142/146/142 156/175/156 128/176/128 127/147/127
f 144/150/144 157/177/157 134/178/134 176/151/176
f 116/179/116 115/180/115 157/177/157 144/150/144
f 123/181/123 122/182/122 156/175/156 142/146/142
f 115/180/115 114/183/114 155/173/155 157/177/157
f 122/182/122 121/184/121 154/171/154 156/175/156
f 114/183/114 113/185/113 153/169/153 155/173/155
f 121/184/121 120/186/120 152/167/152 154/171/154
f 113/185/113 112/187/112 151/165/151 153/169/153
f 120/186/120 119/188/119 150/163/150 152/167/152
f 112/187/112 111/189/111 149/161/149 151/165/151
f 119/188/119 118/190/118 148/159/148 150/163/150
f 111/189/111 110/191/110 145/153/145 149/161/149
f 118/190/118 117/192/117 143/149/143 148/159/148
f 125/193/125 124/194/124 141/145/141 147/157/147
f 110/191/110 109/195/109 146/154/146 145/153/145
f 117/192/117 116/179/116 144/150/144 143/149/143
f 124/194/124 123/181/123 142/146/142 141/145/141
f 177/196/177 126/197/126 127/198/127 178/199/178
f 179/200/179 133/201/133 176/202/176 180/203/180
f 181/204/181 139/205/139 140/206/140 182/207/182
f 183/208/183 175/209/175 126/197/126 177/196/177
f 184/210/184 132/211/132 133/201/133 179/200/179
f 185/212/185 138/213/138 139/205/139 181/204/181
f 186/214/186 131/215/131 132/211/132 184/210/184
f 187/216/187 137/217/137 138/213/138 185/212/185
f 188/218/188 130/219/130 131/215/131 186/214/186
f 189/220/189 136/221/136 137/217/137 187/216/187
f 190/222/190 129/223/129 130/219/130 188/218/188
f 191/224/191 135/225/135 136/221/136 189/220/189
f 192/226/192 128/227/128 129/223/129 190/222/190
f 193/228/193 134/229/134 135/225/135 191/224/191
f 178/199/178 127/198/127 128/227/128 192/226/192
f 180/203/180 176/202/176 134/229/134 193/228/193
f 165/230/165 180/203/180 193/228/193 164/231/164
f 172/232/172 178/199/178 192/226/192 171/233/171
f 164/231/164 193/228/193 191/224/191 163/234/163
f 171/233/171 192/226/192 190/222/190 170/235/170
f 163/234/163 191/224/191 189/220/189 162/236/162
f 170/235/170 190/222/190 188/218/188 169/237/169
f 162/236/162 189/220/189 187/216/187 161/238/161
f 169/237/169 188/218/188 186/214/186 168/239/168
f 161/238/161 187/216/187 185/212/185 160/240/160
f 168/239/168 186/214/186 184/210/184 167/241/167
f 160/240/160 185/212/185 181/204/181 159/242/159
f 167/241/167 184/210/184 179/200/179 166/243/166
f 174/244/174 183/208/183 177/196/177 173/245/173
f 159/242/159 181/204/181 182/207/182 158/246/158
f 166/243/166 179/200/179 180/203/180 165/230/165
f 173/245/173 177/196/177 178/199/178 172/232/172
f 228/247/228 212/248/212 213/249/213 229/250/229
f 230/251/230 219/252/219 220/253/220 231/254/231
f 232/255/232 226/256/226 227/257/227 233/258/233
f 234/259/234 211/260/211 212/248/212 228/247/228
f 235/261/235 218/262/218 219/252/219 230/251/230
f 236/263/236 225/264/225 226/256/226 232/255/232
f 237/265/237 217/266/217 218/262/218 235/261/235
f 238/267/238 224/268/224 225/264/225 236/263/236
f 239/269/239 216/270/216 217/266/217 237/265/237
f 240/271/240 223/272/223 224/268/224 238/267/238
f 241/273/241 215/274/215 216/270/216 239/269/239
f 242/275/242 222/276/222 223/272/223 240/271/240
f 243/277/243 214/278/214 215/274/215 241/273/241
f 244/279/244 221/280/221 222/276/222 242/275/242
f 229/250/229 213/249/213 214/278/214 243/277/243
f 231/254/231 220/253/220 221/280/221 244/279/244
f 201/281/201 231/254/231 244/279/244 200/282/200
f 208/283/208 229/250/229 243/277/243 207/284/207
f 200/282/200 244/279/244 242/275/242 199/285/199
f 207/284/207 243/277/243 241/273/241 206/286/206
f 199/285/199 242/275/242 240/271/240 198/287/198
f 206/286/206 241/273/241 239/269/239 205/288/205
f 198/287/198 240/271/240 238/267/238 197/289/197
f 205/288/205 239/269/239 237/265/237 204/290/204
f 197/289/197 238/267/238 236/263/236 196/291/196
f 204/290/204 237/265/237 235/261/235 203/292/203
f 196/291/196 236/263/236 232/255/232 195/293/195
f 203/292/203 235/261/235 230/251/230 202/294/202
f 210/295/210 234/259/234 228/247/228 209/296/209
f 195/293/195 232/255/232 233/258/233 194/297/194
f 202/294/202 230/251/230 231/254/231 201/281/201
f 209/296/209 228/247/228 229/250/229 208/283/208
f 262/298/262 263/299/263 213/300/213 212/301/212
f 264/302/264 265/303/265 220/304/220 219/305/219
f 266/306/266 267/307/267 227/308/227 226/309/226
f 268/310/268 262/298/262 212/301/212 211/311/211
f 269/312/269 264/302/264 219/305/219 218/313/218
f 270/314/270 266/306/266 226/309/226 225/315/225
f 271/316/271 269/312/269 218/313/218 217/317/217
f 272/318/272 270/314/270 225/315/225 224/319/224
f 273/320/273 271/316/271 217/317/217 216/321/216
f 274/322/274 272/318/272 224/319/224 223/323/223
f 275/324/275 273/320/273 216/321/216 215/325/215
f 276/326/276 274/322/274 223/323/223 222/327/222
f 277/328/277 275/324/275 215/325/215 214/329/214
f 278/330/278 276/326/276 222/327/222 221/331/221
f 263/299/263 277/328/277 214/329/214 213/300/213
f 265/303/265 278/330/278 221/331/221 220/304/220
f 252/332/252 251/333/251 278/330/278 265/303/265
f 259/334/259 258/335/258 277/328/277 263/299/263
f 251/333/251 250/336/250 276/326/276 278/330/278
f 258/335/258 257/337/257 275/324/275 277/328/277
f 250/336/250 249/338/249 274/322/274 276/326/276
f 257/337/257 256/339/256 273/320/273 275/324/275
f 249/338/249 248/340/248 272/318/272 274/322/274
f 256/339/256 255/341/255 271/316/271 273/320/273
f 248/340/248 247/342/247 270/314/270 272/318/272
f 255/341/255 254/343/254 269/312/269 271/316/271
f 247/342/247 246/344/246 266/306/266 270/314/270
f 254/343/254 253/345/253 264/302/264 269/312/269
f 261/346/261 260/347/260 262/298/262 268/310/268
f 246/344/246 245/348/245 267/307/267 266/306/266
f 253/345/253 252/332/252 265/303/265 264/302/264
f 260/347/260 259/334/259 263/299/263 262/298/262
f 109/349/109 110/350/110 195/351/195 194/352/194
f 110/350/110 111/353/111 196/354/196 195/351/195
f 111/353/111 112/355/112 197/356/197 196/354/196
f 112/355/112 113/357/113 198/358/198 197/356/197
f 113/357/113 114/359/114 199/360/199 198/358/198
f 114/359/114 115/361/115 200/362/200 199/360/199
f 115/361/115 116/363/116 201/364/201 200/362/200
f 116/363/116 117/365/117 202/366/202 201/364/201
f 117/365/117 118/367/118 203/368/203 202/366/202
f 118/367/118 119/369/119 204/370/204 203/368/203
f 119/369/119 120/371/120 205/372/205 204/370/204
f 120/371/120 121/373/121 206/374/206 205/372/205
f 121/373/121 122/375/122 207/376/207 206/374/206
f 122/375/122 123/377/123 208/378/208 207/376/207
f 123/377/123 124/379/124 209/380/209 208/378/208
f 124/379/124 125/381/125 210/382/210 209/380/209
f 175/383/175 126/384/126 212/385/212 211/386/211
f 126/384/126 127/387/127 213/388/213 212/385/212
f 127/387/127 128/389/128 214/390/214 213/388/213
f 128/389/128 129/391/129 215/392/215 214/390/214
f 129/391/129 130/393/130 216/394/216 215/392/215
f 130/393/130 131/395/131 217/396/217 216/394/216
f 131/395/131 132/397/132 218/398/218 217/396/217
f 132/397/132 133/399/133 219/400/219 218/398/218
f 133/399/133 176/401/176 220/402/220 219/400/219
f 176/401/176 134/403/134 221/404/221 220/402/220
f 134/403/134 135/405/135 222/406/222 221/404/221
f 135/405/135 136/407/136 223/408/223 222/406/222
f 136/407/136 137/409/137 224/410/224 223/408/223
f 137/409/137 138/411/138 225/412/225 224/410/224
f 138/411/138 139/413/139 226/414/226 225/412/225
f 139/413/139 140/415/140 227/416/227 226/414/226
f 140/155/140 146/154/146 233/417/233 227/418/227
f 125/419/125 147/420/147 234/259/234 210/295/210
f 146/154/146 109/195/109 194/421/194 233/417/233
f 147/420/147 175/422/175 211/260/211 234/259/234
f 159/423/159 158/424/158 245/425/245 246/426/246
f 160/427/160 159/423/159 246/426/246 247/428/247
f 161/429/161 160/427/160 247/428/247 248/430/248
f 162/431/162 161/429/161 248/430/248 249/432/249
f 163/433/163 162/431/162 249/432/249 250/434/250
f 164/435/164 163/433/163 250/434/250 251/436/251
f 165/437/165 164/435/164 251/436/251 252/438/252
f 166/439/166 165/437/165 252/438/252 253/440/253
f 167/441/167 166/439/166 253/440/253 254/442/254
f 168/443/168 167/441/167 254/442/254 255/444/255
f 169/445/169 168/443/168 255/444/255 256/446/256
f 170/447/170 169/445/169 256/446/256 257/448/257
f 171/449/171 170/447/170 257/448/257 258/450/258
f 172/451/172 171/449/171 258/450/258 259/452/259
f 173/453/173 172/451/172 259/452/259 260/454/260
f 174/455/174 173/453/173 260/454/260 261/456/261
f 182/207/182 140/206/140 227/457/227 267/458/267
f 183/459/183 174/460/174 261/346/261 268/310/268
f 158/246/158 182/207/182 267/458/267 245/461/245
f 175/462/175 183/459/183 268/310/268 211/311/211
f 279/463/279 296/464/296 295/465/295 281/466/281
f 281/466/281 295/465/295 297/467/297 283/468/283
f 283/468/283 297/467/297 298/469/298 285/470/285
f 285/470/285 298/469/298 299/471/299 287/472/287
f 287/473/287 299/474/299 300/475/300 289/476/289
f 289/476/289 300/475/300 301/477/301 291/478/291
f 294/479/294 292/480/292 309/481/309 310/482/310
f 291/478/291 301/477/301 302/483/302 293/484/293
f 293/484/293 302/483/302 296/464/296 279/463/279
f 279/485/279 281/486/281 283/487/283 285/488/285 287/489/287 289/490/289 291/491/291 293/492/293
f 311/493/311 312/494/312 295/495/295 296/496/296
f 312/494/312 313/497/313 297/498/297 295/495/295
f 313/497/313 314/499/314 298/500/298 297/498/297
f 314/499/314 315/501/315 299/502/299 298/500/298
f 315/503/315 316/504/316 300/505/300 299/506/299
f 316/504/316 317/507/317 301/508/301 300/505/300
f 317/507/317 318/509/318 302/510/302 301/508/301
f 318/509/318 311/493/311 296/496/296 302/510/302
f 303/511/303 304/512/304 310/513/310 309/514/309 308/515/308 307/516/307 306/517/306 305/518/305
f 290/519/290 288/520/288 307/521/307 308/522/308
f 286/523/286 284/524/284 305/525/305 306/526/306
f 282/527/282 280/528/280 304/529/304 303/530/303
f 280/528/280 294/479/294 310/482/310 304/529/304
f 292/480/292 290/519/290 308/522/308 309/481/309
f 288/531/288 286/523/286 306/526/306 307/532/307
f 284/524/284 282/527/282 303/530/303 305/525/305
f 294/479/294 280/528/280 311/493/311 318/509/318
f 292/480/292 294/479/294 318/509/318 317/507/317
f 290/519/290 292/480/292 317/507/317 316/504/316
f 288/520/288 290/519/290 316/504/316 315/503/315
f 286/523/286 288/531/288 315/501/315 314/499/314
f 284/524/284 286/523/286 314/499/314 313/497/313
f 282/527/282 284/524/284 313/497/313 312/494/312
f 280/528/280 282/527/282 312/494/312 311/493/311
f 351/533/351 352/534/352 338/535/338 337/536/337
f 353/537/353 354/538/354 343/539/343 386/540/386
f 355/541/355 356/542/356 350/543/350 349/544/349
f 357/545/357 351/533/351 337/536/337 336/546/336
f 358/547/358 353/537/353 386/540/386 342/548/342
f 359/549/359 355/541/355 349/544/349 348/550/348
f 360/551/360 358/547/358 342/548/342 341/552/341
f 361/553/361 359/549/359 348/550/348 347/554/347
f 362/555/362 360/551/360 341/552/341 340/556/340
f 363/557/363 361/553/361 347/554/347 346/558/346
f 364/559/364 362/555/362 340/556/340 385/560/385
f 365/561/365 363/557/363 346/558/346 345/562/345
f 366/563/366 364/559/364 385/560/385 339/564/339
f 367/565/367 365/561/365 345/562/345 344/566/344
f 352/534/352 366/563/366 339/564/339 338/535/338
f 354/538/354 367/565/367 344/566/344 343/539/343
f 326/567/326 325/568/325 367/565/367 354/538/354
f 333/569/333 332/570/332 366/563/366 352/534/352
f 325/568/325 324/571/324 365/561/365 367/565/367
f 332/570/332 331/572/331 364/559/364 366/563/366
f 324/571/324 323/573/323 363/557/363 365/561/365
f 331/572/331 330/574/330 362/555/362 364/559/364
f 323/573/323 322/575/322 361/553/361 363/557/363
f 330/574/330 329/576/329 360/551/360 362/555/362
f 322/575/322 321/577/321 359/549/359 361/553/361
f 329/576/329 328/578/328 358/547/358 360/551/360
f 321/577/321 320/579/320 355/541/355 359/549/359
f 328/578/328 327/580/327 353/537/353 358/547/358
f 335/581/335 334/582/334 351/533/351 357/545/357
f 320/579/320 319/583/319 356/542/356 355/541/355
f 327/580/327 326/567/326 354/538/354 353/537/353
f 334/582/334 333/569/333 352/534/352 351/533/351
f 387/584/387 337/585/337 338/586/338 388/587/388
f 389/588/389 386/589/386 343/590/343 390/591/390
f 391/592/391 349/593/349 350/594/350 392/595/392
f 393/596/393 336/597/336 337/585/337 387/584/387
f 394/598/394 342/599/342 386/589/386 389/588/389
f 395/600/395 348/601/348 349/593/349 391/592/391
f 396/602/396 341/603/341 342/599/342 394/598/394
f 397/604/397 347/605/347 348/601/348 395/600/395
f 398/606/398 340/607/340 341/603/341 396/602/396
f 399/608/399 346/609/346 347/605/347 397/604/397
f 400/610/400 385/611/385 340/607/340 398/606/398
f 401/612/401 345/613/345 346/609/346 399/608/399
f 402/614/402 339/615/339 385/611/385 400/610/400
f 403/616/403 344/617/344 345/613/345 401/612/401
f 388/587/388 338/586/338 339/615/339 402/614/402
f 390/591/390 343/590/343 344/617/344 403/616/403
f 375/618/375 390/591/390 403/616/403 374/619/374
f 382/620/382 388/587/388 402/614/402 381/621/381
f 374/619/374 403/616/403 401/612/401 373/622/373
f 381/621/381 402/614/402 400/610/400 380/623/380
f 373/622/373 401/612/401 399/608/399 372/624/372
f 380/623/380 400/610/400 398/606/398 379/625/379
f 372/624/372 399/608/399 397/604/397 371/626/371
f 379/625/379 398/606/398 396/602/396 378/627/378
f 371/626/371 397/604/397 395/600/395 370/628/370
f 378/627/378 396/602/396 394/598/394 377/629/377
f 370/628/370 395/600/395 391/592/391 369/630/369
f 377/629/377 394/598/394 389/588/389 376/631/376
f 384/632/384 393/596/393 387/584/387 383/633/383
f 369/630/369 391/592/391 392/595/392 368/634/368
f 376/631/376 389/588/389 390/591/390 375/618/375
f 383/633/383 387/584/387 388/587/388 382/620/382
f 438/635/438 422/636/422 423/637/423 439/638/439
f 440/639/440 429/640/429 430/641/430 441/642/441
f 442/643/442 436/644/436 437/645/437 443/646/443
f 444/647/444 421/648/421 422/636/422 438/635/438
f 445/649/445 428/650/428 429/640/429 440/639/440
f 446/651/446 435/652/435 436/644/436 442/643/442
f 447/653/447 427/654/427 428/650/428 445/649/445
f 448/655/448 434/656/434 435/652/435 446/651/446
f 449/657/449 426/658/426 427/654/427 447/653/447
f 450/659/450 433/660/433 434/656/434 448/655/448
f 451/661/451 425/662/425 426/658/426 449/657/449
f 452/663/452 432/664/432 433/660/433 450/659/450
f 453/665/453 424/666/424 425/662/425 451/661/451
f 454/667/454 431/668/431 432/664/432 452/663/452
f 439/638/439 423/637/423 424/666/424 453/665/453
f 441/642/441 430/641/430 431/668/431 454/667/454
f 411/669/411 441/642/441 454/667/454 410/670/410
f 418/671/418 439/638/439 453/665/453 417/672/417
f 410/670/410 454/667/454 452/663/452 409/673/409
f 417/672/417 453/665/453 451/661/451 416/674/416
f 409/673/409 452/663/452 450/659/450 408/675/408
f 416/674/416 451/661/451 449/657/449 415/676/415
f 408/675/408 450/659/450 448/655/448 407/677/407
f 415/676/415 449/657/449 447/653/447 414/678/414
f 407/677/407 448/655/448 446/651/446 406/679/406
f 414/678/414 447/653/447 445/649/445 413/680/413
f 406/679/406 446/651/446 442/643/442 405/681/405
f 413/680/413 445/649/445 440/639/440 412/682/412
f 420/683/420 444/647/444 438/635/438 419/684/419
f 405/681/405 442/643/442 443/646/443 404/685/404
f 412/682/412 440/639/440 441/642/441 411/669/411
f 419/684/419 438/635/438 439/638/439 418/671/418
f 472/686/472 473/687/473 423/688/423 422/689/422
f 474/690/474 475/691/475 430/692/430 429/693/429
f 476/694/476 477/695/477 437/696/437 436/697/436
f 478/698/478 472/686/472 422/689/422 421/699/421
f 479/700/479 474/690/474 429/693/429 428/701/428
f 480/702/480 476/694/476 436/697/436 435/703/435
f 481/704/481 479/700/479 428/701/428 427/705/427
f 482/706/482 480/702/480 435/703/435 434/707/434
f 483/708/483 481/704/481 427/705/427 426/709/426
f 484/710/484 482/706/482 434/707/434 433/711/433
f 485/712/485 483/708/483 426/709/426 425/713/425
f 486/714/486 484/710/484 433/711/433 432/715/432
f 487/716/487 485/712/485 425/713/425 424/717/424
f 488/718/488 486/714/486 432/715/432 431/719/431
f 473/687/473 487/716/487 424/717/424 423/688/423
f 475/691/475 488/718/488 431/719/431 430/692/430
f 462/720/462 461/721/461 488/718/488 475/691/475
f 469/722/469 468/723/468 487/716/487 473/687/473
f 461/721/461 460/724/460 486/714/486 488/718/488
f 468/723/468 467/725/467 485/712/485 487/716/487
f 460/724/460 459/726/459 484/710/484 486/714/486
f 467/725/467 466/727/466 483/708/483 485/712/485
f 459/726/459 458/728/458 482/706/482 484/710/484
f 466/727/466 465/729/465 481/704/481 483/708/483
f 458/728/458 457/730/457 480/702/480 482/706/482
f 465/729/465 464/731/464 479/700/479 481/704/481
f 457/730/457 456/732/456 476/694/476 480/702/480
f 464/731/464 463/733/463 474/690/474 479/700/479
f 471/734/471 470/735/470 472/686/472 478/698/478
f 456/732/456 455/736/455 477/695/477 476/694/476
f 463/733/463 462/720/462 475/691/475 474/690/474
f 470/735/470 469/722/469 473/687/473 472/686/472
f 319/737/319 320/738/320 405/739/405 404/740/404
f 320/738/320 321/741/321 406/742/406 405/739/405
f 321/741/321 322/743/322 407/744/407 406/742/406
f 322/743/322 323/745/323 408/746/408 407/744/407
f 323/745/323 324/747/324 409/748/409 408/746/408
f 324/747/324 325/749/325 410/750/410 409/748/409
f 325/749/325 326/751/326 411/752/411 410/750/410
f 326/751/326 327/753/327 412/754/412 411/752/411
f 327/753/327 328/755/328 413/756/413 412/754/412
f 328/755/328 329/757/329 414/758/414 413/756/413
f 329/757/329 330/759/330 415/760/415 414/758/414
f 330/759/330 331/761/331 416/762/416 415/760/415
f 331/761/331 332/763/332 417/764/417 416/762/416
f 332/763/332 333/765/333 418/766/418 417/764/417
f 333/765/333 334/767/334 419/768/419 418/766/418
f 334/767/334 335/769/335 420/770/420 419/768/419
f 336/771/336 337/772/337 422/773/422 421/774/421
f 337/772/337 338/775/338 423/776/423 422/773/422
f 338/775/338 339/777/339 424/778/424 423/776/423
f 339/777/339 385/779/385 425/780/425 424/778/424
f 385/779/385 340/781/340 426/782/426 425/780/425
f 340/781/340 341/783/341 427/784/427 426/782/426
f 341/783/341 342/785/342 428/786/428 427/784/427
f 342/785/342 386/787/386 429/788/429 428/786/428
f 386/787/386 343/789/343 430/790/430 429/788/429
f 343/789/343 344/791/344 431/792/431 430/790/430
f 344/791/344 345/793/345 432/794/432 431/792/431
f 345/793/345 346/795/346 433/796/433 432/794/432
f 346/795/346 347/797/347 434/798/434 433/796/433
f 347/797/347 348/799/348 435/800/435 434/798/434
f 348/799/348 349/801/349 436/802/436 435/800/435
f 349/801/349 350/803/350 437/804/437 436/802/436
f 350/543/350 356/542/356 443/805/443 437/806/437
f 335/807/335 357/808/357 444/647/444 420/683/420
f 356/542/356 319/583/319 404/809/404 443/805/443
f 357/808/357 336/810/336 421/648/421 444/647/444
f 369/811/369 368/812/368 455/813/455 456/814/456
f 370/815/370 369/811/369 456/814/456 457/816/457
f 371/817/371 370/815/370 457/816/457 458/818/458
f 372/819/372 371/817/371 458/818/458 459/820/459
f 373/821/373 372/819/372 459/820/459 460/822/460
f 374/823/374 373/821/373 460/822/460 461/824/461
f 375/825/375 374/823/374 461/824/461 462/826/462
f 376/827/376 375/825/375 462/826/462 463/828/463
f 377/829/377 376/827/376 463/828/463 464/830/464
f 378/831/378 377/829/377 464/830/464 465/832/465
f 379/833/379 378/831/378 465/832/465 466/834/466
f 380/835/380 379/833/379 466/834/466 467/836/467
f 381/837/381 380/835/380 467/836/467 468/838/468
f 382/839/382 381/837/381 468/838/468 469/840/469
f 383/841/383 382/839/382 469/840/469 470/842/470
f 384/843/384 383/841/383 470/842/470 471/844/471
f 392/595/392 350/594/350 437/845/437 477/846/477
f 393/847/393 384/848/384 471/734/471 478/698/478
f 368/634/368 392/595/392 477/846/477 455/849/455
f 336/850/336 393/847/393 478/698/478 421/699/421
f 496/851/496 504/852/504 503/853/503 495/854/495
f 494/855/494 502/856/502 501/857/501 493/858/493
f 492/859/492 500/860/500 499/861/499 491/862/491
f 553/863/553 554/864/554 537/865/537 540/866/540
f 489/867/489 497/868/497 504/852/504 496/851/496
f 495/854/495 503/853/503 502/856/502 494/855/494
f 493/858/493 501/857/501 500/860/500 492/859/492
f 491/869/491 499/870/499 498/871/498 490/872/490
f 507/873/507 506/874/506 505/875/505 508/876/508
f 497/868/497 489/867/489 508/876/508 505/875/505
f 506/874/506 507/873/507 510/877/510 509/878/509
f 509/878/509 510/877/510 511/879/511 512/880/512
f 496/851/496 495/854/495 513/881/513 514/882/514
f 514/882/514 513/881/513 516/883/516 515/884/515
f 515/884/515 516/883/516 518/885/518 517/886/517
f 517/886/517 518/885/518 520/887/520 519/888/519
f 519/888/519 520/887/520 503/889/503 504/890/504
f 528/891/528 527/892/527 535/893/535 536/894/536
f 526/895/526 525/896/525 533/897/533 534/898/534
f 524/899/524 523/900/523 531/901/531 532/902/532
f 555/903/555 521/904/521 529/905/529 556/906/556
f 521/904/521 528/891/528 536/894/536 529/905/529
f 527/892/527 526/895/526 534/898/534 535/893/535
f 525/896/525 524/899/524 532/902/532 533/897/533
f 523/907/523 522/908/522 530/909/530 531/910/531
f 539/911/539 540/866/540 537/865/537 538/912/538
f 553/913/553 540/914/540 508/915/508 489/916/489
f 538/912/538 541/917/541 542/918/542 539/911/539
f 541/917/541 544/919/544 543/920/543 542/918/542
f 528/921/528 546/922/546 545/923/545 527/924/527
f 546/922/546 547/925/547 548/926/548 545/923/545
f 547/925/547 549/927/549 550/928/550 548/926/548
f 549/927/549 551/929/551 552/930/552 550/928/550
f 551/929/551 536/931/536 535/932/535 552/930/552
f 553/913/553 489/916/489 521/933/521 555/934/555
f 491/935/491 490/936/490 522/937/522 523/938/523
f 492/939/492 491/940/491 523/941/523 524/942/524
f 493/943/493 492/939/492 524/942/524 525/944/525
f 494/945/494 493/943/493 525/944/525 526/946/526
f 495/947/495 494/945/494 526/946/526 527/948/527
f 489/916/489 496/949/496 528/950/528 521/933/521
f 554/951/554 498/952/498 530/953/530 556/954/556
f 498/952/498 499/955/499 531/956/531 530/953/530
f 499/957/499 500/958/500 532/959/532 531/960/531
f 500/958/500 501/961/501 533/962/533 532/959/532
f 501/961/501 502/963/502 534/964/534 533/962/533
f 502/963/502 503/965/503 535/966/535 534/964/534
f 504/967/504 497/968/497 529/969/529 536/970/536
f 507/971/507 508/915/508 540/914/540 539/972/539
f 505/973/505 506/974/506 538/975/538 537/976/537
f 509/977/509 512/978/512 544/979/544 541/980/541
f 510/981/510 507/971/507 539/972/539 542/982/542
f 511/983/511 510/981/510 542/982/542 543/984/543
f 554/951/554 497/968/497 505/973/505 537/976/537
f 506/974/506 509/977/509 541/980/541 538/975/538
f 512/880/512 511/879/511 543/985/543 544/986/544
f 496/949/496 514/987/514 546/988/546 528/950/528
f 513/989/513 495/947/495 527/948/527 545/990/545
f 516/991/516 513/989/513 545/990/545 548/992/548
f 514/987/514 515/993/515 547/994/547 546/988/546
f 518/995/518 516/991/516 548/992/548 550/996/550
f 515/993/515 517/997/517 549/998/549 547/994/547
f 520/999/520 518/995/518 550/996/550 552/1000/552
f 517/997/517 519/1001/519 551/1002/551 549/998/549
f 519/1001/519 504/967/504 536/970/536 551/1002/551
f 503/965/503 520/999/520 552/1000/552 535/966/535
f 497/968/497 554/951/554 556/954/556 529/969/529
f 490/936/490 553/913/553 555/934/555 522/937/522
f 522/908/522 555/903/555 556/906/556 530/909/530
f 490/872/490 498/871/498 554/864/554 553/863/553
